<?xml version="1.0" encoding="UTF-8"?>
<svg id="Layer_1" data-name="Layer 1" xmlns="http://www.w3.org/2000/svg" viewBox="0 0 373 50">
  <defs>
    <style>
      .cls-1 {
        fill: #00b7ec;
      }

      .cls-1, .cls-2, .cls-3 {
        stroke-width: 0px;
      }

      .cls-2 {
        fill: #ee3826;
      }

      .cls-3 {
        fill: #fff;
      }
    </style>
  </defs>
  <g>
    <rect class="cls-3" x="175.86" y="20.34" width="1.62" height="23.99"/>
    <path class="cls-3" d="m185.05,20.34h1.62v4.43c1.51-2.59,4.54-4.86,8.16-4.86,5.46,0,8.27,3.4,8.27,8.43v15.99h-1.62v-15.77c0-4.05-2.05-7.08-6.75-7.08-3.67,0-6.64,2.65-8.05,5.67v17.18h-1.62v-23.99Z"/>
    <path class="cls-3" d="m211.36,21.85h-4.11v-1.51h4.11v-6.05h1.62v6.05h6.48v1.51h-6.48v17.13c0,2.97,1.24,4.27,3.67,4.27,1.24,0,2.38-.38,3.35-.86v1.62c-.92.43-2.21.76-3.35.76-3.24,0-5.29-1.78-5.29-5.62v-17.29Z"/>
    <path class="cls-3" d="m242.42,37.57c-.97,4.27-4.21,7.18-8.97,7.18-6.16,0-10.37-4.97-10.37-12.43s3.84-12.43,10.32-12.43,9.51,4.92,9.51,11.67v.59h-18.15c0,6.81,3.62,11.07,8.7,11.07,3.73,0,6.48-2.21,7.29-5.67h1.67Zm-17.61-6.86h16.37c-.16-4.7-2.43-9.29-7.78-9.29-4.81,0-8.1,3.73-8.59,9.29"/>
    <path class="cls-3" d="m259,21.69c-.54-.16-1.08-.27-1.84-.27-3.19,0-5.62,2.43-6.97,5.67v17.23h-1.62v-23.99h1.62v4.38c1.19-2.65,3.73-4.81,6.97-4.81.81,0,1.3.11,1.84.27v1.51Z"/>
    <path class="cls-3" d="m277.05,44.33v-2.59c-1.13,1.35-3.84,2.97-6.91,2.97-4.86,0-8.81-2.81-8.81-7.24s3.94-7.24,8.81-7.24c3.08,0,5.78,1.62,6.91,2.97v-5.13c0-4-2.38-6.64-6.54-6.64-3.24,0-5.46,1.4-6.48,4.7h-1.67c.97-4.05,4.16-6.21,8.16-6.21,5.02,0,8.16,3.13,8.16,8v16.42h-1.62Zm0-8.59c-.81-2.27-3.73-4-6.91-4-3.78,0-7.18,1.94-7.18,5.73s3.4,5.73,7.18,5.73c3.19,0,6.1-1.73,6.91-4v-3.46Z"/>
    <path class="cls-3" d="m294.55,19.91c4.81,0,7.89,2.92,8.86,7.18h-1.78c-.81-3.46-3.3-5.67-7.08-5.67-5.13,0-8.7,4.32-8.7,10.91s3.57,10.91,8.7,10.91c3.78,0,6.27-2.21,7.08-5.67h1.78c-.97,4.27-4.05,7.18-8.86,7.18-6.27,0-10.37-4.97-10.37-12.42s4.11-12.43,10.37-12.43"/>
    <path class="cls-3" d="m310.05,21.85h-4.11v-1.51h4.11v-6.05h1.62v6.05h6.48v1.51h-6.48v17.13c0,2.97,1.24,4.27,3.67,4.27,1.24,0,2.38-.38,3.35-.86v1.62c-.92.43-2.21.76-3.35.76-3.24,0-5.29-1.78-5.29-5.62v-17.29Z"/>
    <rect class="cls-3" x="323.83" y="20.34" width="1.62" height="23.99"/>
    <polygon class="cls-3" points="339.66 44.33 329.93 20.34 331.66 20.34 340.2 41.63 348.73 20.34 350.46 20.34 340.74 44.33 339.66 44.33"/>
    <path class="cls-3" d="m372.23,37.57c-.97,4.27-4.21,7.18-8.97,7.18-6.16,0-10.37-4.97-10.37-12.43s3.84-12.43,10.32-12.43,9.51,4.92,9.51,11.67v.59h-18.15c0,6.81,3.62,11.07,8.7,11.07,3.73,0,6.48-2.21,7.29-5.67h1.67Zm-17.61-6.86h16.37c-.16-4.7-2.43-9.29-7.78-9.29-4.81,0-8.1,3.73-8.59,9.29"/>
  </g>
  <g>
    <path class="cls-3" d="m140.35,44.26v-1.61c-2.95,2.13-6.08,2.55-9.44,1.66-4.54-1.2-6.92-5.59-5.25-9.9.81-2.1,2.5-3.41,4.56-4.12,3.36-1.16,6.66-1.02,9.76.93.08.05.18.05.53.13-.18-1.74-.12-3.45-.59-5-.64-2.16-2.28-2.98-4.93-2.98-2.44,0-3.89.96-4.86,3.27-1.04,0-2.12,0-3.19,0-.23,0-.45-.03-.77-.06.8-3.3,2.82-5.4,5.98-6.33,2.81-.82,5.62-.61,8.22.76,2.18,1.14,3.66,3.08,3.73,5.49.18,5.89.06,11.79.06,17.76h-3.82Zm0-6.92c0-1.91-.28-2.43-1.72-3.39-2.25-1.5-6.05-1.39-8.18.24-2.04,1.55-1.98,4.76.22,6.07,2.6,1.56,5.31,1.5,7.94.02,1.18-.66,2.02-1.59,1.74-2.94"/>
    <path class="cls-3" d="m168.23,44.76h-4.01v-1.06c0-4.6.04-9.2-.03-13.79-.02-1.14-.23-2.37-.71-3.38-1.01-2.11-3.57-3.01-5.96-2.34-1.72.48-3.13,1.41-4.02,2.96-.38.66-.66,1.49-.67,2.24-.06,4.7-.03,9.4-.03,14.09v1.27h-4.06v-23.93h4.04v2.66c1.39-1.3,2.83-2.34,4.56-2.79,3-.79,5.87-.55,8.34,1.55,1.56,1.32,2.47,3.12,2.52,5.08.15,5.76.09,11.53.11,17.3,0,.03-.03.06-.07.14"/>
    <path class="cls-3" d="m121.43,26.5c-1.29,0-2.43.03-3.57-.02-.25-.01-.6-.29-.7-.53-1.44-3.51-6.69-3.49-8.83-1.56-1.5,1.36-1.14,3.84.77,4.55,1.88.7,3.89,1.04,5.79,1.68,1.48.5,3.1.94,4.29,1.87,4.08,3.2,2.96,9.47-1.98,11.35-3.7,1.41-7.4,1.26-10.84-.82-1.92-1.17-3.18-2.92-3.53-5.39,1.33,0,2.62-.02,3.91.02.15,0,.38.26.44.44.67,2.05,2.95,3.3,5.53,3.19,1.01-.04,2.05-.32,3.01-.66,1.41-.5,1.99-1.7,1.93-3.1-.05-1.34-.92-2.23-2.16-2.62-1.98-.63-4.01-1.1-6-1.72-1.18-.37-2.37-.79-3.44-1.38-3.36-1.88-3.33-6.81-.91-9.34,1.86-1.95,4.22-2.67,6.81-2.73,2.36-.06,4.63.38,6.56,1.86,1.58,1.21,2.46,2.85,2.9,4.94"/>
  </g>
  <g>
    <path class="cls-1" d="m28.22,40.53c-.69,1.96-1.36,3.87-2.04,5.78-.29.82-1.15,1.41-2.04,1.41-.04,0-.08,0-.12,0-3.01-.19-5.95-.83-8.74-1.9-3.66-1.4-6.85-3.46-9.47-6.09-1.59-1.59-2.89-3.36-3.87-5.24-.1-.2-.15-.37-.17-.45l-.43-1.41,1.27-.76,7.54-4.4.97,1.45c3.48,5.17,8.64,7.85,15.78,8.2l2.49.12-1.16,3.31Z"/>
    <path class="cls-1" d="m41.89,20.3l-2-.15c-2.29-.17-4.64-.14-6.96-.05,2.11,3.35,4.34,6.13,6.78,8.46l1.4,1.34-7.89,7.66-1.3-1.31c-4.74-4.79-8.06-10.28-10.67-15.17-5.3.69-10.75,1.45-16.13,2.89l-1.76.47L.39,14.22l1.8-.51c4.86-1.38,9.77-2.16,14.57-2.85l-2.44-7.03,10.86-1.55.46,1.54c.04.13.08.26.11.4.07.24.13.46.2.65.35.96.7,1.93,1.05,2.89.23.64.46,1.28.7,1.92.21-.02.43-.03.64-.05,1.59-.11,3.24-.23,4.88-.28,1.39-.04,2.78-.02,4.13,0,.68,0,1.35.02,2.03.02,1.33,0,2.25.9,2.29,2.24.04,1.51.1,3.01.16,4.52l.06,1.67c0,.11,0,.22,0,.35v2.16Z"/>
    <path class="cls-1" d="m87.18,36c-.67,1.77-1.65,4.07-3.2,6.11-1.61,2.12-3.44,3.41-5.58,3.92-4.26,1.02-8.19-.42-10.51-3.84-1.36-2-2.11-4.2-2.77-6.28-.4-1.28-.95-2.53-1.43-3.58-.15-.32-.54-.72-.67-.84-.06-.06-.17-.17-.81-.04-.99.2-1.79.77-2.59,1.84-1.22,1.64-1.92,3.6-2.44,5.31-.48,1.57-.92,3.11-1.39,4.75-.2.7-.4,1.4-.61,2.11l-.51,1.76-10.14-2.74-.03-1.39c-.1-4.32,8.39-33.39,10.71-37.77l.7-1.32,10.71,2.96-.87,1.97c-1.86,4.2-3.41,8.21-4.72,12.13.49-.17,1-.3,1.5-.39,3.15-.53,5.81.2,7.88,2.17,1.17,1.12,2.12,2.55,2.82,4.28.42,1.05.81,2.11,1.19,3.14.33.89.67,1.81,1.02,2.7.23.59.5,1.24.84,1.82.48-.59.87-1.36,1.22-2.39.31-.95.6-1.9.89-2.91.13-.44.26-.89.4-1.34l.71-2.36,9.29,5.93-.87,2.34c-.24.66-.49,1.32-.73,1.97"/>
    <path class="cls-2" d="m89.97,24.56c-3.3.02-5.91-2.54-5.93-5.82-.02-3.2,2.7-5.93,5.9-5.92,3.18.01,5.79,2.63,5.81,5.82.02,3.35-2.47,5.9-5.78,5.92"/>
  </g>
</svg>