<?xml version="1.0" encoding="UTF-8"?>
<svg id="Layer_2" data-name="Layer 2" xmlns="http://www.w3.org/2000/svg" viewBox="0 0 148 96">
  <defs>
    <style>
      .cls-1 {
        fill: #00b7ec;
      }

      .cls-1, .cls-2 {
        stroke-width: 0px;
      }

      .cls-2 {
        fill: #ee3826;
      }
    </style>
  </defs>
  <path class="cls-1" d="m45.59,70.23c-.98,2.8-1.94,5.54-2.92,8.27-.42,1.18-1.65,2.02-2.91,2.02-.06,0-.12,0-.18,0-4.31-.27-8.52-1.19-12.51-2.72-5.24-2.01-9.8-4.95-13.56-8.72-2.27-2.28-4.14-4.81-5.55-7.5-.15-.29-.22-.53-.25-.65l-.61-2.02,1.81-1.09,10.79-6.29,1.4,2.07c4.98,7.4,12.37,11.23,22.59,11.73l3.57.17-1.66,4.73Z"/>
  <path class="cls-1" d="m65.15,41.27l-2.86-.21c-3.28-.24-6.64-.2-9.97-.07,3.02,4.79,6.21,8.78,9.7,12.11l2,1.91-11.29,10.96-1.85-1.88c-6.79-6.86-11.53-14.71-15.28-21.72-7.59.98-15.39,2.07-23.09,4.14l-2.52.68-4.25-14.63,2.58-.73c6.96-1.97,13.99-3.09,20.85-4.07l-3.49-10.06,15.55-2.22.66,2.2c.06.19.11.38.16.57.1.34.18.66.28.93.5,1.38,1,2.76,1.5,4.14.33.91.67,1.83,1,2.74.31-.02.61-.04.92-.07,2.28-.16,4.63-.33,6.98-.4,1.99-.06,3.98-.04,5.91-.01.97.01,1.94.03,2.91.03,1.9,0,3.22,1.29,3.27,3.21.06,2.16.15,4.31.23,6.47l.09,2.39c0,.16,0,.31,0,.5v3.09Z"/>
  <path class="cls-1" d="m129.97,63.74c-.97,2.54-2.36,5.83-4.57,8.75-2.31,3.04-4.92,4.88-7.99,5.61-6.1,1.46-11.72-.6-15.04-5.5-1.94-2.86-3.02-6.01-3.96-8.99-.58-1.83-1.36-3.62-2.05-5.13-.21-.46-.78-1.02-.97-1.21-.08-.08-.25-.25-1.17-.06-1.42.29-2.56,1.1-3.71,2.64-1.74,2.35-2.75,5.16-3.49,7.6-.69,2.24-1.32,4.45-1.99,6.8-.29,1-.57,2.01-.87,3.02l-.73,2.51-14.52-3.92-.05-1.99c-.14-6.19,12.01-47.8,15.33-54.06l1-1.89,15.33,4.23-1.24,2.82c-2.66,6.01-4.89,11.75-6.75,17.36.71-.25,1.42-.44,2.15-.56,4.52-.76,8.31.29,11.27,3.11,1.68,1.6,3.03,3.66,4.03,6.12.61,1.5,1.17,3.02,1.71,4.49.47,1.28.96,2.6,1.46,3.87.33.84.72,1.78,1.2,2.6.69-.85,1.25-1.95,1.74-3.42.45-1.36.85-2.72,1.28-4.17.19-.64.38-1.28.57-1.92l1.02-3.37,13.29,8.49-1.24,3.35c-.35.94-.7,1.88-1.05,2.82"/>
  <path class="cls-2" d="m133.98,47.37c-4.73.02-8.46-3.64-8.49-8.33-.03-4.58,3.87-8.49,8.45-8.47,4.55.02,8.29,3.76,8.32,8.33.03,4.8-3.54,8.45-8.28,8.47"/>
</svg>