<?xml version="1.0" encoding="UTF-8"?>
<svg id="Layer_1" data-name="Layer 1" xmlns="http://www.w3.org/2000/svg" viewBox="0 0 690 100">
  <defs>
    <style>
      .cls-1 {
        fill: #00b7ec;
      }

      .cls-1, .cls-2, .cls-3 {
        stroke-width: 0px;
      }

      .cls-2 {
        fill: #ee3826;
      }

      .cls-3 {
        fill: #fff;
      }
    </style>
  </defs>
  <g>
    <rect class="cls-3" x="325.62" y="41.55" width="2.94" height="43.5"/>
    <path class="cls-3" d="m342.27,41.55h2.94v8.03c2.74-4.7,8.23-8.82,14.79-8.82,9.9,0,14.99,6.17,14.99,15.28v29h-2.94v-28.61c0-7.35-3.72-12.84-12.25-12.84-6.66,0-12.05,4.8-14.6,10.29v31.16h-2.94v-43.5Z"/>
    <path class="cls-3" d="m389.99,44.29h-7.45v-2.74h7.45v-10.97h2.94v10.97h11.76v2.74h-11.76v31.06c0,5.39,2.25,7.74,6.66,7.74,2.25,0,4.31-.69,6.07-1.57v2.94c-1.66.78-4.02,1.37-6.07,1.37-5.88,0-9.6-3.23-9.6-10.19v-31.35Z"/>
    <path class="cls-3" d="m446.32,72.8c-1.76,7.74-7.64,13.03-16.26,13.03-11.17,0-18.81-9.01-18.81-22.54s6.96-22.53,18.71-22.53,17.24,8.92,17.24,21.16v1.08h-32.92c0,12.35,6.56,20.08,15.77,20.08,6.76,0,11.76-4.02,13.23-10.29h3.04Zm-31.94-12.44h29.69c-.29-8.52-4.41-16.85-14.11-16.85-8.72,0-14.7,6.76-15.58,16.85"/>
    <path class="cls-3" d="m476.4,44c-.98-.29-1.96-.49-3.33-.49-5.78,0-10.19,4.41-12.64,10.29v31.25h-2.94v-43.5h2.94v7.94c2.16-4.8,6.76-8.72,12.64-8.72,1.47,0,2.35.2,3.33.49v2.74Z"/>
    <path class="cls-3" d="m509.12,85.05v-4.7c-2.06,2.45-6.96,5.39-12.54,5.39-8.82,0-15.97-5.1-15.97-13.13s7.15-13.13,15.97-13.13c5.58,0,10.48,2.94,12.54,5.39v-9.31c0-7.25-4.31-12.05-11.86-12.05-5.88,0-9.89,2.55-11.76,8.52h-3.04c1.76-7.35,7.54-11.27,14.79-11.27,9.11,0,14.79,5.68,14.79,14.5v29.78h-2.94Zm0-15.58c-1.47-4.11-6.76-7.25-12.54-7.25-6.86,0-13.03,3.53-13.03,10.39s6.17,10.39,13.03,10.39c5.78,0,11.07-3.14,12.54-7.25v-6.27Z"/>
    <path class="cls-3" d="m540.87,40.77c8.72,0,14.3,5.29,16.07,13.03h-3.23c-1.47-6.27-5.98-10.29-12.83-10.29-9.31,0-15.77,7.84-15.77,19.79s6.47,19.79,15.77,19.79c6.86,0,11.36-4.02,12.83-10.29h3.23c-1.76,7.74-7.35,13.03-16.07,13.03-11.37,0-18.81-9.01-18.81-22.53s7.45-22.54,18.81-22.54"/>
    <path class="cls-3" d="m568.99,44.29h-7.45v-2.74h7.45v-10.97h2.94v10.97h11.76v2.74h-11.76v31.06c0,5.39,2.25,7.74,6.66,7.74,2.25,0,4.31-.69,6.07-1.57v2.94c-1.66.78-4.02,1.37-6.07,1.37-5.88,0-9.6-3.23-9.6-10.19v-31.35Z"/>
    <rect class="cls-3" x="593.97" y="41.55" width="2.94" height="43.5"/>
    <polygon class="cls-3" points="622.68 85.05 605.04 41.55 608.18 41.55 623.66 80.15 639.14 41.55 642.27 41.55 624.64 85.05 622.68 85.05"/>
    <path class="cls-3" d="m681.76,72.8c-1.76,7.74-7.64,13.03-16.26,13.03-11.17,0-18.81-9.01-18.81-22.54s6.96-22.53,18.71-22.53,17.24,8.92,17.24,21.16v1.08h-32.92c0,12.35,6.56,20.08,15.77,20.08,6.76,0,11.76-4.02,13.23-10.29h3.04Zm-31.94-12.44h29.69c-.29-8.52-4.41-16.85-14.11-16.85-8.72,0-14.7,6.76-15.58,16.85"/>
  </g>
  <g>
    <path class="cls-3" d="m261.21,84.94v-2.91c-5.35,3.87-11.02,4.63-17.12,3.02-8.24-2.17-12.54-10.14-9.52-17.96,1.47-3.81,4.54-6.19,8.27-7.48,6.09-2.11,12.08-1.85,17.69,1.68.14.09.33.09.97.23-.33-3.16-.22-6.26-1.06-9.07-1.17-3.91-4.14-5.4-8.95-5.4-4.42,0-7.05,1.74-8.81,5.93-1.89,0-3.84,0-5.79,0-.41,0-.83-.06-1.39-.11,1.44-5.99,5.11-9.8,10.85-11.48,5.09-1.49,10.2-1.1,14.91,1.37,3.95,2.07,6.64,5.59,6.77,9.97.33,10.68.11,21.38.11,32.21h-6.93Zm-.01-12.55c0-3.47-.5-4.41-3.12-6.15-4.08-2.71-10.97-2.51-14.84.43-3.7,2.81-3.58,8.62.4,11.01,4.72,2.82,9.62,2.72,14.4.04,2.13-1.2,3.67-2.88,3.16-5.33"/>
    <path class="cls-3" d="m311.78,85.84h-7.28v-1.92c0-8.34.08-16.68-.06-25.01-.03-2.06-.41-4.29-1.29-6.13-1.84-3.83-6.47-5.45-10.81-4.23-3.11.88-5.68,2.56-7.3,5.36-.69,1.2-1.2,2.7-1.22,4.07-.11,8.52-.05,17.04-.05,25.56v2.3h-7.36v-43.39h7.32v4.82c2.52-2.35,5.13-4.24,8.28-5.07,5.44-1.43,10.64-.99,15.13,2.8,2.83,2.4,4.48,5.66,4.58,9.21.28,10.45.16,20.92.19,31.38,0,.05-.05.1-.13.26"/>
    <path class="cls-3" d="m226.89,52.72c-2.33,0-4.41.06-6.47-.04-.45-.02-1.08-.53-1.26-.96-2.62-6.37-12.14-6.33-16.01-2.82-2.71,2.46-2.06,6.97,1.4,8.25,3.41,1.26,7.05,1.89,10.5,3.05,2.68.9,5.62,1.7,7.77,3.39,7.4,5.79,5.36,17.18-3.6,20.58-6.72,2.55-13.43,2.29-19.65-1.49-3.48-2.11-5.77-5.29-6.4-9.78,2.41,0,4.75-.03,7.1.04.28,0,.69.47.8.8,1.22,3.73,5.35,5.99,10.04,5.78,1.84-.08,3.71-.57,5.46-1.2,2.55-.91,3.6-3.08,3.51-5.63-.1-2.44-1.67-4.04-3.92-4.76-3.6-1.14-7.28-2-10.87-3.13-2.13-.67-4.29-1.42-6.24-2.51-6.09-3.4-6.04-12.35-1.66-16.95,3.38-3.54,7.66-4.84,12.35-4.95,4.27-.1,8.39.69,11.89,3.37,2.87,2.2,4.47,5.18,5.26,8.96"/>
  </g>
  <g>
    <path class="cls-1" d="m57.85,78.16c-1.24,3.55-2.46,7.02-3.69,10.48-.53,1.49-2.09,2.55-3.69,2.55-.08,0-.15,0-.23,0-5.46-.35-10.8-1.5-15.85-3.44-6.64-2.55-12.42-6.27-17.18-11.05-2.88-2.89-5.24-6.09-7.03-9.5-.19-.37-.27-.67-.31-.82l-.78-2.55,2.3-1.38,13.67-7.97,1.77,2.62c6.31,9.37,15.67,14.23,28.62,14.86l4.52.22-2.1,5.99Z"/>
    <path class="cls-1" d="m82.64,41.47l-3.62-.27c-4.16-.31-8.41-.25-12.63-.09,3.82,6.07,7.87,11.12,12.29,15.35l2.53,2.42-14.31,13.89-2.35-2.38c-8.6-8.69-14.61-18.64-19.36-27.52-9.61,1.25-19.5,2.62-29.25,5.25l-3.2.86-5.38-18.53,3.27-.93c8.82-2.5,17.72-3.92,26.42-5.16l-4.42-12.74,19.7-2.82.83,2.79c.07.24.14.48.21.72.12.43.23.83.36,1.18.63,1.75,1.27,3.5,1.91,5.24.42,1.16.84,2.32,1.26,3.47.39-.03.77-.05,1.16-.08,2.89-.21,5.87-.42,8.85-.51,2.52-.08,5.04-.05,7.49-.01,1.23.02,2.45.03,3.68.03,2.41,0,4.08,1.64,4.15,4.06.08,2.73.19,5.47.29,8.2l.12,3.02c0,.2,0,.39,0,.63v3.92Z"/>
    <path class="cls-1" d="m164.77,69.94c-1.22,3.22-2.99,7.39-5.8,11.09-2.92,3.85-6.23,6.18-10.13,7.1-7.73,1.85-14.85-.76-19.05-6.97-2.46-3.63-3.83-7.62-5.02-11.38-.73-2.32-1.72-4.59-2.59-6.5-.27-.58-.99-1.3-1.22-1.53-.1-.1-.32-.31-1.48-.08-1.8.36-3.25,1.39-4.7,3.34-2.21,2.98-3.48,6.54-4.43,9.62-.87,2.84-1.67,5.64-2.52,8.61-.36,1.27-.73,2.55-1.1,3.83l-.92,3.18-18.4-4.97-.06-2.53c-.17-7.84,15.22-60.56,19.42-68.5l1.27-2.4,19.43,5.36-1.58,3.58c-3.36,7.62-6.19,14.89-8.56,22,.9-.32,1.8-.55,2.73-.71,5.72-.96,10.53.36,14.29,3.94,2.13,2.02,3.84,4.63,5.11,7.76.77,1.9,1.48,3.83,2.16,5.69.6,1.62,1.21,3.29,1.85,4.9.42,1.07.91,2.26,1.52,3.3.88-1.07,1.58-2.47,2.2-4.33.57-1.72,1.08-3.45,1.62-5.28.24-.81.48-1.62.72-2.43l1.29-4.27,16.84,10.76-1.57,4.24c-.44,1.2-.88,2.39-1.33,3.57"/>
    <path class="cls-2" d="m169.84,49.21c-5.99.03-10.71-4.61-10.76-10.56-.04-5.8,4.9-10.75,10.71-10.73,5.76.02,10.5,4.77,10.54,10.56.04,6.08-4.48,10.71-10.49,10.73"/>
  </g>
</svg>