<?xml version="1.0" encoding="UTF-8"?>
<svg id="Layer_1" data-name="Layer 1" xmlns="http://www.w3.org/2000/svg" xmlns:xlink="http://www.w3.org/1999/xlink" viewBox="0 0 200 200">
  <defs>
    <style>
      .cls-1, .cls-2 {
        stroke-width: 0px;
      }

      .cls-1, .cls-3 {
        fill: none;
      }

      .cls-2 {
        fill: #ef3e2b;
      }

      .cls-3 {
        stroke: #fff;
        stroke-linecap: round;
        stroke-linejoin: round;
        stroke-width: 2px;
      }

      .cls-4 {
        clip-path: url(#clippath);
      }
    </style>
    <clipPath id="clippath">
      <circle class="cls-1" cx="100" cy="100.88" r="38"/>
    </clipPath>
  </defs>
  <circle class="cls-2" cx="100" cy="100.88" r="38"/>
  <g class="cls-4">
    <path class="cls-3" d="m110.62,71.26s15.22-20.83,25.08-20.12,21.63,24.21,19.62,33.38c-2.01,9.14-15.06,10.91-23.98,14.79,0,0,24.51,8.03,26.9,17.61,2.36,9.58-16.34,28.05-25.67,28.95-9.32.9-15.03-10.95-21.48-18.23,0,0-.05,25.79-8.43,31.02-8.38,5.23-31.74-6.87-35.49-15.49-3.74-8.58,5.78-17.68,10.7-26.07,0,0-24.57,7.91-32.1,1.56-7.57-6.38-3.25-32.29,3.77-38.51,7.02-6.21,18.62.02,28.12,2.12,0,0-15.11-20.9-11.41-30.04,3.73-9.14,29.7-13.09,37.79-8.33,8.09,4.73,5.73,17.7,6.67,27.39l-.1-.03Z"/>
  </g>
</svg>