<?xml version="1.0" encoding="UTF-8"?>
<svg id="Layer_1" data-name="Layer 1" xmlns="http://www.w3.org/2000/svg" viewBox="0 0 200 200">
  <defs>
    <style>
      .cls-1, .cls-2 {
        fill: #ee3826;
      }

      .cls-1, .cls-3 {
        stroke: #11283b;
        stroke-linecap: round;
        stroke-linejoin: round;
        stroke-width: 2px;
      }

      .cls-2 {
        stroke-width: 0px;
      }

      .cls-3 {
        fill: none;
      }
    </style>
  </defs>
  <g id="Colors">
    <g>
      <g>
        <line class="cls-1" x1="95.49" y1="142.95" x2="100" y2="139.15"/>
        <line class="cls-1" x1="104.51" y1="142.95" x2="100" y2="139.15"/>
        <line class="cls-1" x1="93.87" y1="140.87" x2="100" y2="139.15"/>
        <line class="cls-1" x1="106.13" y1="140.87" x2="100" y2="139.15"/>
        <line class="cls-1" x1="100" y1="144.76" x2="100" y2="139.15"/>
        <line class="cls-1" x1="102.42" y1="144.17" x2="100" y2="139.15"/>
        <line class="cls-1" x1="97.58" y1="144.17" x2="100" y2="139.15"/>
      </g>
      <g>
        <path class="cls-3" d="m100,139.15l-29.37-16.96c1.49-2.57,3.3-4.93,5.39-7.02l23.98,23.98Z"/>
        <path class="cls-3" d="m100,139.15l-23.98-23.98c2.09-2.09,4.45-3.91,7.02-5.39l16.96,29.37Z"/>
        <path class="cls-3" d="m100,139.15l-16.96-29.37c2.54-1.47,5.28-2.62,8.18-3.39l8.78,32.76Z"/>
        <path class="cls-3" d="m100,105.24v33.91l-8.78-32.76c2.8-.75,5.74-1.15,8.78-1.15Z"/>
        <path class="cls-3" d="m108.78,106.39l-8.78,32.76v-33.91c3.04,0,5.98.4,8.78,1.15Z"/>
        <path class="cls-3" d="m116.96,109.78l-16.95,29.37,8.78-32.76c2.89.77,5.64,1.92,8.17,3.39Z"/>
        <path class="cls-3" d="m123.98,115.17l-23.97,23.98,16.95-29.37c2.57,1.48,4.93,3.3,7.02,5.39Z"/>
        <path class="cls-3" d="m129.37,122.19l-29.36,16.96,23.97-23.98c2.09,2.09,3.91,4.45,5.39,7.02Z"/>
      </g>
      <g>
        <polyline class="cls-3" points="91.22 106.39 79.73 63.52 100 60.85"/>
        <polyline class="cls-3" points="83.04 109.78 60.85 71.34 79.73 63.52"/>
        <polyline class="cls-3" points="76.02 115.17 44.63 83.78 60.85 71.34"/>
        <polyline class="cls-3" points="70.63 122.19 32.19 100 44.63 83.78"/>
        <polyline class="cls-3" points="155.37 83.78 167.81 100 129.37 122.19"/>
        <polyline class="cls-3" points="139.15 71.34 155.37 83.78 123.98 115.17"/>
        <polyline class="cls-3" points="120.27 63.52 139.15 71.34 116.96 109.78"/>
        <polyline class="cls-3" points="108.78 106.39 120.27 63.52 100 60.85 100 105.24"/>
      </g>
    </g>
    <path class="cls-2" d="m100,92.57c5.62,0,10.17-4.68,10.17-10.45s-4.55-10.45-10.17-10.45-10.17,4.68-10.17,10.45,4.55,10.45,10.17,10.45"/>
  </g>
</svg>