<?xml version="1.0" encoding="UTF-8"?>
<svg id="Layer_1" data-name="Layer 1" xmlns="http://www.w3.org/2000/svg" viewBox="0 0 200 200">
  <defs>
    <style>
      .cls-1 {
        fill: #ee3826;
        stroke-width: 0px;
      }

      .cls-2 {
        stroke-width: 2.5px;
      }

      .cls-2, .cls-3 {
        fill: none;
        stroke: #11283b;
        stroke-linecap: round;
        stroke-linejoin: round;
      }

      .cls-3 {
        stroke-width: 2px;
      }
    </style>
  </defs>
  <g id="Copywriting_v2" data-name="Copywriting v2">
    <g>
      <path class="cls-3" d="m100.04,134.7s.77-5.17,7.34-11.07c4.63-4.16,13.21-6.19,13.21-6.19,0,0,.23,1.17,1.78,1.81,1.31.54,2.25.16,2.25.16,0,0,.58,7.68-6.42,14.96-4.93,5.12-11.69,5.89-17.91,4.86,0,0,2.43-2.66-.24-4.53Z"/>
      <path class="cls-3" d="m120.58,117.44s-.42-6.46,5.76-20.14c6.18-13.68,22.86-38.97,22.86-38.97,0,0,1.13-.5,2.47.06s1.66,1.77,1.66,1.77c0,0-11.06,30.81-16.81,42.68-6,12.38-11.9,16.57-11.9,16.57"/>
      <path class="cls-3" d="m127.23,95.4s3.2,4.61,10.49,4.83"/>
    </g>
    <g>
      <g>
        <path class="cls-2" d="m61.08,57.78l-.22,25.84s-.21,3.85,3.44,3.51,16.57-1.98,16.57-1.98"/>
        <path class="cls-2" d="m88.95,84.48l-.39-30.17s.21-3.85-3.44-3.51-17.87,2.02-17.87,2.02"/>
        <line class="cls-2" x1="77.59" y1="69.27" x2="61.84" y2="70.48"/>
      </g>
      <g>
        <path class="cls-2" d="m71.81,149.78s2.23.7,4.56,0v-43.06s.19-6.3-3.55-9.7"/>
        <path class="cls-2" d="m63.38,106.56s24.93-.06,33.36.26"/>
        <path class="cls-2" d="m76.38,117.86c-5.94,9.09-25.28,15.96-25.28,15.96"/>
        <path class="cls-2" d="m103.25,143.14s-24.07-21.21-26.87-25.28"/>
        <path class="cls-2" d="m84.16,138.03s-4.49,1.33-15.66.11"/>
      </g>
    </g>
    <path class="cls-1" d="m116.84,72.93c5.74,0,10.4-4.65,10.4-10.4s-4.65-10.4-10.4-10.4-10.4,4.65-10.4,10.4,4.65,10.4,10.4,10.4"/>
  </g>
</svg>