<?xml version="1.0" encoding="UTF-8"?>
<svg id="Layer_1" data-name="Layer 1" xmlns="http://www.w3.org/2000/svg" viewBox="0 0 200 200">
  <defs>
    <style>
      .cls-1 {
        fill: #ee3826;
      }

      .cls-1, .cls-2 {
        stroke-width: 0px;
      }

      .cls-2 {
        fill: #11283b;
      }
    </style>
  </defs>
  <path class="cls-1" d="m86.15,99.83c0,6.8-5.51,12.31-12.31,12.31s-12.31-5.51-12.31-12.31,5.51-12.31,12.31-12.31,12.31,5.51,12.31,12.31"/>
  <path class="cls-2" d="m148.86,68.55c.92-.55,1.34-1.61,1.06-2.63-.28-1.03-1.19-1.72-2.26-1.72h-6.61l5.63-4.96c.74-.65.99-1.67.64-2.59-.35-.92-1.21-1.52-2.19-1.52h-36.53c-.19-.02-.34.02-.48.09l-22.34,11.84c-.12.06-.22.15-.29.27l-.17.17-4.73,2.57-.33-.19-18.94-11.21h0s-.04-.02-.04-.02h-.01s-.08,0-.08,0l-.41.11-9.75,6.67c-.68.47-1.06,1.24-1.01,2.06.04.82.51,1.55,1.23,1.93l9.13,4.89v7.07c0,.22.05.4.16.55l28.87,38.18-3.25,5.08c-.65,1.02-.41,2.39.55,3.12l21.35,16.36c.24.18.58.21.84.08.27-.14.45-.42.45-.72v-51.92l.33-.2,39.19-23.39Zm-88.49,3.96l-8.67-4.65-.07-.39c-.02-.32.1-.55.32-.7l8.43-5.78v11.52Zm1.61-11.63l16.96,10.09-16.96,9.15v-19.24Zm45.75,81.55l-20.06-15.37c-.3-.22-.38-.65-.17-.98l20.23-31.58v47.92Zm0-50.9l-.06.1-17.34,27.07-27.95-36.96,27.64-14.91c.1-.06.19-.14.27-.24l.16-.15,17.29-9.16v34.25Zm39.69-25.73l.29-.29.48.51c.15.16.23.41.2.63l-.02.16-.13.2-.15.13-26.17,15.62-.76-1.04,18.06-15.91h8.19Zm-38.08-9.05l36.12.06.11.08c.23.17.35.48.29.76l-.23.39-7.13,6.23c-.08.03-.15.08-.21.13l-28.94,25.49v-33.14Z"/>
</svg>