<?xml version="1.0" encoding="UTF-8"?>
<svg id="Layer_1" data-name="Layer 1" xmlns="http://www.w3.org/2000/svg" viewBox="0 0 200 200">
  <defs>
    <style>
      .cls-1 {
        fill: #ee3826;
      }

      .cls-1, .cls-2 {
        stroke-width: 0px;
      }

      .cls-2 {
        fill: #11283b;
      }

      .cls-3 {
        fill: none;
        stroke: #11283b;
        stroke-linecap: round;
        stroke-linejoin: round;
        stroke-width: 2.5px;
      }
    </style>
  </defs>
  <g id="CAT">
    <g>
      <path class="cls-3" d="m130.66,102.77c2.37-4.03-.36-9.07-.36-9.07,0,0,8.9-4.38,9.67-17.2.75-12.57-8.12-19.69-8.12-19.69,0,0-3.17-16.46-7.26-16.52s-13.13,9.28-13.13,9.28c-2.81-1.6-7.14-1.48-7.14-1.48,0,0-3.85-.18-7.14,1.48,0,0-9.04-9.34-13.13-9.28s-7.26,16.52-7.26,16.52c0,0-8.87,7.12-8.12,19.69.76,12.82,9.67,17.2,9.67,17.2,0,0-2.73,5.04-.36,9.07,0,0-6.09,3.2-9.9,14.8-4.21,12.81-7.71,23.69-1.72,33.12s16.75,9.44,21.82,8.78c5.87-.77,7.53-4.33,7.53-4.33,0,0,2.42,3.76,8.62,3.76"/>
      <path class="cls-3" d="m140.87,118.52c4.07,12.39,7.24,22.97,1.41,32.16s-16.75,9.44-21.82,8.78c-5.87-.77-7.53-4.33-7.53-4.33,0,0-2.42,3.76-8.62,3.76"/>
    </g>
    <path class="cls-3" d="m71.94,62.72s-6.21-4.31-13.09,2.57c-6.88,6.88-3.91,24.67-2.25,30.72,1.66,6.05,4.35,14.71,12.55,18.56"/>
    <path class="cls-3" d="m130.3,93.69s8.45,1.52,11.61,9.27c3.16,7.75,1.2,15.34-5.81,20.56s-19.02,6.88-20.36,2.06c0,0-7.35-1.43-6.19-8.46.93-5.61,5.48-6.78,8.44-7.27,7.89-1.3,11.4-4.71,12.66-7.08,2.21-4.19-.36-9.07-.36-9.07Z"/>
    <path class="cls-3" d="m78.3,93.69s6.57,4.21,26,4.21,26.07-4.25,26.07-4.25"/>
    <path class="cls-3" d="m77.95,102.77s3.73,4.86,26.35,4.86,26.07-4.26,26.07-4.26"/>
    <path class="cls-3" d="m95.68,155.13s2.19-3.32,1.29-6.82c-1.48-5.75-5.98-7.77-10.55-7.83s-7-2.43-7-2.43"/>
    <path class="cls-3" d="m95.6,155.73c2.27,1.96,5.22,3.15,8.44,3.15h0c7.11,0,12.93-5.82,12.93-12.93v-18.68"/>
    <path class="cls-3" d="m91.11,140.84v-16.31c0-7.11,5.82-12.93,12.93-12.93h0c2.52,0,4.88.73,6.87,1.99"/>
    <path class="cls-3" d="m118.36,141.58s8.57,1.21,11.18-2.47"/>
    <g>
      <path class="cls-3" d="m125.69,70.57s-6.88-2.67-14.47,2.08"/>
      <path class="cls-3" d="m82.99,70.57s6.88-2.67,14.47,2.08"/>
    </g>
    <path class="cls-3" d="m104.3,82.55s-1.63,4.09-8.15,4.21"/>
    <path class="cls-3" d="m104.3,82.55s1.63,4.09,8.15,4.21"/>
    <ellipse class="cls-2" cx="104.34" cy="79.4" rx="4.91" ry="3.14"/>
    <circle class="cls-1" cx="104.3" cy="105.23" r="7.33"/>
  </g>
</svg>