<?xml version="1.0" encoding="UTF-8"?>
<svg id="Layer_1" data-name="Layer 1" xmlns="http://www.w3.org/2000/svg" viewBox="0 0 200 200">
  <defs>
    <style>
      .cls-1 {
        fill: #ee3826;
      }

      .cls-1, .cls-2 {
        stroke-width: 0px;
      }

      .cls-2 {
        fill: #11283b;
      }
    </style>
  </defs>
  <path class="cls-2" d="m59.03,76.04l-9.42,16.29c-.37.63-.15,1.45.48,1.81.61.35,1.46.13,1.81-.48l7.19-12.43,1.6,27.26c0,.14.04.28.09.42l.04.18,2.02,35.31c.22,3.83,3.4,6.84,7.24,6.84h39.45c3.83,0,7.01-3,7.23-6.83l3.6-62.9,6.36,11.9c.33.63,1.17.88,1.79.55.31-.17.54-.45.64-.79.1-.34.07-.7-.1-1.01l-8.43-15.78v-.13c-.01-.2-.03-.39-.04-.58h-21.76l.04-.61c.1-1.47.71-2.84,1.73-3.86,3.21-3.21,3.21-8.44,0-11.65-.66-.66-1.15-1.47-1.45-2.41l-.24-.74h50.58c.59,0,1.07-.48,1.07-1.07s-.48-1.07-1.07-1.07h-50.64l1.37-3.33h48.52c.59,0,1.07-.48,1.07-1.07s-.48-1.07-1.07-1.07h-80.35c-.59,0-1.07.48-1.07,1.07s.48,1.07,1.07,1.07h9.03l-.77,3.33h-9.02c-.59,0-1.07.48-1.07,1.07s.48,1.07,1.07,1.07h9.03l.09.46c.31,1.63,1.09,3.1,2.26,4.27.92.92,1.52,2.12,1.7,3.39.27,1.91-.35,3.78-1.7,5.13-1.46,1.46-2.3,3.41-2.38,5.49l-.02.55-17.26.02-.17.15-.51-.28.43.38-.53-.23.46.34Zm31.2-24.91l.17-.22h7.17l-.32.79c-.39.96-.6,1.97-.6,3.01v.1c0,2.12.84,4.12,2.33,5.61.92.92,1.52,2.12,1.69,3.38.24,1.85-.37,3.66-1.67,4.96-1.64,1.64-2.48,3.93-2.29,6.28l.05.61h-7.68l-.06-.49c-.03-.24-.06-.48-.06-.73,0-1.57.61-3.05,1.72-4.16,3.13-3.13,3.13-8.22,0-11.35-1.11-1.11-1.72-2.59-1.72-4.16,0-1.31.44-2.57,1.29-3.63m-9.58,19.14c1.51-1.51,2.35-3.53,2.35-5.67s-.83-4.16-2.35-5.67c-1.11-1.11-1.72-2.59-1.72-4.16,0-1.31.44-2.57,1.28-3.63l.17-.22h7.17l-.32.79c-1.24,3.01-.56,6.44,1.74,8.74,1.11,1.11,1.72,2.59,1.72,4.16s-.61,3.05-1.72,4.16c-1.64,1.64-2.48,3.93-2.29,6.28l.05.61h-7.68l-.06-.49c-.03-.24-.05-.48-.05-.73,0-1.57.61-3.05,1.72-4.16m37.14,7.78l-3.79,66.2c-.14,2.43-2.15,4.33-4.58,4.33h-39.32c-2.43,0-4.45-1.9-4.59-4.33l-2.35-41.05c0-.15-.04-.3-.11-.45l-.04-.19-1.44-24.51h56.22Z"/>
  <path class="cls-1" d="m89.52,126.23c7.24,0,13.11-5.87,13.11-13.11s-5.87-13.1-13.11-13.1-13.11,5.87-13.11,13.1,5.87,13.11,13.11,13.11"/>
</svg>