<?xml version="1.0" encoding="UTF-8"?>
<svg id="Layer_1" data-name="Layer 1" xmlns="http://www.w3.org/2000/svg" viewBox="0 0 200 200">
  <defs>
    <style>
      .cls-1 {
        fill: #ee3826;
        stroke-width: 0px;
      }

      .cls-2 {
        fill: none;
        stroke: #11283b;
        stroke-linecap: round;
        stroke-linejoin: round;
        stroke-width: 2px;
      }
    </style>
  </defs>
  <g id="rising_sun" data-name="rising sun">
    <path class="cls-1" d="m83.42,89.07c5.77-5.77,5.77-15.12,0-20.89-5.77-5.77-15.12-5.77-20.89,0-5.77,5.77-5.77,15.12,0,20.89s15.12,5.77,20.89,0"/>
    <g>
      <g>
        <path class="cls-2" d="m50,122.65c7.14,0,7.14,4,14.28,4s7.14-4,14.29-4,7.14,4,14.28,4,7.14-4,14.29-4,7.14,4,14.28,4,7.15-4,14.29-4,7.15,4,14.29,4"/>
        <path class="cls-2" d="m63.33,132.2c6.11,0,6.11,4,12.22,4s6.11-4,12.22-4,6.11,4,12.22,4,6.11-4,12.22-4,6.11,4,12.23,4,6.11-4,12.23-4"/>
        <path class="cls-2" d="m78.13,141.76c5.47,0,5.47,4,10.93,4s5.46-4,10.93-4,5.47,4,10.94,4,5.47-4,10.94-4"/>
      </g>
      <g>
        <path class="cls-2" d="m67.77,126.18c-3.79-5.93-5.98-12.98-5.98-20.53,0-21.1,17.11-38.21,38.21-38.21s38.21,17.11,38.21,38.21c0,6.14-1.45,11.94-4.02,17.08"/>
        <g>
          <line class="cls-2" x1="100" y1="67.43" x2="100" y2="56.24"/>
          <line class="cls-2" x1="72.98" y1="78.63" x2="65.07" y2="70.71"/>
          <line class="cls-2" x1="138.21" y1="105.65" x2="149.4" y2="105.65"/>
          <line class="cls-2" x1="127.02" y1="78.63" x2="134.93" y2="70.71"/>
          <line class="cls-2" x1="61.79" y1="105.65" x2="50.6" y2="105.65"/>
          <line class="cls-2" x1="138.21" y1="105.65" x2="149.4" y2="105.65"/>
        </g>
        <g>
          <line class="cls-2" x1="90.11" y1="68.74" x2="88.66" y2="63.33"/>
          <line class="cls-2" x1="80.89" y1="72.55" x2="78.1" y2="67.71"/>
          <line class="cls-2" x1="66.91" y1="86.54" x2="62.06" y2="83.74"/>
          <line class="cls-2" x1="63.09" y1="95.76" x2="57.68" y2="94.31"/>
          <line class="cls-2" x1="63.09" y1="115.54" x2="57.68" y2="116.99"/>
          <line class="cls-2" x1="136.91" y1="115.54" x2="142.32" y2="116.99"/>
          <line class="cls-2" x1="136.91" y1="95.76" x2="142.32" y2="94.31"/>
          <line class="cls-2" x1="133.09" y1="86.54" x2="137.94" y2="83.74"/>
          <line class="cls-2" x1="119.11" y1="72.55" x2="121.9" y2="67.71"/>
          <line class="cls-2" x1="109.89" y1="68.74" x2="111.34" y2="63.33"/>
        </g>
      </g>
    </g>
  </g>
</svg>