<?xml version="1.0" encoding="UTF-8"?>
<svg id="Layer_1" data-name="Layer 1" xmlns="http://www.w3.org/2000/svg" viewBox="0 0 200 200">
  <defs>
    <style>
      .cls-1 {
        fill: #ee3826;
      }

      .cls-1, .cls-2 {
        stroke-width: 0px;
      }

      .cls-2 {
        fill: #11283b;
      }
    </style>
  </defs>
  <g>
    <path class="cls-2" d="m92.03,137.88c2.84-6.1-.43-12.67-5.11-16.01-1.69-1.2-3.53-2.13-5.31-3.04-1.81-.92-3.68-1.86-5.35-3.09l-.98-.72.85-.87c2.62-2.7,4.21-6.16,4.59-10.01.42-4.34-.78-8.6-3.4-11.99-.16-.21-.41-.35-.68-.38-.27-.03-.54.06-.74.23-2.32,1.99-4.04,4.62-4.96,7.61l-1.51,4.9-.55-5.09c-.66-6.06-.18-13.09,1.47-21.5l.08-.44,14.63-9.58c.32-.21.49-.59.43-.97-.06-.38-.34-.69-.71-.8l-8.35-2.34-5.79-7.42c-.26-.33-.7-.46-1.09-.33-.4.13-.66.5-.67.92l-.18,19.3-.3.3c-9.48,9.77-14.54,23.58-13.52,36.95.13,1.7.35,3.39.66,5.04l.44,2.35-2.04-1.25c-3.4-2.09-7.37-2.76-11.19-1.88-.52.12-.85.64-.74,1.16.91,4.42,3.43,8.15,7.1,10.51,2.46,1.58,5.27,2.42,8.13,2.42.82,0,1.71-.09,2.72-.28l.67-.12.39.56c2.85,4.09,6.59,7.34,10.82,9.4,2,.97,5.96,2.6,10.12,2.6,1.55,0,2.98-.23,4.26-.69,2.61-.93,4.57-2.76,5.82-5.45m-21.21-78.09l4.26,5.45c.13.16.31.29.51.34l6.57,1.84-11.49,7.53.14-15.17Zm4.56,35.55l1.02-1.26.75,1.43c2.72,5.22,2.09,11.77-1.57,16.3l-1.02,1.26-.75-1.43c-2.72-5.22-2.09-11.77,1.57-16.3m-17.59,34.53c-.19,0-.37.01-.56.01-2.49,0-4.93-.73-7.06-2.1-2.56-1.65-4.5-4.06-5.59-6.98l-.51-1.37,1.46-.06c2.67-.13,5.31.6,7.62,2.09,2.56,1.65,4.5,4.06,5.59,6.98l.51,1.37-1.46.06Zm24.15,12.16c-2.8,0-6.09-.85-9.25-2.39-5.6-2.72-10.16-7.58-12.85-13.67-1.64-3.71-2.65-7.96-3-12.61-.81-10.58,2.24-21.3,8.57-30.17l2.49-3.48-.57,4.24c-1.04,7.74-.93,14.41.35,20.4,1.04,4.87,2.76,8.49,5.25,11.08,2.26,2.35,5.07,3.77,7.79,5.15,1.8.91,3.51,1.77,5.08,2.89,5.32,3.79,6.28,9.7,4.47,13.58-1.03,2.22-2.57,3.67-4.69,4.42-1.06.37-2.27.57-3.61.57"/>
    <path class="cls-2" d="m150.89,70.61c-3.22-2.07-7.06-2.84-10.82-2.15l-.67.12-.39-.56c-2.86-4.11-6.61-7.38-10.85-9.44-2.51-1.22-8.93-3.85-14.39-1.91-2.61.93-4.57,2.76-5.82,5.45-2.84,6.1.43,12.67,5.12,16.01,1.69,1.2,3.54,2.14,5.32,3.04,1.8.91,3.66,1.85,5.33,3.09l.98.72-.85.87c-2.62,2.7-4.21,6.16-4.59,10.01-.42,4.34.78,8.6,3.4,11.99.16.21.41.35.68.38.27.03.53-.05.74-.23,2.32-1.99,4.04-4.62,4.97-7.61l1.51-4.9.55,5.1c.66,6.07.18,13.11-1.48,21.54l-.09.44-14.57,9.54c-.32.21-.49.59-.43.97.06.38.34.69.7.8l8.35,2.34,5.79,7.42c.25.33.7.46,1.09.33.39-.13.66-.5.67-.92l.18-19.35.29-.3c9.45-9.77,14.49-23.56,13.47-36.9-.13-1.67-.35-3.34-.65-4.98l-.44-2.35,2.04,1.25c3.39,2.08,7.36,2.74,11.18,1.87.52-.12.85-.64.74-1.16-.91-4.42-3.43-8.15-7.1-10.51m-21.66,69.6l-4.26-5.46c-.13-.16-.31-.28-.51-.34l-6.58-1.84,11.49-7.53-.14,15.17Zm-4.61-35.55l-1.02,1.26-.75-1.43c-2.72-5.22-2.09-11.77,1.57-16.3l1.02-1.26.75,1.43c2.72,5.22,2.09,11.77-1.57,16.3m9.98,12.15h0l-2.49,3.48.57-4.24c1.04-7.74.93-14.41-.35-20.4-1.04-4.87-2.76-8.49-5.25-11.08-2.27-2.35-5.07-3.77-7.79-5.15-1.81-.92-3.51-1.78-5.08-2.89-5.32-3.79-6.28-9.7-4.47-13.58,1.03-2.22,2.57-3.67,4.69-4.42,3.24-1.15,8.18-.46,12.87,1.83,5.6,2.73,10.16,7.58,12.85,13.67,1.64,3.71,2.65,7.96,3,12.61.81,10.58-2.24,21.3-8.57,30.17m19.88-36.13c-.19,0-.38.01-.56.01-2.48,0-4.93-.73-7.06-2.1-2.56-1.65-4.5-4.06-5.59-6.98l-.51-1.37,1.46-.06c2.7-.1,5.33.61,7.62,2.09,2.56,1.65,4.5,4.07,5.59,6.98l.51,1.36-1.46.06Z"/>
  </g>
  <path class="cls-1" d="m109.73,99.74c0,6.44-5.22,11.66-11.66,11.66s-11.66-5.22-11.66-11.66,5.22-11.66,11.66-11.66,11.66,5.22,11.66,11.66"/>
</svg>