<?xml version="1.0" encoding="UTF-8"?>
<svg id="Layer_1" data-name="Layer 1" xmlns="http://www.w3.org/2000/svg" viewBox="0 0 200 200">
  <defs>
    <style>
      .cls-1 {
        fill: #ee3826;
        stroke-width: 0px;
      }

      .cls-2 {
        stroke-miterlimit: 10;
      }

      .cls-2, .cls-3 {
        fill: none;
        stroke: #11283b;
        stroke-width: 2px;
      }

      .cls-3 {
        stroke-linecap: round;
        stroke-linejoin: round;
      }
    </style>
  </defs>
  <g id="Social_Media" data-name="Social Media">
    <g>
      <path class="cls-2" d="m89.56,126.28l-1.74,2.55c-.09.13-.13.28-.13.43v29.98c0,.42-.34.76-.76.76h-14.74c-.42,0-.76-.34-.76-.76v-29.98c0-.15-.05-.3-.13-.43l-1.74-2.55c-.35-.5.02-1.19.63-1.19h18.76c.61,0,.97.68.63,1.19Z"/>
      <path class="cls-2" d="m89.56,91.24l-1.74,2.55c-.09.13-.13.28-.13.43v29.98c0,.42-.34.76-.76.76h-14.74c-.42,0-.76-.34-.76-.76v-29.98c0-.15-.05-.3-.13-.43l-1.74-2.55c-.35-.5.02-1.19.63-1.19h18.76c.61,0,.97.68.63,1.19Z"/>
      <path class="cls-2" d="m89.56,56.21l-1.74,2.55c-.09.13-.13.28-.13.43v29.98c0,.42-.34.76-.76.76h-14.74c-.42,0-.76-.34-.76-.76v-29.98c0-.15-.05-.3-.13-.43l-1.74-2.55c-.35-.5.02-1.19.63-1.19h18.76c.61,0,.97.68.63,1.19Z"/>
    </g>
    <g>
      <path class="cls-2" d="m133.63,126.28l-1.74,2.55c-.09.13-.13.28-.13.43v29.98c0,.42-.34.76-.76.76h-14.74c-.42,0-.76-.34-.76-.76v-29.98c0-.15-.05-.3-.13-.43l-1.74-2.55c-.35-.5.02-1.19.63-1.19h18.76c.61,0,.97.68.63,1.19Z"/>
      <path class="cls-2" d="m133.63,91.24l-1.74,2.55c-.09.13-.13.28-.13.43v29.98c0,.42-.34.76-.76.76h-14.74c-.42,0-.76-.34-.76-.76v-29.98c0-.15-.05-.3-.13-.43l-1.74-2.55c-.35-.5.02-1.19.63-1.19h18.76c.61,0,.97.68.63,1.19Z"/>
    </g>
    <g>
      <path class="cls-3" d="m148.01,100.68s-.23,6.85-5.74,9.14c-5.37,2.22-10.43-.3-10.43-.3,0,0,.08-5.71,5.7-9.18,5.22-3.22,10.46.34,10.46.34Z"/>
      <g>
        <path class="cls-3" d="m87.37,53.17s-4.65-2.03-4.66-6.32,3.16-6.85,3.16-6.85c0,0,3.9,1.62,4.69,6.31.74,4.36-3.19,6.86-3.19,6.86Z"/>
        <path class="cls-3" d="m88.26,53.5s2.46-6.08,8.15-6.33c5.55-.24,9.26,3.68,9.26,3.68,0,0-1.95,5.1-8.13,6.38-5.75,1.19-9.28-3.73-9.28-3.73Z"/>
      </g>
      <path class="cls-3" d="m70.94,123.73s-6.27,4.69-12.08,1.52c-5.66-3.1-6.87-9.31-6.87-9.31,0,0,5.15-4,12.1-1.58,6.45,2.26,6.86,9.37,6.86,9.37Z"/>
      <path class="cls-3" d="m115.18,124.62s-6.28,2.57-10.41-1.41c-4.02-3.89-3.64-9.42-3.64-9.42,0,0,5.19-2.24,10.44,1.37,4.87,3.35,3.61,9.46,3.61,9.46Z"/>
      <path class="cls-1" d="m123.62,82.91c5.86,0,10.61-4.67,10.61-10.44s-4.75-10.44-10.61-10.44-10.61,4.67-10.61,10.44,4.75,10.44,10.61,10.44"/>
    </g>
  </g>
</svg>