<?xml version="1.0" encoding="UTF-8"?>
<svg id="Layer_1" data-name="Layer 1" xmlns="http://www.w3.org/2000/svg" viewBox="0 0 200 200">
  <defs>
    <style>
      .cls-1 {
        fill: #ee3826;
      }

      .cls-1, .cls-2 {
        stroke-width: 0px;
      }

      .cls-2 {
        fill: #11283b;
      }
    </style>
  </defs>
  <path class="cls-2" d="m168.6,130.23c1.06-.47,1.71-1.66,1.62-2.94h0c-.09-1.29-.89-2.34-2.01-2.61l-1.26-.31c-3.76-.94-7.03-3.45-9.2-7.05-4.17-6.91-8.9-14.75-16.49-19.14-3.35-1.94-7.12-3.16-10.76-4.34-1.15-.37-2.31-.75-3.44-1.15l-.22-.08-.07-.22c-1.87-5.53-5.73-9.98-10.58-12.21-4.38-2.01-9.23-2.09-13.67-.24-2.08.87-3.99,2.12-5.67,3.74l-.7.67-.1-.96c-.75-6.94-4.01-13.33-8.95-17.54-4.46-3.8-9.98-5.61-15.54-5.1-10.52.95-19.26,10.21-20.78,22.02l-.06.43-.6-.03c-.15-.01-.29-.02-.43,0-5.34,0-10.32,2.33-14.07,6.56-3.76,4.24-5.83,9.88-5.84,15.89-.01,12.39,8.89,22.49,19.84,22.5,3.15,0,6.27-.85,9.06-2.46l.48-.28.2.52c1.77,4.62,5.18,8.3,9.34,10.08,3.89,1.67,8.15,1.63,12.02-.1,2.41-1.08,4.59-2.8,6.29-4.98l.36-.46.38.45c4.48,5.37,10.59,8.45,16.75,8.45.22,0,.44,0,.67-.01,5.23-.22,10.19-2.26,14.34-5.9.63-.56,1.24-1.13,1.84-1.68,3.13-2.9,5.83-5.4,9.92-6.45,3.95-.97,8.04-.65,11.82.92,1.53.66,3.03,1.45,4.47,2.34,2.13,1.25,4.33,2.53,6.8,3.16,4.6,1.14,9.35.7,13.74-1.26l.51-.23Zm-2.16-2.19c-3.63,1.4-7.53,1.65-11.29.72-2.16-.54-4.12-1.69-6.18-2.9-1.55-.96-3.17-1.8-4.81-2.51-4.28-1.77-8.89-2.12-13.35-1.02-4.71,1.22-7.82,4.1-11.12,7.15-.57.53-1.15,1.06-1.74,1.59-3.72,3.24-8.16,5.06-12.84,5.27-.2,0-.4.01-.6.01-5.78,0-11.58-3.15-15.63-8.5l-.16-.21.09-.25c.65-1.79,1-3.6,1-5.22,0-6.37-4.59-11.55-10.22-11.56-4.65,0-8.43,4.29-8.44,9.55,0,4.37,3.15,7.93,7.01,7.93.72,0,1.31-.66,1.31-1.48s-.59-1.48-1.31-1.48c-2.42,0-4.38-2.23-4.39-4.97,0-3.62,2.61-6.57,5.81-6.58,4.18,0,7.59,3.86,7.59,8.59,0,1.81-.6,3.98-1.66,5.95l-.12.19c-.05.08-.1.16-.16.24-2.53,3.35-5.98,5.32-9.77,5.61-3.69.29-7.27-1.04-10.08-3.77-2.11-2.04-3.63-4.71-4.39-7.74-.1-.4-.36-.74-.69-.93-.29-.16-.63-.19-.94-.09-.13.04-.25.1-.36.19-3.72,2.78-8.2,3.81-12.59,2.92-4.71-.96-8.75-3.98-11.38-8.49-5.25-9.02-3.04-21.19,4.93-27.13,2.83-2.11,6.13-3.23,9.52-3.23.69,0,1.39.06,2.09.16.36.04.72-.08.99-.33.28-.26.45-.64.48-1.04.4-6.56,3.28-12.62,7.89-16.63,3.94-3.42,8.82-5.09,13.76-4.69,10.6.83,18.89,10.9,18.89,22.92,0,.51-.03,1.02-.07,1.56v.12c-.06.83.49,1.54,1.21,1.6.47.04.9-.2,1.16-.61,2.64-4.11,6.55-6.76,11-7.46,4.23-.66,8.44.54,11.88,3.37,2.8,2.3,4.84,5.48,5.92,9.19.02.08.06.16.1.23l.06.12-.02.14c-.03.24-.01.45.05.64,1.28,4.45.52,9.3-2.02,12.98-1.62,2.35-3.96,3.81-6.58,4.13-2.51.31-4.99-.49-6.98-2.25-3.24-2.87-3.82-8.19-1.29-11.86.96-1.39,2.34-2.26,3.89-2.44,1.48-.19,2.95.29,4.13,1.33.27.23.6.34.93.29.36-.04.67-.24.89-.55.46-.65.37-1.57-.21-2.09-1.72-1.51-3.87-2.21-6.02-1.93-2.26.28-4.28,1.54-5.68,3.57-3.41,4.96-2.63,12.15,1.74,16.02,2.14,1.9,4.81,2.95,7.53,2.95.52,0,1.03-.03,1.53-.1,3.22-.44,6.2-2.35,8.18-5.24,2.62-3.79,3.69-8.7,2.94-13.46l-.12-.77,2.17.71c3.54,1.15,7.18,2.33,10.33,4.15,7.03,4.07,11.58,11.6,15.59,18.25,2.5,4.16,6.26,7.08,10.58,8.24l1.41.38-1.37.53Z"/>
  <path class="cls-1" d="m49.49,69.75c-8.07,0-14.61,6.54-14.61,14.61s6.54,14.61,14.61,14.61,14.61-6.54,14.61-14.61-6.54-14.61-14.61-14.61"/>
</svg>