<?xml version="1.0" encoding="UTF-8"?>
<svg id="Layer_1" data-name="Layer 1" xmlns="http://www.w3.org/2000/svg" viewBox="0 0 200 200">
  <defs>
    <style>
      .cls-1 {
        fill: #ee3826;
        stroke-width: 0px;
      }

      .cls-2 {
        fill: none;
        stroke: #11283b;
        stroke-linecap: round;
        stroke-linejoin: round;
        stroke-width: 2px;
      }
    </style>
  </defs>
  <g id="Torii">
    <g>
      <g>
        <rect class="cls-2" x="68.37" y="90.94" width="8.93" height="25.54"/>
        <rect class="cls-2" x="68.37" y="73.45" width="8.93" height="11.2"/>
        <polygon class="cls-2" points="144.6 62.41 140.14 73.45 59.86 73.45 55.4 62.41 100 62.41 144.6 62.41"/>
        <rect class="cls-2" x="95.87" y="73.45" width="8.25" height="11.2"/>
        <rect class="cls-2" x="60.53" y="84.65" width="78.93" height="6.29"/>
        <rect class="cls-2" x="64.94" y="142.05" width="15.81" height="7.9"/>
        <rect class="cls-2" x="66.52" y="116.48" width="12.64" height="25.57"/>
      </g>
      <g>
        <rect class="cls-2" x="122.69" y="90.94" width="8.93" height="25.54" transform="translate(254.31 207.42) rotate(-180)"/>
        <rect class="cls-2" x="122.69" y="73.45" width="8.93" height="11.2" transform="translate(254.31 158.1) rotate(-180)"/>
        <path class="cls-2" d="m157.46,50.04l-4.74,11.7-52.72.66-52.72-.66-4.74-11.7s33.95,4.44,57.46,4.44,57.46-4.44,57.46-4.44Z"/>
        <rect class="cls-2" x="119.25" y="142.05" width="15.81" height="7.9" transform="translate(254.31 292.01) rotate(-180)"/>
        <rect class="cls-2" x="120.84" y="116.48" width="12.64" height="25.57" transform="translate(254.31 258.53) rotate(-180)"/>
      </g>
    </g>
    <path class="cls-1" d="m100,126.18c5.36,0,9.7-4.34,9.7-9.7s-4.34-9.7-9.7-9.7-9.7,4.34-9.7,9.7,4.34,9.7,9.7,9.7"/>
  </g>
</svg>