<svg width="120" height="91" viewBox="0 0 120 91" fill="none" xmlns="http://www.w3.org/2000/svg">
<g clip-path="url(#clip0_265_3534)">
<path d="M48.0837 17.9437C47.8371 15.9048 47.4066 13.8827 46.7211 11.9485C46.2028 10.4832 45.5299 9.07227 44.6772 7.77442C43.1558 6.66916 41.6385 5.55552 39.9708 4.68052C37.5633 3.41198 34.8716 2.77562 32.1505 2.80492C29.2791 2.83423 26.4661 3.62968 23.8789 4.83961C21.2582 6.06629 18.8381 7.69069 16.5685 9.48255C14.1067 11.4251 11.8998 13.6399 9.72213 15.8881C8.58942 17.0561 7.46507 18.2367 6.31983 19.4006C5.82662 19.903 5.33341 20.3887 4.79005 20.8366C4.29684 21.2427 3.78691 21.6363 3.29371 22.0424C2.32819 22.8294 1.33759 23.6751 0.681375 24.7553C-0.0500771 25.961 -0.146211 27.351 0.175628 28.7032C0.221605 28.8916 0.271762 29.0759 0.330278 29.2601C0.647937 29.9927 1.07009 30.6793 1.52986 31.3534C3.04292 33.5765 4.76915 35.6614 6.74198 37.4951C8.71063 39.3288 10.9175 40.9072 13.2958 42.1632C14.4954 42.7954 15.7409 43.3312 16.9907 43.8504C18.2948 44.3904 19.6072 44.9012 20.9405 45.3617C23.6866 46.3121 26.5246 47.0782 29.4212 47.4048C32.1129 47.7062 34.9677 47.6476 37.5466 46.7182C39.7618 45.9186 41.6176 44.4156 43.0262 42.5442C44.4515 40.6518 45.4254 38.4497 46.1652 36.214C46.8214 34.2379 47.3397 32.2032 47.6991 30.1518C48.0419 28.1967 48.2509 26.2164 48.3261 24.2361C48.4055 22.1387 48.3428 20.037 48.0879 17.9521L48.0837 17.9437Z" fill="#D1604D"/>
<path d="M5.42533 23.3946C7.36055 21.7158 9.08677 19.8151 10.8757 17.9855C11.7116 17.1273 12.5601 16.2816 13.4671 15.5029C14.395 14.7032 15.3898 14.025 16.4598 13.4263C19.1223 11.9317 22.2028 10.8055 25.2999 11.0902C26.8715 11.2367 28.3344 11.7726 29.6719 12.5974C30.9175 13.3635 31.9415 14.406 32.8569 15.5363C34.4452 17.4957 35.7994 19.6141 37.2038 21.7032C39.9457 25.7852 42.8255 29.9173 46.6082 33.1159C46.7294 33.2206 46.859 33.321 46.9844 33.4215C47.2644 32.3372 47.5068 31.2445 47.6991 30.1476C48.0418 28.1924 48.2508 26.2122 48.3261 24.2319C48.4055 22.1344 48.3428 20.0328 48.0878 17.9478C47.8412 15.909 47.4107 13.8868 46.7252 11.9526C46.2069 10.4873 45.534 9.07642 44.6813 7.77857C43.1599 6.67331 41.6427 5.55967 39.975 4.68467C37.5674 3.41613 34.8757 2.77977 32.1547 2.80907C29.2832 2.83838 26.4703 3.63383 23.883 4.84376C21.2623 6.07044 18.8423 7.69484 16.5727 9.4867C14.1108 11.4293 11.9039 13.644 9.72627 15.8922C8.59356 17.0603 7.46922 18.2409 6.32397 19.4048C5.83076 19.9072 5.33756 20.3928 4.79419 20.8408C4.30098 21.2469 3.79106 21.6404 3.29785 22.0465C2.33233 22.8336 1.34174 23.6793 0.685519 24.7594C0.330242 25.3456 0.125435 25.9735 0.0460205 26.6225C2.07319 26.0615 3.85793 24.7636 5.42951 23.4072L5.42533 23.3946Z" fill="#00B7EC"/>
<g style="mix-blend-mode:multiply">
<path d="M48.0837 17.9437C47.8371 15.9048 47.4066 13.8827 46.7211 11.9485C46.2028 10.4832 45.5299 9.07229 44.6772 7.77444C43.8706 7.18832 43.0639 6.60219 42.2405 6.04956C41.0743 6.55195 39.8956 7.02504 38.7462 7.56511C37.0576 8.35638 35.4902 9.31511 34.1192 10.592C31.4191 13.104 29.3293 16.223 27.6031 19.4634C25.8016 22.842 24.347 26.3965 23.44 30.1183C22.5707 33.6895 22.2112 37.3653 22.3115 41.037C22.3575 42.6781 22.4954 44.3109 22.7086 45.9353C24.8988 46.6136 27.1433 47.1453 29.4212 47.4006C32.113 47.7021 34.9677 47.6435 37.5466 46.714C39.7619 45.9144 41.6177 44.4114 43.0263 42.54C44.4515 40.6476 45.4254 38.4455 46.1652 36.2098C46.8214 34.2338 47.3397 32.1991 47.6992 30.1476C48.0419 28.1925 48.2509 26.2122 48.3261 24.232C48.4056 22.1345 48.3429 20.0328 48.0879 17.9479L48.0837 17.9437Z" fill="#A9C4DC"/>
</g>
<path d="M71.9123 17.9437C72.1589 15.9048 72.5894 13.8827 73.2749 11.9485C73.7931 10.4832 74.4661 9.07227 75.3187 7.77442C76.8402 6.66916 78.3574 5.55552 80.0251 4.68052C82.4326 3.41198 85.1244 2.77562 87.8454 2.80492C90.7169 2.83423 93.5298 3.62968 96.1171 4.83961C98.7378 6.06629 101.158 7.69069 103.427 9.48255C105.889 11.4251 108.096 13.6399 110.274 15.8881C111.407 17.0561 112.531 18.2367 113.676 19.4006C114.169 19.903 114.663 20.3887 115.206 20.8366C115.699 21.2427 116.209 21.6363 116.702 22.0424C117.668 22.8294 118.658 23.6751 119.315 24.7553C120.046 25.961 120.142 27.351 119.82 28.7032C119.774 28.8916 119.724 29.0759 119.666 29.2601C119.348 29.9927 118.926 30.6793 118.466 31.3534C116.953 33.5765 115.227 35.6614 113.254 37.4951C111.285 39.3288 109.078 40.9072 106.7 42.1632C105.501 42.7954 104.255 43.3312 103.005 43.8504C101.701 44.3904 100.389 44.9012 99.0554 45.3617C96.3093 46.3121 93.4713 47.0782 90.5747 47.4048C87.883 47.7062 85.0282 47.6476 82.4494 46.7182C80.2341 45.9186 78.3783 44.4156 76.9697 42.5442C75.5444 40.6518 74.5706 38.4497 73.8308 36.214C73.1745 34.2379 72.6563 32.2032 72.2968 30.1518C71.9541 28.1967 71.7451 26.2164 71.6698 24.2361C71.5904 22.1387 71.6531 20.037 71.9081 17.9521L71.9123 17.9437Z" fill="#D1604D"/>
<path d="M114.575 23.3946C112.64 21.7158 110.913 19.8151 109.124 17.9855C108.288 17.1273 107.44 16.2816 106.533 15.5029C105.605 14.7032 104.61 14.025 103.54 13.4263C100.878 11.9317 97.7973 10.8055 94.7001 11.0902C93.1285 11.2367 91.6656 11.7726 90.3281 12.5974C89.0826 13.3635 88.0585 14.406 87.1432 15.5363C85.5549 17.4957 84.2006 19.6141 82.7962 21.7032C80.0543 25.7852 77.1745 29.9173 73.3919 33.1159C73.2706 33.2206 73.1411 33.321 73.0157 33.4215C72.7356 32.3372 72.4932 31.2445 72.3009 30.1476C71.9582 28.1924 71.7492 26.2122 71.674 24.2319C71.5946 22.1344 71.6573 20.0328 71.9122 17.9478C72.1588 15.909 72.5893 13.8868 73.2748 11.9526C73.7931 10.4873 74.466 9.07642 75.3187 7.77857C76.8401 6.67331 78.3574 5.55967 80.0251 4.68467C82.4326 3.41613 85.1244 2.77977 87.8454 2.80907C90.7168 2.83838 93.5298 3.63383 96.117 4.84376C98.7377 6.07044 101.158 7.69484 103.427 9.4867C105.889 11.4293 108.096 13.644 110.274 15.8922C111.406 17.0603 112.531 18.2409 113.676 19.4048C114.169 19.9072 114.662 20.3928 115.206 20.8408C115.699 21.2469 116.209 21.6404 116.702 22.0465C117.668 22.8336 118.658 23.6793 119.315 24.7594C119.67 25.3456 119.875 25.9735 119.954 26.6225C117.927 26.0615 116.142 24.7636 114.571 23.4072L114.575 23.3946Z" fill="#00B7EC"/>
<g style="mix-blend-mode:multiply">
<path d="M71.9123 17.9437C72.1589 15.9048 72.5894 13.8827 73.2749 11.9485C73.7931 10.4832 74.4661 9.07229 75.3187 7.77444C76.1254 7.18832 76.9321 6.60219 77.7555 6.04956C78.9217 6.55195 80.1003 7.02504 81.2498 7.56511C82.9384 8.35638 84.5058 9.31511 85.8767 10.592C88.5768 13.104 90.6667 16.223 92.3929 19.4634C94.1944 22.842 95.6489 26.3965 96.5559 30.1183C97.4253 33.6895 97.7848 37.3653 97.6845 41.037C97.6385 42.6781 97.5006 44.3109 97.2874 45.9353C95.0972 46.6136 92.8527 47.1453 90.5747 47.4006C87.883 47.7021 85.0282 47.6435 82.4494 46.714C80.2341 45.9144 78.3783 44.4114 76.9697 42.54C75.5444 40.6476 74.5706 38.4455 73.8308 36.2098C73.1745 34.2338 72.6563 32.1991 72.2968 30.1476C71.9541 28.1925 71.7451 26.2122 71.6698 24.232C71.5904 22.1345 71.6531 20.0328 71.9081 17.9479L71.9123 17.9437Z" fill="#A9C4DC"/>
</g>
<path d="M90.7671 20.4977C86.2613 9.77995 77.0534 7.41871 77.0534 7.41871C73.1788 0.0879646 61.5424 -0.0167003 60.0335 4.61007e-05C58.5246 -0.0167003 46.8883 0.0837779 43.0137 7.41452C43.0137 7.41452 33.8057 9.77995 29.3 20.4935C24.7942 31.2112 17.743 49.4731 31.8914 56.5192C42.4619 61.7817 54.579 60.7225 60.0335 59.8475C65.4881 60.7225 77.6051 61.7817 88.1756 56.5192C102.324 49.4731 95.2728 31.2112 90.7671 20.4935V20.4977Z" fill="#87B6D6"/>
<path d="M89.4963 19.6476C85.1745 9.37363 76.3511 7.10868 76.3511 7.10868C72.6353 0.0835617 61.4796 -0.0169161 60.0334 -0.000169662C58.5872 -0.0169161 47.4315 0.079375 43.7158 7.10868C43.7158 7.10868 34.8882 9.37363 30.5705 19.6476C26.2487 29.9215 19.4901 47.4299 33.0533 54.1828C43.1891 59.2277 54.8046 58.2104 60.0334 57.373C65.2623 58.2104 76.8777 59.2277 87.0136 54.1828C100.577 47.4299 93.8182 29.9215 89.4963 19.6476Z" fill="#00B7EC"/>
<path d="M47.7116 54.1159C47.7116 54.1159 48.0919 50.6201 43.6572 50.6284C39.2226 50.6326 37.8641 60.0692 40.4138 59.9939C42.9634 59.9227 47.7116 54.1159 47.7116 54.1159Z" fill="white"/>
<path d="M73.7513 54.1159C73.7513 54.1159 73.371 50.6201 77.8057 50.6284C82.2403 50.6326 83.5988 60.0692 81.0491 59.9939C78.4995 59.9227 73.7513 54.1159 73.7513 54.1159Z" fill="white"/>
<g style="mix-blend-mode:multiply" opacity="0.34">
<path d="M77.1788 42.5609C76.9823 42.5609 76.7817 42.5148 76.5936 42.4185C58.8088 33.1661 41.8684 42.3097 41.7012 42.4018C41.0868 42.7409 40.3177 42.519 39.975 41.9036C39.6364 41.2881 39.858 40.5178 40.4682 40.1787C40.6521 40.074 45.0952 37.6374 51.9165 36.4024C58.2195 35.2594 67.8162 34.9873 77.7639 40.1619C78.3867 40.4843 78.6291 41.2546 78.3073 41.8742C78.0816 42.3097 77.6385 42.5609 77.1788 42.5609Z" fill="#6E9FC9"/>
</g>
<path d="M46.93 38.1818C50.5842 38.1818 53.5465 35.2146 53.5465 31.5544C53.5465 27.8942 50.5842 24.927 46.93 24.927C43.2758 24.927 40.3135 27.8942 40.3135 31.5544C40.3135 35.2146 43.2758 38.1818 46.93 38.1818Z" fill="white"/>
<path d="M46.9299 36.5028C49.6585 36.5028 51.8704 34.2873 51.8704 31.5543C51.8704 28.8213 49.6585 26.6057 46.9299 26.6057C44.2014 26.6057 41.9895 28.8213 41.9895 31.5543C41.9895 34.2873 44.2014 36.5028 46.9299 36.5028Z" fill="#605B5D"/>
<path d="M51.0261 31.5418C51.0261 33.8068 49.1912 35.6447 46.93 35.6447C44.6688 35.6447 42.8339 33.8068 42.8339 31.5418C42.8339 29.2769 44.6688 27.439 46.93 27.439C49.1912 27.439 51.0261 29.2769 51.0261 31.5418Z" fill="#302823"/>
<path d="M45.4044 30.2943C45.82 30.2943 46.1568 29.9569 46.1568 29.5407C46.1568 29.1245 45.82 28.7871 45.4044 28.7871C44.9889 28.7871 44.6521 29.1245 44.6521 29.5407C44.6521 29.9569 44.9889 30.2943 45.4044 30.2943Z" fill="white"/>
<path d="M44.5057 31.3786C44.5057 31.6424 44.2925 31.8559 44.0292 31.8559C43.7659 31.8559 43.5527 31.6424 43.5527 31.3786C43.5527 31.1149 43.7659 30.9014 44.0292 30.9014C44.2925 30.9014 44.5057 31.1149 44.5057 31.3786Z" fill="white"/>
<path d="M73.1369 38.1818C76.7911 38.1818 79.7534 35.2146 79.7534 31.5544C79.7534 27.8942 76.7911 24.927 73.1369 24.927C69.4827 24.927 66.5204 27.8942 66.5204 31.5544C66.5204 35.2146 69.4827 38.1818 73.1369 38.1818Z" fill="white"/>
<path d="M73.1368 36.5028C75.8654 36.5028 78.0773 34.2873 78.0773 31.5543C78.0773 28.8213 75.8654 26.6057 73.1368 26.6057C70.4083 26.6057 68.1964 28.8213 68.1964 31.5543C68.1964 34.2873 70.4083 36.5028 73.1368 36.5028Z" fill="#605B5D"/>
<path d="M77.233 31.5418C77.233 33.8068 75.3981 35.6447 73.1369 35.6447C70.8757 35.6447 69.0408 33.8068 69.0408 31.5418C69.0408 29.2769 70.8757 27.439 73.1369 27.439C75.3981 27.439 77.233 29.2769 77.233 31.5418Z" fill="#302823"/>
<path d="M72.3637 29.5407C72.3637 29.9594 72.0252 30.2943 71.6114 30.2943C71.1976 30.2943 70.859 29.9552 70.859 29.5407C70.859 29.1262 71.1976 28.7871 71.6114 28.7871C72.0252 28.7871 72.3637 29.1262 72.3637 29.5407Z" fill="white"/>
<path d="M70.7126 31.3786C70.7126 31.6424 70.4995 31.8559 70.2361 31.8559C69.9728 31.8559 69.7596 31.6424 69.7596 31.3786C69.7596 31.1149 69.9728 30.9014 70.2361 30.9014C70.4995 30.9014 70.7126 31.1149 70.7126 31.3786Z" fill="white"/>
<path d="M42.7879 24.1818C42.6834 24.1818 42.5789 24.1525 42.487 24.0897C42.2362 23.9222 42.1693 23.5873 42.3365 23.3361C42.3574 23.3026 44.6145 19.991 48.5643 22.0425C48.8318 22.1806 48.9363 22.5114 48.7984 22.7751C48.6604 23.0431 48.3344 23.1477 48.0669 23.0096C44.9948 21.4145 43.3146 23.8343 43.2477 23.939C43.1432 24.0939 42.9718 24.1776 42.7963 24.1776L42.7879 24.1818Z" fill="#D1604D"/>
<path d="M42.7879 24.1818C42.6834 24.1818 42.5789 24.1525 42.487 24.0897C42.2362 23.9222 42.1693 23.5873 42.3365 23.3361C42.3574 23.3026 44.6145 19.991 48.5643 22.0425C48.8318 22.1806 48.9363 22.5114 48.7984 22.7751C48.6604 23.0431 48.3344 23.1477 48.0669 23.0096C44.9948 21.4145 43.3146 23.8343 43.2477 23.939C43.1432 24.0939 42.9718 24.1776 42.7963 24.1776L42.7879 24.1818Z" fill="#6D6966"/>
<path d="M77.279 24.1818C77.1034 24.1818 76.9321 24.0981 76.8276 23.939C76.7565 23.8343 75.0763 21.4145 72.0083 23.0096C71.7408 23.1477 71.4148 23.0431 71.2769 22.7751C71.139 22.5072 71.2435 22.1806 71.511 22.0425C75.4608 19.991 77.7179 23.3026 77.7388 23.3361C77.9059 23.5873 77.8349 23.9264 77.5841 24.0897C77.4921 24.1525 77.3877 24.1818 77.2832 24.1818H77.279Z" fill="#6D6966"/>
<path d="M75.0346 47.6854C74.2153 44.9432 72.7733 42.4186 70.4661 40.3505C65.9018 36.2643 59.1725 35.2302 53.4504 37.2272C48.393 38.994 44.464 43.2811 43.5946 48.6357C42.9217 52.7972 43.858 57.0676 45.3418 61.0113C47.2603 66.1148 52.8277 72.0765 49.4128 77.7033C46.4369 82.6142 37.6887 86.6333 32.3303 83.4683C29.4672 81.7769 28.5184 78.5197 28.8109 75.3504C28.9071 74.2954 29.3919 73.793 29.9645 72.9641C30.2112 72.604 30.3783 72.1393 30.2112 71.7374C30.1234 71.5239 29.9478 71.3564 29.7639 71.2141C28.5184 70.2763 26.7671 70.5694 25.4086 71.0759C24.4013 71.4485 23.3606 72.0598 22.7294 72.9599C21.8015 72.625 20.7608 72.4743 19.8287 72.8636C18.951 73.232 18.0816 74.1154 18.2279 75.1369C18.4243 76.485 20.092 77.5275 20.6479 78.8128C21.5466 80.8977 21.8517 83.1082 23.1349 85.0299C26.8339 90.5604 34.1359 91.4103 40.2258 90.8534C48.4055 90.1082 56.5309 87.2906 63.0053 82.1537C70.2613 76.3971 74.3282 68.0197 75.5821 58.8971C76.1004 55.1375 76.0878 51.2314 75.0304 47.6854H75.0346Z" fill="#00B7EC"/>
<path d="M75.0346 47.6854C74.2153 44.9432 72.7733 42.4186 70.4661 40.3505C65.9018 36.2643 59.1725 35.2302 53.4504 37.2272C48.393 38.994 44.464 43.2811 43.5946 48.6357C42.9217 52.7972 43.858 57.0676 45.3418 61.0113C47.2603 66.1148 52.8277 72.0765 49.4128 77.7033C46.4369 82.6142 37.6887 86.6333 32.3303 83.4683C29.4672 81.7769 28.5184 78.5197 28.8109 75.3504C28.9071 74.2954 29.3919 73.793 29.9645 72.9641C30.2112 72.604 30.3783 72.1393 30.2112 71.7374C30.1234 71.5239 29.9478 71.3564 29.7639 71.2141C28.5184 70.2763 26.7671 70.5694 25.4086 71.0759C24.4013 71.4485 23.3606 72.0598 22.7294 72.9599C21.8015 72.625 20.7608 72.4743 19.8287 72.8636C18.951 73.232 18.0816 74.1154 18.2279 75.1369C18.4243 76.485 20.092 77.5275 20.6479 78.8128C21.5466 80.8977 21.8517 83.1082 23.1349 85.0299C26.8339 90.5604 34.1359 91.4103 40.2258 90.8534C48.4055 90.1082 56.5309 87.2906 63.0053 82.1537C70.2613 76.3971 74.3282 68.0197 75.5821 58.8971C76.1004 55.1375 76.0878 51.2314 75.0304 47.6854H75.0346Z" fill="#00B7EC"/>
<g style="mix-blend-mode:multiply" opacity="0.34">
<path d="M47.7242 51.5076C48.4014 50.9885 49.1286 50.5489 49.8768 50.1386C51.5445 49.2218 53.3251 48.4765 55.1892 48.0621C56.6396 47.7397 58.1359 47.5304 59.6156 47.3713C60.7608 47.2499 61.9228 47.1745 63.0764 47.208C61.463 46.8605 59.7995 46.76 58.1527 46.8438C56.5393 46.9275 54.9217 47.1913 53.3878 47.7104C51.6866 48.2881 50.1527 49.2552 48.8152 50.4484C48.4348 50.7875 48.0753 51.1434 47.7242 51.5076Z" fill="#0584A9"/>
</g>
<g style="mix-blend-mode:multiply" opacity="0.34">
<path d="M46.6667 80.7762C46.6876 81.0442 46.7629 81.3121 46.8799 81.5675C47.3271 82.5597 48.2007 83.351 49.1161 83.9329C49.4755 84.0418 49.8308 84.1464 50.1861 84.2469C49.6636 83.3719 49.0158 82.5681 48.2801 81.8689C47.8204 81.4335 47.3062 81.0274 46.7503 80.7092C46.7253 80.7302 46.696 80.7469 46.6709 80.7678L46.6667 80.7762Z" fill="#0584A9"/>
</g>
<g style="mix-blend-mode:multiply" opacity="0.34">
<path d="M50.6333 79.4868C52.4682 80.2069 54.3783 80.9814 56.347 81.2326C55.8956 80.6716 55.3606 80.1776 54.742 79.8092C54.0649 79.4072 53.3083 79.1686 52.5309 79.0388C51.6323 78.8881 50.6082 78.8755 49.6761 79.1184C49.9938 79.2398 50.3115 79.3654 50.6333 79.4868Z" fill="#0584A9"/>
</g>
<g style="mix-blend-mode:multiply" opacity="0.34">
<path d="M53.7973 73.5711C55.7284 72.9222 57.8182 72.738 59.8412 72.9347C60.8694 73.0352 61.9018 73.2404 62.8882 73.5627C62.3825 72.8803 61.5967 72.4533 60.8067 72.1811C60.2634 71.9927 59.7033 71.863 59.1307 71.775C58.186 71.729 57.2247 71.8504 56.3511 72.0807C55.1641 72.3947 53.9102 72.9808 53.0032 73.8725C53.2665 73.7637 53.5298 73.6632 53.8015 73.5711H53.7973Z" fill="#0584A9"/>
</g>
<g style="mix-blend-mode:multiply" opacity="0.34">
<path d="M53.5257 66.8976C53.0743 67.1655 52.6646 67.4711 52.2509 67.7935C53.137 67.4837 54.0272 67.1781 54.9259 66.9101C56.255 66.5082 57.6093 66.1984 58.9886 66.0393C60.3052 65.8886 61.6427 65.8593 62.9677 65.8802C64.0335 65.897 65.1244 65.964 66.1986 66.1272C65.7723 65.9053 65.325 65.7128 64.8695 65.5537C62.487 64.7373 59.8705 64.6912 57.4379 65.2899C56.0628 65.629 54.7462 66.1691 53.5299 66.8976H53.5257Z" fill="#0584A9"/>
</g>
<g style="mix-blend-mode:multiply" opacity="0.34">
<path d="M48.3846 61.1369C48.811 60.8606 49.2206 60.5508 49.6302 60.2619C50.4494 59.6884 51.3397 59.232 52.2384 58.7966C53.835 58.0263 55.4985 57.3857 57.2164 56.9461C58.6501 56.5777 60.1171 56.2888 61.5842 56.067C63.0053 55.8534 64.5059 55.6985 65.9855 55.7488C65.4672 55.5688 64.9322 55.4306 64.3972 55.3217C63.9959 55.2422 63.5905 55.1794 63.1809 55.1333C62.6919 55.1208 62.207 55.1292 61.7222 55.1501C59.5069 55.2548 57.3 55.6483 55.1516 56.1926C54.905 56.2554 54.6584 56.3181 54.4076 56.3809C52.0126 57.3397 49.6887 58.872 48.3846 61.1327V61.1369Z" fill="#0584A9"/>
</g>
<g style="mix-blend-mode:multiply" opacity="0.34">
<path d="M75.0345 47.6854C74.2153 44.9432 72.7733 42.4186 70.4661 40.3505C65.9018 36.2643 59.1724 35.2302 53.4504 37.2272C48.3929 38.994 44.464 43.2811 43.5946 48.6357C43.3605 50.0717 43.3271 51.5245 43.4316 52.9689C43.7534 50.8881 44.4264 48.8618 45.4838 47.0406C46.721 44.9055 48.4932 43.0717 50.6918 41.9288C53.2874 40.5807 56.1881 39.8774 59.1181 40.1662C61.9561 40.4467 64.6353 41.6232 66.8172 43.4485C69.0199 45.2906 70.6876 47.7607 71.8621 50.369C73.0073 52.9144 73.6928 55.6483 74.0021 58.424C74.2822 60.9737 74.2404 63.5484 73.9352 66.0939C74.6918 63.7745 75.2435 61.363 75.5821 58.8971C76.1003 55.1375 76.0878 51.2314 75.0303 47.6854H75.0345Z" fill="#008AB1"/>
</g>
</g>
<defs>
<clipPath id="clip0_265_3534">
<rect width="120" height="91" fill="white"/>
</clipPath>
</defs>
</svg>
