<svg width="391" height="120" viewBox="0 0 391 120" fill="none" xmlns="http://www.w3.org/2000/svg">
<g filter="url(#filter0_d_271_3337)">
<path d="M146.455 84.7666L154.528 111.995H132.526C135.446 105.954 145.807 85.8184 146.455 84.7666Z" fill="#00B7EC"/>
<path d="M38.2737 111.995H21.7203L27.7416 81.5142C32.5041 97.7011 36.613 108.047 38.2737 111.995Z" fill="#00B7EC"/>
<path d="M27.5435 48.8054C33.1738 25.1911 66.795 18.0011 102.939 15.8166C92.7072 29.5332 94.9412 49.6793 109.486 60.5641H118.266C108.12 56.5402 100.721 46.4268 100.941 34.3984C101.38 10.6169 129.859 -1.62718 147.146 14.905C153.521 15.2502 158.996 17.2729 162.955 19.7595C171.446 25.0886 176.465 32.9475 177.874 42.5917C177.874 42.5917 177.874 42.5971 177.874 42.6025C181.989 64.8144 183.06 79.8471 192.74 86.7567C198.762 91.0556 203.497 91.6327 203.497 91.6327L200.728 99.9986C200.728 99.9986 173.915 102.415 155.096 75.4565C151.33 70.0627 145.684 76.929 140.573 86.3467C136.7 93.4882 130.507 106.25 127.737 112H101.188L115.727 80.8504C111.516 83.3531 103.213 89.6801 88.1323 88.1914L87.7144 92.5011C94.3037 93.1484 100.748 92.3932 106.475 90.4838L96.4304 111.995H75.8592L68.2468 89.9552C66.2539 89.3403 64.4271 88.5906 62.9057 87.6844L71.3003 112H42.9559C38.4238 101.989 27.4364 69.2266 26.7721 58.3688C18.0186 61.6698 7.48659 58.7409 4.50269 52.6728C8.17766 54.9437 22.0418 56.0494 27.5328 48.8108L27.5435 48.8054ZM165.467 49.5876C167.224 49.5876 168.644 48.1582 168.644 46.389C168.644 44.6198 167.224 43.1904 165.467 43.1904C163.71 43.1904 162.291 44.6252 162.291 46.389C162.291 48.1528 163.716 49.5876 165.467 49.5876Z" fill="#00B7EC"/>
</g>
<path d="M224.193 87L228.813 63.9H234.126L240.495 79.641H237.69L250.032 63.9H255.609L251.022 87H245.016L247.755 73.008L248.811 72.975L239.703 84.723H236.799L231.849 72.942L232.971 73.041L230.199 87H224.193ZM256.628 87L261.248 63.9H267.683L264.878 77.463L277.121 63.9H283.358L278.738 87H272.303L275.108 73.47L262.865 87H256.628ZM310.396 84.162L313.432 69.081H306.799L306.139 71.853C305.831 73.173 305.512 74.416 305.182 75.582C304.852 76.748 304.489 77.804 304.093 78.75C303.719 79.696 303.301 80.521 302.839 81.225C302.377 81.929 301.86 82.457 301.288 82.809L294.16 81.819C294.908 81.841 295.601 81.577 296.239 81.027C296.877 80.455 297.449 79.674 297.955 78.684C298.483 77.672 298.967 76.495 299.407 75.153C299.847 73.811 300.254 72.359 300.628 70.797L302.278 63.9H320.89L316.831 84.162H310.396ZM291.718 91.653L293.698 81.819H320.461L318.481 91.653H312.508L313.432 87H298.648L297.724 91.653H291.718ZM343.221 63.9H349.755L345.135 87H338.601L343.221 63.9ZM329.724 87H323.19L327.81 63.9H334.344L329.724 87ZM340.878 77.991H331.077L332.166 72.579H341.967L340.878 77.991ZM363.101 87.462C360.725 87.462 358.679 87.033 356.963 86.175C355.247 85.295 353.927 84.096 353.003 82.578C352.079 81.06 351.617 79.3 351.617 77.298C351.617 75.274 351.969 73.426 352.673 71.754C353.377 70.06 354.367 68.597 355.643 67.365C356.919 66.111 358.437 65.143 360.197 64.461C361.979 63.779 363.926 63.438 366.038 63.438C368.414 63.438 370.46 63.878 372.176 64.758C373.892 65.616 375.212 66.804 376.136 68.322C377.06 69.84 377.522 71.6 377.522 73.602C377.522 75.626 377.17 77.485 376.466 79.179C375.762 80.851 374.772 82.314 373.496 83.568C372.22 84.8 370.691 85.757 368.909 86.439C367.149 87.121 365.213 87.462 363.101 87.462ZM363.662 82.05C364.806 82.05 365.818 81.841 366.698 81.423C367.6 81.005 368.359 80.422 368.975 79.674C369.613 78.904 370.097 78.035 370.427 77.067C370.757 76.099 370.922 75.076 370.922 73.998C370.922 72.964 370.702 72.062 370.262 71.292C369.844 70.522 369.228 69.928 368.414 69.51C367.622 69.07 366.643 68.85 365.477 68.85C364.355 68.85 363.343 69.059 362.441 69.477C361.539 69.895 360.769 70.489 360.131 71.259C359.515 72.007 359.042 72.865 358.712 73.833C358.382 74.801 358.217 75.824 358.217 76.902C358.217 77.914 358.426 78.816 358.844 79.608C359.284 80.378 359.9 80.983 360.692 81.423C361.506 81.841 362.496 82.05 363.662 82.05ZM381.011 78.585L382.694 63.9H390.185L385.994 78.585H381.011ZM382.265 87.297C381.209 87.297 380.351 86.989 379.691 86.373C379.031 85.757 378.701 84.998 378.701 84.096C378.701 83.04 379.075 82.171 379.823 81.489C380.593 80.785 381.528 80.433 382.628 80.433C383.684 80.433 384.542 80.73 385.202 81.324C385.862 81.918 386.192 82.666 386.192 83.568C386.192 84.25 386.016 84.877 385.664 85.449C385.312 85.999 384.839 86.45 384.245 86.802C383.673 87.132 383.013 87.297 382.265 87.297Z" fill="white"/>
<path d="M223.616 107V98.6H224.752V102.312H230.048V98.6H231.184V107H230.048V103.288H224.752V107H223.616ZM238.013 107.08C237.138 107.08 236.37 106.899 235.709 106.536C235.048 106.163 234.53 105.656 234.157 105.016C233.784 104.365 233.597 103.624 233.597 102.792C233.597 101.96 233.773 101.224 234.125 100.584C234.488 99.944 234.978 99.4427 235.597 99.08C236.226 98.7067 236.93 98.52 237.709 98.52C238.498 98.52 239.197 98.7013 239.805 99.064C240.424 99.416 240.909 99.9173 241.261 100.568C241.613 101.208 241.789 101.949 241.789 102.792C241.789 102.845 241.784 102.904 241.773 102.968C241.773 103.021 241.773 103.08 241.773 103.144H234.461V102.296H241.165L240.717 102.632C240.717 102.024 240.584 101.485 240.317 101.016C240.061 100.536 239.709 100.163 239.261 99.896C238.813 99.6293 238.296 99.496 237.709 99.496C237.133 99.496 236.616 99.6293 236.157 99.896C235.698 100.163 235.341 100.536 235.085 101.016C234.829 101.496 234.701 102.045 234.701 102.664V102.84C234.701 103.48 234.84 104.045 235.117 104.536C235.405 105.016 235.8 105.395 236.301 105.672C236.813 105.939 237.394 106.072 238.045 106.072C238.557 106.072 239.032 105.981 239.469 105.8C239.917 105.619 240.301 105.341 240.621 104.968L241.261 105.704C240.888 106.152 240.418 106.493 239.853 106.728C239.298 106.963 238.685 107.08 238.013 107.08ZM252.011 107.08C251.179 107.08 250.432 106.899 249.771 106.536C249.12 106.163 248.608 105.656 248.235 105.016C247.862 104.365 247.675 103.624 247.675 102.792C247.675 101.949 247.862 101.208 248.235 100.568C248.608 99.928 249.12 99.4267 249.771 99.064C250.432 98.7013 251.179 98.52 252.011 98.52C252.726 98.52 253.371 98.6587 253.947 98.936C254.523 99.2133 254.976 99.6293 255.307 100.184L254.459 100.76C254.171 100.333 253.814 100.019 253.387 99.816C252.96 99.6133 252.496 99.512 251.995 99.512C251.398 99.512 250.859 99.6507 250.379 99.928C249.899 100.195 249.52 100.573 249.243 101.064C248.966 101.555 248.827 102.131 248.827 102.792C248.827 103.453 248.966 104.029 249.243 104.52C249.52 105.011 249.899 105.395 250.379 105.672C250.859 105.939 251.398 106.072 251.995 106.072C252.496 106.072 252.96 105.971 253.387 105.768C253.814 105.565 254.171 105.256 254.459 104.84L255.307 105.416C254.976 105.96 254.523 106.376 253.947 106.664C253.371 106.941 252.726 107.08 252.011 107.08ZM255.674 106.984L255.754 106.008C255.828 106.019 255.898 106.035 255.962 106.056C256.036 106.067 256.1 106.072 256.154 106.072C256.495 106.072 256.767 105.944 256.97 105.688C257.183 105.432 257.343 105.091 257.45 104.664C257.556 104.237 257.631 103.757 257.674 103.224C257.716 102.68 257.754 102.136 257.786 101.592L257.93 98.6H264.09V107H262.954V99.256L263.242 99.592H258.666L258.938 99.24L258.81 101.672C258.778 102.397 258.719 103.091 258.634 103.752C258.559 104.413 258.436 104.995 258.266 105.496C258.106 105.997 257.882 106.392 257.594 106.68C257.306 106.957 256.938 107.096 256.49 107.096C256.362 107.096 256.228 107.085 256.09 107.064C255.962 107.043 255.823 107.016 255.674 106.984ZM270.775 107.08C269.964 107.08 269.234 106.899 268.583 106.536C267.943 106.163 267.436 105.656 267.063 105.016C266.69 104.365 266.503 103.624 266.503 102.792C266.503 101.949 266.69 101.208 267.063 100.568C267.436 99.928 267.943 99.4267 268.583 99.064C269.223 98.7013 269.954 98.52 270.775 98.52C271.607 98.52 272.343 98.7013 272.983 99.064C273.634 99.4267 274.14 99.928 274.503 100.568C274.876 101.208 275.063 101.949 275.063 102.792C275.063 103.624 274.876 104.365 274.503 105.016C274.14 105.656 273.634 106.163 272.983 106.536C272.332 106.899 271.596 107.08 270.775 107.08ZM270.775 106.072C271.383 106.072 271.922 105.939 272.391 105.672C272.86 105.395 273.228 105.011 273.495 104.52C273.772 104.019 273.911 103.443 273.911 102.792C273.911 102.131 273.772 101.555 273.495 101.064C273.228 100.573 272.86 100.195 272.391 99.928C271.922 99.6507 271.388 99.512 270.791 99.512C270.194 99.512 269.66 99.6507 269.191 99.928C268.722 100.195 268.348 100.573 268.071 101.064C267.794 101.555 267.655 102.131 267.655 102.792C267.655 103.443 267.794 104.019 268.071 104.52C268.348 105.011 268.722 105.395 269.191 105.672C269.66 105.939 270.188 106.072 270.775 106.072ZM277.491 107V98.6H278.627V102.312H283.923V98.6H285.059V107H283.923V103.288H278.627V107H277.491ZM288.288 107V98.6H289.424V105.272L295.04 98.6H296.048V107H294.912V100.312L289.312 107H288.288ZM298.584 109.336L299.288 106.376L299.416 107.064C299.17 107.064 298.962 106.984 298.792 106.824C298.632 106.664 298.552 106.456 298.552 106.2C298.552 105.944 298.632 105.736 298.792 105.576C298.962 105.416 299.165 105.336 299.4 105.336C299.645 105.336 299.842 105.421 299.992 105.592C300.152 105.763 300.232 105.965 300.232 106.2C300.232 106.285 300.226 106.371 300.216 106.456C300.205 106.541 300.184 106.637 300.152 106.744C300.12 106.851 300.077 106.979 300.024 107.128L299.352 109.336H298.584ZM312.098 107V105.144L312.05 104.84V101.736C312.05 101.021 311.847 100.472 311.442 100.088C311.047 99.704 310.455 99.512 309.666 99.512C309.122 99.512 308.604 99.6027 308.114 99.784C307.623 99.9653 307.207 100.205 306.866 100.504L306.354 99.656C306.78 99.2933 307.292 99.016 307.89 98.824C308.487 98.6213 309.116 98.52 309.778 98.52C310.866 98.52 311.703 98.792 312.29 99.336C312.887 99.8693 313.186 100.685 313.186 101.784V107H312.098ZM309.202 107.08C308.572 107.08 308.023 106.979 307.554 106.776C307.095 106.563 306.743 106.275 306.498 105.912C306.252 105.539 306.13 105.112 306.13 104.632C306.13 104.195 306.231 103.8 306.434 103.448C306.647 103.085 306.988 102.797 307.458 102.584C307.938 102.36 308.578 102.248 309.378 102.248H312.274V103.096H309.41C308.599 103.096 308.034 103.24 307.714 103.528C307.404 103.816 307.25 104.173 307.25 104.6C307.25 105.08 307.436 105.464 307.81 105.752C308.183 106.04 308.706 106.184 309.378 106.184C310.018 106.184 310.567 106.04 311.026 105.752C311.495 105.453 311.836 105.027 312.05 104.472L312.306 105.256C312.092 105.811 311.719 106.253 311.186 106.584C310.663 106.915 310.002 107.08 309.202 107.08ZM323.917 107.08C323.085 107.08 322.339 106.899 321.677 106.536C321.027 106.163 320.515 105.656 320.141 105.016C319.768 104.365 319.581 103.624 319.581 102.792C319.581 101.949 319.768 101.208 320.141 100.568C320.515 99.928 321.027 99.4267 321.677 99.064C322.339 98.7013 323.085 98.52 323.917 98.52C324.632 98.52 325.277 98.6587 325.853 98.936C326.429 99.2133 326.883 99.6293 327.213 100.184L326.365 100.76C326.077 100.333 325.72 100.019 325.293 99.816C324.867 99.6133 324.403 99.512 323.901 99.512C323.304 99.512 322.765 99.6507 322.285 99.928C321.805 100.195 321.427 100.573 321.149 101.064C320.872 101.555 320.733 102.131 320.733 102.792C320.733 103.453 320.872 104.029 321.149 104.52C321.427 105.011 321.805 105.395 322.285 105.672C322.765 105.939 323.304 106.072 323.901 106.072C324.403 106.072 324.867 105.971 325.293 105.768C325.72 105.565 326.077 105.256 326.365 104.84L327.213 105.416C326.883 105.96 326.429 106.376 325.853 106.664C325.277 106.941 324.632 107.08 323.917 107.08ZM327.58 106.984L327.66 106.008C327.735 106.019 327.804 106.035 327.868 106.056C327.943 106.067 328.007 106.072 328.06 106.072C328.401 106.072 328.673 105.944 328.876 105.688C329.089 105.432 329.249 105.091 329.356 104.664C329.463 104.237 329.537 103.757 329.58 103.224C329.623 102.68 329.66 102.136 329.692 101.592L329.836 98.6H335.996V107H334.86V99.256L335.148 99.592H330.572L330.844 99.24L330.716 101.672C330.684 102.397 330.625 103.091 330.54 103.752C330.465 104.413 330.343 104.995 330.172 105.496C330.012 105.997 329.788 106.392 329.5 106.68C329.212 106.957 328.844 107.096 328.396 107.096C328.268 107.096 328.135 107.085 327.996 107.064C327.868 107.043 327.729 107.016 327.58 106.984ZM342.681 107.08C341.871 107.08 341.14 106.899 340.489 106.536C339.849 106.163 339.343 105.656 338.969 105.016C338.596 104.365 338.409 103.624 338.409 102.792C338.409 101.949 338.596 101.208 338.969 100.568C339.343 99.928 339.849 99.4267 340.489 99.064C341.129 98.7013 341.86 98.52 342.681 98.52C343.513 98.52 344.249 98.7013 344.889 99.064C345.54 99.4267 346.047 99.928 346.409 100.568C346.783 101.208 346.969 101.949 346.969 102.792C346.969 103.624 346.783 104.365 346.409 105.016C346.047 105.656 345.54 106.163 344.889 106.536C344.239 106.899 343.503 107.08 342.681 107.08ZM342.681 106.072C343.289 106.072 343.828 105.939 344.297 105.672C344.767 105.395 345.135 105.011 345.401 104.52C345.679 104.019 345.817 103.443 345.817 102.792C345.817 102.131 345.679 101.555 345.401 101.064C345.135 100.573 344.767 100.195 344.297 99.928C343.828 99.6507 343.295 99.512 342.697 99.512C342.1 99.512 341.567 99.6507 341.097 99.928C340.628 100.195 340.255 100.573 339.977 101.064C339.7 101.555 339.561 102.131 339.561 102.792C339.561 103.443 339.7 104.019 339.977 104.52C340.255 105.011 340.628 105.395 341.097 105.672C341.567 105.939 342.095 106.072 342.681 106.072ZM349.397 107V98.6H350.533V102.312H355.829V98.6H356.965V107H355.829V103.288H350.533V107H349.397ZM365.618 107V103.976L365.826 104.216H362.978C361.901 104.216 361.058 103.981 360.45 103.512C359.842 103.043 359.538 102.36 359.538 101.464C359.538 100.504 359.863 99.7893 360.514 99.32C361.165 98.84 362.034 98.6 363.122 98.6H366.658V107H365.618ZM359.474 107L361.778 103.768H362.962L360.706 107H359.474ZM365.618 103.64V99.256L365.826 99.592H363.154C362.375 99.592 361.767 99.7413 361.33 100.04C360.903 100.339 360.69 100.824 360.69 101.496C360.69 102.744 361.485 103.368 363.074 103.368H365.826L365.618 103.64ZM374.233 107.08C373.508 107.08 372.852 106.915 372.265 106.584C371.679 106.243 371.209 105.757 370.857 105.128C370.516 104.488 370.345 103.709 370.345 102.792C370.345 101.875 370.516 101.101 370.857 100.472C371.199 99.832 371.663 99.3467 372.249 99.016C372.836 98.6853 373.497 98.52 374.233 98.52C375.033 98.52 375.748 98.7013 376.377 99.064C377.017 99.416 377.519 99.9173 377.881 100.568C378.244 101.208 378.425 101.949 378.425 102.792C378.425 103.645 378.244 104.392 377.881 105.032C377.519 105.672 377.017 106.173 376.377 106.536C375.748 106.899 375.033 107.08 374.233 107.08ZM369.897 110.104V98.6H370.985V101.128L370.873 102.808L371.033 104.504V110.104H369.897ZM374.153 106.072C374.751 106.072 375.284 105.939 375.753 105.672C376.223 105.395 376.596 105.011 376.873 104.52C377.151 104.019 377.289 103.443 377.289 102.792C377.289 102.141 377.151 101.571 376.873 101.08C376.596 100.589 376.223 100.205 375.753 99.928C375.284 99.6507 374.751 99.512 374.153 99.512C373.556 99.512 373.017 99.6507 372.537 99.928C372.068 100.205 371.695 100.589 371.417 101.08C371.151 101.571 371.017 102.141 371.017 102.792C371.017 103.443 371.151 104.019 371.417 104.52C371.695 105.011 372.068 105.395 372.537 105.672C373.017 105.939 373.556 106.072 374.153 106.072ZM380.866 107V98.6H382.002V105.272L387.618 98.6H388.626V107H387.49V100.312L381.89 107H380.866Z" fill="white" fill-opacity="0.9"/>
<defs>
<filter id="filter0_d_271_3337" x="0" y="0" width="208" height="120" filterUnits="userSpaceOnUse" color-interpolation-filters="sRGB">
<feFlood flood-opacity="0" result="BackgroundImageFix"/>
<feColorMatrix in="SourceAlpha" type="matrix" values="0 0 0 0 0 0 0 0 0 0 0 0 0 0 0 0 0 0 127 0" result="hardAlpha"/>
<feOffset dy="4"/>
<feGaussianBlur stdDeviation="2"/>
<feComposite in2="hardAlpha" operator="out"/>
<feColorMatrix type="matrix" values="0 0 0 0 0 0 0 0 0 0 0 0 0 0 0 0 0 0 0.25 0"/>
<feBlend mode="normal" in2="BackgroundImageFix" result="effect1_dropShadow_271_3337"/>
<feBlend mode="normal" in="SourceGraphic" in2="effect1_dropShadow_271_3337" result="shape"/>
</filter>
</defs>
</svg>
