<svg width="1641" height="1708" viewBox="0 0 1641 1708" fill="none" xmlns="http://www.w3.org/2000/svg">
<path d="M354.05 797.53C381.62 1299.98 928.84 1581.28 1312.65 1296.25C1530.31 1134.54 1565.35 877.1 1622.45 830.83C1651.88 807.03 1687.57 1253.2 1341.11 1531.33C1158.33 1678.04 919.44 1735.58 685.68 1689.01C-90.1699 1534.35 -255.32 467.87 455.53 100.24C585.43 33.0798 731.59 0.0798481 880.98 4.71985C1284.67 17.3298 1561.18 307.58 1569.89 338.02C1572 345.5 1553.78 333.79 1528.58 320.89C1511.69 312.26 1525.58 330.51 1472.77 280.17C987.58 -182.18 322.96 226.35 354.05 797.53Z" fill="url(#paint0_linear_149_1367)"/>
<path d="M1368.42 187.78C1060.78 -3.04015 745.03 17.4899 548.01 148.77C393.67 251.71 348.05 387.02 325.27 571.98C249.23 1190.36 749.98 1543.98 1188.09 1401.01C1378.48 1338.82 1596.5 1171.84 1596.5 1171.84C1596.5 1171.84 1534.4 1461.54 1211.3 1623.55C980.881 1739.04 699.46 1737.82 457.71 1608.74C-22.4896 1352.25 -151.07 711.71 204.24 299.01C386.89 86.9099 664.86 -21.6301 952.69 7.81987C1343.3 47.8599 1556.9 317.9 1546.93 318.52C1540.19 318.85 1476.05 254.56 1368.42 187.78Z" fill="#00B6EC"/>
<path d="M1311.39 135.06C975.38 -26.0701 603.44 36.35 381.19 244.39C233.89 382.3 171.23 571.02 186.25 700.28C197.9 799.94 237.09 771.31 268.06 835.67C297.63 897.23 331.4 1050.65 456.97 1206.94C579.64 1359.52 708.24 1418.19 801.57 1469.1C847.8 1494.33 874.28 1515.02 938.76 1523.8C1259.22 1567.32 1641.25 1123.83 1560.5 1263.51C1556.62 1301.78 1448.09 1411.45 1455.99 1415.42C1462.92 1418.83 1497.42 1380.06 1501.77 1372.82C1505.6 1366.42 1464.23 1424.26 1394.49 1486.47C1139.21 1714.12 785.48 1760.16 489.03 1621.26C-250.67 1274.52 -116.1 161.29 693.58 17.1199C940.92 -26.8801 1211.39 31.0399 1468.49 232.83C1501.5 258.73 1408.73 181.78 1311.39 135.07V135.06Z" fill="#00B3EE"/>
<path d="M1120.9 40.7499C876.35 -31.2501 680.22 9.24994 511.2 120.4C150.46 357.68 35.4701 753.09 158.46 1038.75C205.82 1148.62 256.02 1169.89 327.02 1231C422.79 1313.45 589.05 1483.36 888.61 1533.42C1004.87 1552.83 1093.46 1545.2 1122.28 1555.16C1150.18 1564.86 1123.54 1592.82 1167.91 1590.17C1336.8 1579.88 1535.59 1335.61 1467.76 1417.95C1220.26 1718.28 746.91 1806.84 380.12 1560.21C-43.6399 1275.17 -125.05 680.77 203.56 297C467.23 -10.86 906.97 -81.1201 1285.8 130.12C1467.09 231.26 1571.94 363 1610.52 401.8C1650.58 442.05 1481.51 147.01 1120.89 40.7499H1120.9Z" fill="#00B4ED"/>
<path d="M925.72 1.78996C235.71 -34.14 -193.89 714.51 185.46 1234.56C288.74 1376.05 449.86 1492.22 614.64 1557.61C704.74 1593.36 820.33 1624.64 996.28 1639.37C1134.99 1650.96 1275.01 1584.53 1380.89 1496.13C1533.67 1368.53 1588.71 1216.26 1579.11 1223.5C1560.81 1237.42 1419.62 1564.24 1025.93 1659.64C765.26 1722.77 488.92 1656.01 286.54 1479.63C-280.32 985.4 37.4402 8.99997 864.08 1.16997C904.18 0.799969 1019.92 6.70996 925.73 1.78996H925.72Z" fill="#EB3A28"/>
<path d="M774.32 395.1C774.44 391.1 776.25 390.21 778.92 391.16C782.04 392.26 786.31 395.84 790.44 399.9C790.98 400.43 791.52 400.96 792.05 401.51C794.92 404.43 797.63 407.44 799.72 409.85C799.87 409.83 800.05 409.81 800.22 409.79C800.52 409.75 800.82 409.71 801.13 409.67C801.46 409.62 801.79 409.57 802.12 409.52C802.51 409.45 802.89 409.39 803.27 409.31C807.71 408.44 811.89 406.82 815.53 404.87C817.68 403.72 819.64 402.45 821.36 401.14C823.94 399.18 825.99 397.14 827.31 395.28C827.54 394.96 827.74 394.65 827.92 394.35C827.93 394.33 827.95 394.31 827.96 394.29C828.14 393.99 828.29 393.7 828.43 393.42C828.44 393.4 828.45 393.37 828.46 393.35C828.59 393.06 828.71 392.79 828.8 392.52C828.89 392.24 828.96 391.97 829 391.72C829.03 391.55 829.05 391.38 829.05 391.22C826.44 391.81 823.97 392.7 821.7 393.75C819.54 394.73 817.58 395.86 815.82 396.99C810.74 400.27 807.54 403.59 807.34 403.8C811.51 396.03 815.6 390.23 819.54 385.92C821.72 383.52 823.85 381.61 825.93 380.07C826.43 379.7 826.93 379.36 827.43 379.03C827.52 378.97 827.62 378.91 827.71 378.85C828.21 378.53 828.7 378.23 829.19 377.95C829.2 377.95 829.22 377.94 829.23 377.93C829.72 377.65 830.2 377.4 830.68 377.16C830.74 377.13 830.8 377.1 830.86 377.07C831.35 376.83 831.84 376.61 832.33 376.41C832.35 376.41 832.37 376.39 832.39 376.38C832.88 376.18 833.37 376 833.86 375.83C833.86 375.83 833.88 375.83 833.89 375.83C835.98 375.13 837.98 374.78 839.88 374.68C839.88 374.68 839.9 374.68 839.91 374.68C840.43 374.65 840.94 374.64 841.45 374.65C842.79 374.67 844.08 374.81 845.3 375.03C847.47 375.43 849.43 376.07 851.15 376.74C853.21 377.46 855.7 378.58 858.46 380.01C859.46 380.52 860.5 381.09 861.57 381.69C865.78 384.04 870.42 386.97 875.01 390.19C876.3 391.09 877.58 392.01 878.85 392.96C891 401.99 901.77 412.57 901.75 419.29C901.75 420.22 901.54 421.24 901.15 422.31C900.18 422.39 899.28 422.6 898.46 422.88C895.55 423.84 893.68 425.65 893.68 425.65L895.72 426.33L898.44 427.23C893.76 433.81 884.74 441.55 875.43 448.12C873.5 449.49 871.55 450.8 869.63 452.03C865.03 455 860.57 457.57 856.74 459.44C855.12 460.24 853.61 460.9 852.25 461.42C851.87 461.57 851.51 461.71 851.16 461.83C847.67 463.19 843.17 464.44 837.97 463.71C836.78 463.54 835.55 463.27 834.29 462.86C833.79 462.7 833.29 462.52 832.79 462.33C832.74 462.31 832.69 462.29 832.64 462.27C832.14 462.07 831.63 461.85 831.12 461.61C831.08 461.59 831.04 461.57 831 461.56C830.47 461.31 829.93 461.02 829.38 460.72C829.37 460.72 829.36 460.71 829.35 460.7C828.5 460.22 827.64 459.69 826.77 459.08C826.71 459.04 826.64 458.99 826.58 458.95C826.35 458.78 826.11 458.61 825.87 458.44C825.76 458.36 825.66 458.28 825.55 458.2C825.35 458.05 825.15 457.89 824.96 457.74C824.82 457.63 824.69 457.52 824.55 457.41C824.37 457.27 824.2 457.12 824.02 456.97C823.87 456.84 823.71 456.71 823.56 456.58C823.4 456.44 823.23 456.29 823.07 456.14C822.9 455.99 822.74 455.85 822.57 455.69C822.41 455.54 822.25 455.38 822.08 455.23C821.91 455.07 821.74 454.91 821.58 454.75C821.4 454.58 821.22 454.39 821.05 454.21C820.9 454.05 820.74 453.9 820.59 453.74C820.26 453.4 819.93 453.04 819.59 452.68C819.13 452.17 818.66 451.63 818.18 451.07C814.66 446.95 811.04 441.61 807.36 434.76C807.36 434.76 812.53 440.24 820.4 444.18C821.51 444.74 822.68 445.26 823.89 445.73C825.54 446.38 827.26 446.93 829.06 447.34C829.04 446.35 828.56 445.13 827.67 443.78C827.08 442.88 826.31 441.93 825.38 440.95C824.16 439.68 822.69 438.38 820.98 437.11C816.84 434.04 811.38 431.2 805.31 429.68C804.33 429.43 803.33 429.22 802.31 429.04C800.27 428.69 798.18 428.5 796.06 428.5C795.9 428.5 795.76 428.48 795.6 428.48C794.55 429.5 793.55 430.45 792.59 431.33C790.26 433.48 788.18 435.23 786.29 436.66C783.95 438.45 781.93 439.71 780.2 440.55C768.24 446.36 770.2 431.69 774.37 424.62C779.93 415.2 773.89 411.58 774.37 395.17L774.32 395.1Z" fill="#00B3EE"/>
<path d="M669.67 315.07C669.79 311.07 671.6 310.18 674.27 311.13C677.39 312.23 681.66 315.81 685.79 319.87C686.33 320.4 686.87 320.93 687.4 321.48C690.27 324.4 692.98 327.41 695.07 329.82C695.22 329.8 695.4 329.78 695.57 329.76C695.87 329.72 696.17 329.68 696.48 329.64C696.81 329.59 697.14 329.54 697.47 329.49C697.86 329.43 698.24 329.36 698.62 329.28C703.06 328.41 707.24 326.79 710.88 324.84C713.03 323.69 714.99 322.42 716.71 321.11C719.29 319.15 721.34 317.11 722.66 315.25C722.89 314.93 723.09 314.62 723.27 314.32C723.28 314.3 723.3 314.28 723.31 314.26C723.49 313.96 723.64 313.67 723.78 313.39C723.79 313.37 723.8 313.35 723.81 313.32C723.94 313.03 724.06 312.75 724.15 312.49C724.24 312.21 724.31 311.94 724.35 311.69C724.38 311.52 724.4 311.35 724.4 311.19C721.79 311.78 719.32 312.67 717.05 313.72C714.89 314.7 712.93 315.83 711.18 316.96C706.1 320.24 702.9 323.56 702.7 323.77C706.87 316 710.96 310.2 714.9 305.89C717.08 303.49 719.21 301.58 721.29 300.04C721.79 299.67 722.29 299.33 722.79 299C722.88 298.94 722.98 298.88 723.07 298.82C723.57 298.5 724.06 298.2 724.55 297.92C724.56 297.92 724.58 297.91 724.59 297.9C725.08 297.62 725.56 297.37 726.04 297.13C726.1 297.1 726.16 297.07 726.22 297.04C726.71 296.8 727.2 296.58 727.69 296.38C727.71 296.38 727.73 296.36 727.75 296.35C728.24 296.15 728.73 295.97 729.22 295.8C729.22 295.8 729.24 295.8 729.25 295.8C731.34 295.1 733.34 294.75 735.24 294.65C735.24 294.65 735.26 294.65 735.27 294.65C735.79 294.62 736.3 294.61 736.81 294.62C738.15 294.64 739.44 294.78 740.66 295C742.83 295.4 744.79 296.04 746.51 296.71C748.57 297.43 751.06 298.55 753.82 299.98C754.82 300.49 755.86 301.06 756.93 301.66C761.14 304.01 765.78 306.94 770.37 310.16C771.66 311.06 772.94 311.98 774.21 312.93C786.36 321.96 797.13 332.54 797.11 339.26C797.11 340.2 796.9 341.21 796.51 342.28C795.54 342.36 794.64 342.57 793.82 342.85C790.91 343.81 789.04 345.62 789.04 345.62L791.08 346.3L793.8 347.2C789.12 353.78 780.1 361.52 770.79 368.09C768.86 369.46 766.91 370.77 764.99 372C760.39 374.97 755.93 377.54 752.1 379.41C750.48 380.21 748.97 380.87 747.61 381.39C747.23 381.54 746.87 381.68 746.52 381.8C743.03 383.16 738.53 384.41 733.33 383.68C732.14 383.51 730.91 383.24 729.64 382.83C729.14 382.67 728.64 382.49 728.14 382.3C728.09 382.28 728.04 382.26 727.99 382.24C727.49 382.04 726.98 381.82 726.47 381.58C726.43 381.56 726.39 381.54 726.35 381.53C725.82 381.28 725.28 380.99 724.73 380.69C724.72 380.69 724.71 380.68 724.7 380.67C723.85 380.19 722.99 379.66 722.12 379.05C722.06 379.01 721.99 378.96 721.93 378.92C721.7 378.75 721.46 378.58 721.22 378.41C721.11 378.33 721.01 378.25 720.9 378.17C720.7 378.02 720.5 377.86 720.3 377.71C720.16 377.6 720.03 377.49 719.89 377.38C719.71 377.24 719.54 377.09 719.36 376.94C719.2 376.81 719.05 376.68 718.89 376.55C718.73 376.41 718.56 376.26 718.4 376.11C718.23 375.96 718.07 375.82 717.9 375.66C717.74 375.51 717.58 375.35 717.41 375.2C717.24 375.04 717.07 374.88 716.91 374.72C716.73 374.55 716.55 374.36 716.38 374.18C716.23 374.03 716.07 373.87 715.92 373.72C715.59 373.38 715.25 373.02 714.92 372.66C714.46 372.15 713.99 371.61 713.51 371.05C709.99 366.93 706.37 361.59 702.69 354.74C702.69 354.74 707.86 360.22 715.73 364.16C716.84 364.72 718.01 365.24 719.22 365.71C720.87 366.36 722.59 366.91 724.39 367.32C724.37 366.33 723.89 365.11 723 363.76C722.41 362.86 721.64 361.91 720.71 360.93C719.49 359.66 718.02 358.36 716.31 357.09C712.17 354.02 706.71 351.18 700.64 349.66C699.66 349.41 698.66 349.2 697.64 349.02C695.6 348.67 693.51 348.48 691.39 348.48C691.23 348.48 691.09 348.46 690.93 348.46C689.88 349.48 688.88 350.43 687.92 351.31C685.59 353.46 683.51 355.21 681.62 356.64C679.28 358.43 677.26 359.69 675.53 360.53C663.57 366.34 665.53 351.67 669.7 344.6C675.26 335.18 669.22 331.56 669.7 315.15L669.67 315.07Z" fill="#00B3EE"/>
<path d="M780.75 1442.19C780.07 1425.41 779.78 1408.63 778.87 1391.91C778.15 1375.19 776.86 1358.55 774.47 1342.06C772.04 1325.55 769.06 1309.18 765.77 1292.67C762.61 1276.11 759.97 1259.36 758.62 1242.44C758.04 1233.97 757.72 1225.49 757.79 1216.98C757.88 1208.39 758.58 1199.83 759.77 1191.41C762.13 1174.55 765.8 1158.18 768.2 1141.78C773.03 1108.98 769.43 1075.33 760.66 1043.05L762.61 1042.46C768.16 1058.36 772.16 1074.87 774.43 1091.7C776.53 1108.54 776.59 1125.68 774.73 1142.61C772.98 1159.53 769.15 1175.96 767.13 1192.39C766.06 1200.6 765.48 1208.81 765.48 1217.01C765.5 1225.29 765.9 1233.59 766.56 1241.85C767.71 1258.41 770.12 1274.89 773.07 1291.34C776.07 1307.8 779.25 1324.45 781 1341.25C782.88 1358.06 783.68 1374.97 783.81 1391.8C783.74 1408.64 783.46 1425.43 782.8 1442.21H780.76L780.75 1442.19Z" fill="#00B6EC"/>
<path d="M780.75 1442.2C780.36 1433.35 780.54 1424.38 782.01 1415.52C783.4 1406.65 785.91 1398 788.78 1389.6C789.49 1387.49 790.26 1385.41 791.02 1383.33L792.17 1380.21L792.97 1377.26L796.21 1364.48C798.31 1355.93 800.37 1347.36 802.32 1338.78C806.16 1321.6 810.17 1304.46 813.44 1287.2C815.05 1278.58 816.6 1269.94 817.76 1261.3C819.06 1252.56 819.68 1244.22 819.68 1235.45C819.88 1217.45 822.51 1199.51 827.41 1182.22C832.23 1164.89 839.63 1148.34 848.58 1132.93C857.58 1117.51 867.83 1102.93 878.88 1089.06C890.05 1075.28 901.78 1062.04 913.93 1049.22L915.46 1050.57C904.32 1064.25 893.08 1077.82 882.79 1092.07C872.31 1106.16 862.64 1120.81 854.32 1136.14C846.18 1151.57 838.94 1167.42 834.55 1184.2C830 1200.91 827.65 1218.22 827.63 1235.5C827.56 1244.38 826.78 1253.67 825.37 1262.37C824.09 1271.21 822.44 1279.92 820.72 1288.63C817.15 1305.99 813.26 1323.26 808.71 1340.35C806.48 1348.91 804.16 1357.44 801.79 1365.95L798.13 1378.72L797.66 1380.32L797.08 1382.12L795.84 1385.18L793.42 1391.3C790.18 1399.44 787.35 1407.68 785.57 1416.18C783.77 1424.68 783.06 1433.41 782.81 1442.19L780.77 1442.21L780.75 1442.2Z" fill="#00B6EC"/>
<path d="M782.9 1427.17C782.35 1411.28 778.03 1395.85 770.9 1381.72C764.16 1367.41 755.29 1354.11 746.78 1340.48C738.15 1326.96 730.06 1312.58 724.45 1297.19C718.71 1281.97 714.57 1265.91 713.11 1249.53C712.39 1241.33 712.51 1233.11 712.59 1225.12C712.68 1217.09 712.82 1209.09 712.77 1201.12C712.69 1185.28 711.8 1169.21 708.42 1154.21C706.49 1146.82 703.16 1139.82 698.87 1133.34C694.63 1126.8 689.33 1120.99 684.07 1114.82C673.74 1102.5 663.78 1089.5 656.54 1075.03L658.32 1074.04C666.63 1087.69 676.78 1099.96 687.76 1111.56C693.13 1117.38 698.87 1123.3 703.62 1130.08C708.41 1136.81 712.34 1144.35 714.74 1152.42C723.13 1184.7 718.75 1217.64 721.01 1248.83C722.23 1264.45 725.98 1279.78 731.39 1294.63C734.01 1302.13 737.23 1309.17 740.8 1316.24C744.46 1323.24 748.39 1330.15 752.39 1337.07C760.39 1350.92 768.97 1364.68 775.38 1379.68C781.82 1394.58 785.74 1410.93 784.92 1427.2L782.88 1427.16L782.9 1427.17Z" fill="#00B6EC"/>
<path d="M781.87 1436.35C796.31 1436.69 810.16 1431.23 822.55 1424.02C835.05 1416.85 846.54 1407.86 856.8 1397.78C861.9 1392.73 866.71 1387.32 870.69 1381.66C874.67 1375.75 878.22 1369.44 881.83 1363.03C889.02 1350.36 896.85 1336.88 909.02 1326.97C932.81 1307.82 961.45 1298.52 984.52 1281.55C996.03 1273.13 1005.73 1262.33 1012.8 1249.83C1020.11 1237.43 1024.7 1223.5 1028.39 1209.37L1030.39 1209.79C1027.98 1224.32 1023.89 1238.76 1017.14 1252.18C1010.3 1265.54 1000.37 1277.41 988.54 1286.77C964.76 1305.47 936.09 1315.04 914.07 1333.12C903.2 1341.78 895.8 1354.22 888.45 1366.84C884.74 1373.15 880.97 1379.58 876.63 1385.76C872.09 1392.05 866.87 1397.47 861.35 1402.53C850.3 1412.6 838.17 1421.43 824.91 1428.35C811.66 1434.94 796.8 1440.11 781.69 1438.37L781.88 1436.34L781.87 1436.35Z" fill="#00B6EC"/>
<path d="M586.44 1188.55C588.77 1191.57 589.56 1195.15 590.34 1198.5C591.06 1201.89 591.53 1205.28 592.41 1208.38C594.64 1214.49 597.05 1221.17 599.74 1227.15C605.11 1239.24 613.7 1249.66 623.15 1259.14C632.77 1268.44 642.83 1277.95 652.68 1287.18C662.61 1296.54 672.64 1305.19 683.45 1313.72C694.04 1322.54 704.21 1332.36 712.39 1343.81C716.45 1349.47 720.11 1355.72 723.02 1362.02C726 1368.31 728.51 1374.67 731.18 1380.86C736.46 1393.24 742.78 1404.97 753.82 1412.45C759.14 1416.46 764.85 1420.06 770.79 1423.2C773.76 1424.78 776.8 1426.21 779.9 1427.47C782.99 1428.74 786.16 1429.86 789.38 1430.4L789.17 1432.43C782.07 1431.76 775.54 1429.22 769.23 1426.44C762.91 1423.61 756.82 1420.31 750.98 1416.48C748.07 1414.58 745.29 1412.37 742.61 1409.92C740.06 1407.39 737.64 1404.71 735.61 1401.8C731.42 1396.04 728.18 1389.8 725.2 1383.6C722.21 1377.39 719.48 1371.16 716.53 1365.17C713.59 1359.15 710.21 1353.66 706.23 1348.32C698.39 1337.66 688.78 1328.38 678.37 1319.86C667.84 1311.42 657.22 1302.24 647.44 1292.75L632.82 1278.38C628 1273.6 623.09 1268.83 618.4 1263.71C609.07 1253.56 600.37 1242.24 595.19 1229.07C593.94 1225.8 592.89 1222.5 591.89 1219.23L590.39 1214.34C589.92 1212.75 589.32 1211.12 588.92 1209.28C588.17 1205.76 587.92 1202.35 587.46 1199.02C587.01 1195.73 586.49 1192.37 584.81 1189.78L586.45 1188.56L586.44 1188.55Z" fill="#00B6EC"/>
<path d="M781.83 1432.6C790.46 1432.61 798.82 1429.63 806.33 1425.52C813.87 1421.37 820.6 1415.77 826.32 1409.51C831.99 1403.18 836.24 1395.76 839 1387.69C841.87 1379.65 843.5 1370.97 846.21 1362.32C848.77 1353.77 852.47 1344.72 858.7 1337.48C864.82 1330.14 872.72 1324.85 880.54 1320.38C888.41 1315.94 896.29 1312.06 903.7 1307.66C910.99 1303.33 917.57 1297.95 923.15 1291.61L928.2 1297.36L926.05 1298.78L901.18 1315.23L921.01 1293.03C928.16 1285.02 933.67 1275.54 938.12 1265.49L951.55 1234.67C956.07 1224.37 960.49 1214.03 965.17 1203.8C969.8 1193.55 974.36 1183.28 979.14 1173.1L981.01 1173.91C977.18 1184.48 973.14 1194.96 969.16 1205.47C965.23 1215.99 961.05 1226.41 956.97 1236.86L944.6 1268.31C940.16 1278.86 934.48 1289.18 926.81 1298.11L921.77 1292.37L923.91 1290.94L947.85 1274.88L928.96 1296.69C922.9 1303.68 915.65 1309.67 907.77 1314.42C900.01 1319.13 891.97 1323.01 884.41 1327.22C876.89 1331.45 869.87 1336.2 864.54 1342.45C859.06 1348.61 855.71 1356.21 853.04 1364.49C850.36 1372.69 848.23 1381.36 844.9 1389.9C841.61 1398.45 836.62 1406.51 830.21 1413.12C823.83 1419.73 816.3 1425.05 808.11 1428.98C799.95 1432.86 790.87 1435.48 781.72 1434.64L781.83 1432.6Z" fill="#00B6EC"/>
<path d="M780.77 1437.56C779.08 1430.46 776.77 1423.55 773.64 1417.08C770.47 1410.62 766.27 1404.82 761.41 1399.51C756.61 1394.16 751.23 1389.06 746.27 1383.44C741.31 1377.84 736.67 1371.82 732.81 1365.24C728.94 1358.66 725.96 1351.55 723.84 1344.25C721.79 1337.26 719.54 1330.42 716.7 1323.86C711.18 1310.73 703.12 1298.77 693.05 1288.7C683.06 1278.44 671.23 1269.49 660.88 1258.41C658.27 1255.66 655.95 1252.63 653.55 1249.71C651.36 1246.63 649.02 1243.64 647.08 1240.4C642.91 1234.1 639.51 1227.39 636.35 1220.62C630.16 1207 625.38 1192.92 621.29 1178.72C617.34 1164.47 613.83 1150.19 610.37 1135.9L612.33 1135.33C617.09 1149.28 621.16 1163.43 626 1177.26C630.61 1191.15 635.8 1204.83 642.28 1217.77C648.86 1230.63 656.51 1242.94 666.43 1253.17C676.3 1263.51 688.08 1272.39 698.72 1283.12C709.37 1293.92 718.04 1306.84 723.74 1320.91C726.61 1327.92 728.82 1335.12 730.78 1342.28C732.68 1349.13 735.2 1355.76 738.54 1362.01C741.9 1368.25 746.06 1374.1 750.65 1379.68C755.21 1385.28 760.36 1390.48 765.15 1396.3C769.89 1402.13 774.01 1408.62 776.91 1415.58C779.83 1422.53 781.68 1429.83 782.76 1437.17L780.76 1437.56H780.77Z" fill="#00B6EC"/>
<path d="M780.9 1419.04C784.44 1418.21 787.73 1416.67 790.71 1414.64C793.62 1412.49 796.29 1410.01 798.62 1407.2C803.27 1401.56 806.89 1395.06 809.86 1388.3C816.08 1374.87 818.8 1360.12 823 1345.43C825.06 1338.09 827.43 1330.71 830.74 1323.63C833.93 1316.5 838.27 1309.76 842.92 1303.66C847.6 1297.48 852.9 1291.67 858.82 1286.52C864.67 1281.52 870.27 1277.05 873.15 1271.22C874.61 1268.4 875.47 1265.07 876.17 1261.51C876.86 1257.99 877.32 1254.3 877.87 1250.51C878.42 1246.73 879.08 1242.81 880.17 1238.92C881.25 1235.15 882.49 1231.45 883.96 1227.84C886.89 1220.62 890.48 1213.69 894.69 1207.15C898.87 1200.51 904.1 1194.54 909.61 1189.2C915.12 1183.82 920.92 1178.9 926.59 1173.95C932.27 1169.04 937.75 1163.94 943.24 1158.77C954.34 1148.58 965.32 1138 977.66 1129.12L978.92 1130.72C967.54 1140.55 957.14 1151.37 946.68 1162.3C941.4 1167.7 935.99 1173.06 930.45 1178.24C924.92 1183.41 919.38 1188.47 914.28 1193.83C909.17 1199.2 904.58 1204.82 900.79 1211.01C896.95 1217.24 893.68 1223.83 891.06 1230.65C889.77 1234.06 888.6 1237.52 887.63 1241.02C886.7 1244.4 886.11 1247.95 885.6 1251.63C884.47 1259.01 884.06 1266.85 880.22 1274.85C876.2 1282.68 869.43 1287.71 863.91 1292.45C858.4 1297.16 853.48 1302.56 848.95 1308.33C844.35 1314.16 840.37 1320.11 837.26 1326.72C834.1 1333.28 831.59 1340.25 829.29 1347.34C824.67 1361.47 821.36 1376.6 814.31 1390.43C810.8 1397.29 806.62 1403.88 801.31 1409.6C798.64 1412.45 795.61 1414.98 792.3 1417.11C788.87 1419.08 785.12 1420.48 781.22 1421.07L780.89 1419.06L780.9 1419.04Z" fill="#00B6EC"/>
<path d="M777.62 1422.5C781.4 1412.56 784.28 1402.34 786.34 1391.96C788.37 1381.56 789.34 1370.99 789.93 1360.4C791.2 1339.21 790.28 1317.87 790.44 1296.4C790.52 1285.66 790.82 1274.87 791.88 1264.09C792.9 1253.45 793.88 1242.85 794.6 1232.23C795.33 1221.62 795.81 1211.01 795.96 1200.4C796.07 1195.06 795.94 1189.88 795.96 1184.42C795.94 1178.96 796.15 1173.49 796.66 1168.06C798.66 1146.27 804.67 1125.14 812.49 1105.02C820.33 1084.85 829.96 1065.63 839.46 1046.52C848.92 1027.38 858.19 1008.19 865.52 988.26C869.22 978.32 872.59 968.24 875.08 957.92C877.56 947.61 879.4 937.14 880.47 926.55L882.51 926.68C881.72 948.21 876.96 969.48 870.17 989.9C863.29 1010.33 854.38 1029.94 845.4 1049.36C836.52 1068.84 826.83 1087.86 819.43 1107.67C811.94 1127.42 806.34 1147.89 804.6 1168.77C804.06 1173.97 803.83 1179.2 803.8 1184.43C803.74 1189.67 803.83 1195.17 803.67 1200.52C803.44 1211.29 802.86 1222.04 802.03 1232.76C801.22 1243.47 800.14 1254.16 799.03 1264.79C797.98 1275.29 797.43 1285.88 797.05 1296.51C796.34 1317.78 796.76 1339.25 794.88 1360.74C793.84 1371.46 792.41 1382.18 789.9 1392.69C787.42 1403.2 783.96 1413.47 779.54 1423.28L777.66 1422.48L777.62 1422.5Z" fill="#00B6EC"/>
<path d="M781.91 1405.34C783.48 1401.21 783.9 1396.7 783.76 1392.23C783.64 1387.75 782.96 1383.26 782 1378.84C780.02 1370.02 777.1 1361.28 773.5 1353.01C769.89 1344.67 765.67 1336.49 761.81 1328.01C757.97 1319.43 754.65 1310.9 751.4 1302.14C748.23 1293.39 745.33 1284.44 743.7 1275.02C742.04 1265.66 741.54 1256.27 741.05 1247.08C740.27 1228.75 737.99 1210.74 734.14 1192.89C732.34 1183.96 730.17 1175.09 727.69 1166.32C726.44 1161.96 725.15 1157.51 723.69 1153.29C722.29 1149.08 720.56 1144.94 718.67 1140.83C714.93 1132.6 710.51 1124.49 706.63 1115.93C702.69 1107.44 699.44 1098.25 698.4 1088.57C697.77 1083.76 697.95 1078.86 698.4 1074.04C698.8 1071.66 699.2 1069.24 699.68 1066.92L701.34 1060.15C703.63 1051.18 706.04 1042.41 707.05 1033.48C708.22 1024.53 707.96 1015.58 704.96 1007.1C702.13 998.74 697.04 990.73 689.15 986.52L690.03 984.68C694.42 986.65 698.22 989.79 701.28 993.47C704.31 997.19 706.59 1001.44 708.35 1005.87C710.11 1010.3 711.28 1014.96 711.84 1019.73C712.4 1024.56 712.3 1029.24 711.97 1033.97C711.24 1043.42 708.95 1052.57 706.96 1061.5L705.53 1068.2C705.15 1070.4 704.86 1072.54 704.55 1074.71C704.29 1079.07 704.23 1083.44 704.94 1087.76C707.41 1105.21 717.49 1120.81 725.42 1137.72C727.41 1141.97 729.29 1146.32 730.85 1150.84C732.43 1155.31 733.76 1159.71 735.09 1164.19C737.71 1173.13 740.02 1182.16 741.95 1191.28C745.7 1209.5 747.88 1228.21 748.48 1246.73C748.88 1255.94 749.29 1265 750.77 1273.83C752.26 1282.6 754.82 1291.33 757.64 1300C760.54 1308.61 763.67 1317.37 767.12 1325.72C770.64 1334.13 774.67 1342.45 778.08 1351.16C781.41 1359.96 783.93 1368.93 785.56 1378.18C787.05 1387.33 787.74 1397.24 783.8 1406.18L781.93 1405.36L781.91 1405.34Z" fill="#00B6EC"/>
<path d="M784.34 1414.51C782.31 1406.58 778.92 1399.17 774.39 1392.43C769.61 1385.85 764 1379.93 757.97 1374.4C745.87 1363.33 732.35 1353.6 720.28 1341.63C714.38 1335.54 708.57 1329.06 704.53 1321.24C703.31 1319.42 702.67 1317.28 701.73 1315.3C700.84 1313.29 699.97 1311.27 699.4 1309.16C698.06 1305 697.22 1300.73 696.56 1296.48C694.09 1279.41 695.68 1262.63 693.88 1246.66C693.53 1242.64 692.85 1238.75 692.02 1234.86C691.09 1230.89 690.12 1226.92 688.97 1223C686.75 1215.14 684.07 1207.43 680.98 1199.88C674.81 1184.79 666.78 1170.45 656.97 1157.52C647.01 1144.55 635.54 1132.4 625.31 1119.14C620.25 1112.47 615.42 1105.56 611.35 1098.16C607.27 1090.8 604.02 1082.8 602.84 1074.37L604.85 1074.01C608.54 1090.01 618.66 1103.53 629.15 1116.04C639.66 1128.72 651.41 1140.41 662.13 1153.43C672.98 1166.52 681.19 1181.51 687.83 1197.01C691.11 1204.79 693.98 1212.75 696.36 1220.84C697.59 1224.88 698.63 1228.97 699.64 1233.06C700.59 1237.27 701.38 1241.56 701.79 1245.82C703.47 1262.89 701.73 1279.53 703.91 1295.42C704.49 1299.37 705.21 1303.28 706.38 1307.03C706.87 1308.95 707.63 1310.74 708.41 1312.53C709.24 1314.3 709.74 1316.21 710.85 1317.86L713.8 1322.98L717.28 1327.82C718.37 1329.48 719.73 1330.98 721.02 1332.52C722.34 1334.04 723.56 1335.63 725.03 1337.06C736.16 1348.89 749.4 1359.07 761.4 1370.84C767.3 1376.85 772.81 1383.32 777.43 1390.46C781.86 1397.75 784.92 1405.8 786.37 1414.14L784.36 1414.51H784.34Z" fill="#00B6EC"/>
<path d="M772.52 1427.6C777.26 1427.45 782.02 1427.09 786.45 1425.6C790.89 1424.18 795.03 1422 798.63 1419.11C805.74 1413.15 810.55 1404.83 813.76 1396.01C817.2 1387.22 818.82 1377.84 821.04 1368.29C823.23 1358.8 825.81 1349.27 829.58 1340.03C831.52 1335.44 833.7 1330.92 836.3 1326.59C838.97 1322.32 841.96 1318.21 845.38 1314.47C852.2 1306.91 860.55 1301.03 868.75 1295.82C877 1290.55 885.28 1285.67 892.96 1280.17C900.53 1274.63 907.62 1268.46 912.31 1260.85C913.64 1259.04 914.46 1256.98 915.53 1255.02C916.36 1252.87 917.36 1250.79 918.04 1248.56C919.64 1244.21 920.73 1239.62 921.8 1235.04C923.77 1225.79 924.99 1216.27 926.32 1206.65C927.67 1197.04 929.08 1187.29 931.73 1177.67C934.36 1167.94 938.28 1158.99 942.49 1150.08C950.97 1132.33 962.24 1115.93 975.66 1101.62C989.21 1087.42 1005 1075.49 1022.08 1066.18L1023.11 1067.94C990.36 1088.28 963.93 1118 948.46 1152.87C947.43 1155.02 946.54 1157.23 945.65 1159.43C944.74 1161.63 943.83 1163.83 943.06 1166.08C941.39 1170.58 939.77 1174.94 938.66 1179.51C936.24 1188.59 934.95 1198.07 933.7 1207.63C932.47 1217.19 931.32 1226.91 929.35 1236.63C928.27 1241.47 927.15 1246.34 925.47 1251.1C924.75 1253.51 923.68 1255.83 922.78 1258.19C921.58 1260.5 920.56 1262.97 919.06 1265.1C913.43 1273.98 905.49 1280.64 897.45 1286.42C889.33 1292.13 880.86 1297 872.75 1302.08C864.6 1307.15 856.92 1312.5 850.68 1319.29C844.43 1326.08 839.49 1334.04 835.65 1342.61C831.85 1351.21 829.09 1360.36 826.66 1369.66C824.23 1378.88 822.3 1388.65 818.36 1397.82C814.56 1406.95 808.98 1415.77 800.87 1421.94C796.77 1424.94 792.12 1427.12 787.27 1428.41C782.4 1429.72 777.37 1429.79 772.46 1429.63L772.54 1427.59L772.52 1427.6Z" fill="#00B6EC"/>
<path d="M780.11 1428.26C783.58 1418.54 790.87 1411.17 796.98 1403.66C800.07 1399.89 802.99 1396.03 805.1 1391.85C807.25 1387.64 808.91 1383.06 810.32 1378.47C813.24 1369.21 814.67 1359.75 816.43 1349.86C818.3 1340.07 820.74 1330.37 823.77 1320.85C829.75 1301.76 838.31 1283.65 848.06 1266.27C857.87 1249.01 868.86 1232.64 874.86 1214.55C876.42 1210.07 877.54 1205.47 878.4 1200.87C879.14 1196.42 879.17 1191.72 879.06 1186.85C878.96 1181.98 878.71 1176.93 879.1 1171.72C879.4 1166.52 880.64 1161.1 882.53 1156.29C886.28 1146.51 892.01 1138.03 897.76 1129.95C900.6 1125.96 903.64 1121.81 906.93 1117.99C910.22 1114.15 913.72 1110.53 917.34 1107.05C931.78 1093.1 948.23 1081.86 963.35 1069.53C970.91 1063.37 978.19 1056.83 984.38 1049.39C987.5 1045.69 990.3 1041.74 992.55 1037.5C994.83 1033.29 996.58 1028.77 997.3 1024.03L999.33 1024.26C998.34 1034.46 993.29 1043.74 987.21 1051.64C981.13 1059.65 973.96 1066.67 966.55 1073.3C951.5 1086.32 935.55 1097.85 921.97 1111.74C915.1 1118.65 909.17 1126.02 903.61 1134.09C898.02 1142.07 892.72 1150.18 889.49 1158.9C887.85 1163.28 886.89 1167.6 886.65 1172.24C886.34 1176.86 886.61 1181.68 886.76 1186.66C886.92 1191.63 886.96 1196.84 886.13 1202.14C885.23 1207.23 884.06 1212.24 882.41 1217.09C875.73 1236.52 864.25 1253.11 854.51 1269.97C844.75 1286.83 836.51 1304.61 830.03 1322.93C826.82 1332.11 824.18 1341.5 822.1 1351.01C820.13 1360.46 818.36 1370.53 815.02 1380C813.32 1384.75 811.4 1389.41 808.87 1393.87C806.31 1398.39 803.05 1402.29 799.73 1406C793.17 1413.41 785.83 1420.12 782.03 1428.97L780.12 1428.25L780.11 1428.26Z" fill="#00B6EC"/>
<path d="M783.23 1412.14C789.91 1405.4 795.22 1397.39 799.28 1388.83C803.36 1380.28 806.36 1371.2 808 1361.92C809.75 1352.69 810.29 1343.18 808.67 1334.13C807.24 1325.19 802.36 1317.07 797.46 1308.85C794.98 1304.72 792.44 1300.53 790.17 1296.06C789.03 1293.84 788.03 1291.46 787.13 1289.12L784.65 1282.22C781.49 1272.96 778.74 1263.53 777.09 1253.69C773.98 1234.17 774.46 1214.08 778.66 1194.74C780.79 1185.08 783.9 1175.68 787.61 1166.57L793.38 1153.27C795.24 1148.9 796.94 1144.47 798.48 1140.01C804.64 1122.29 808.08 1103.05 803.3 1085.36C797.78 1067.64 787.22 1051.1 778.82 1033.63C774.65 1024.84 770.91 1015.72 768.6 1006.15C766.25 996.61 765.56 986.57 767.17 976.88L769.19 977.14C768.25 986.62 769.46 996.15 772.08 1005.23C774.72 1014.33 778.74 1022.99 783.23 1031.42C792 1048.42 803.02 1064.42 809.61 1083.48C812.69 1093.22 813.18 1103.56 812.1 1113.47C811.06 1123.42 808.63 1133.07 805.51 1142.4C803.95 1147.07 802.23 1151.67 800.35 1156.19L794.73 1169.48C791.25 1178.26 788.37 1187.27 786.42 1196.47C782.26 1214.81 781.62 1233.93 784.41 1252.54C785.86 1261.75 788.43 1270.93 791.42 1279.95L793.77 1286.69C794.56 1288.86 795.45 1290.92 796.44 1293.03C798.42 1297.22 800.76 1301.36 803.14 1305.57C807.8 1313.95 812.96 1322.91 814.36 1333.23C815.84 1343.27 814.98 1353.32 812.83 1362.94C810.66 1372.58 807.12 1381.83 802.5 1390.49C797.94 1399.17 791.98 1407.17 784.61 1413.67L783.23 1412.16V1412.14Z" fill="#00B6EC"/>
<path d="M773.2 1410.73C774.72 1409.13 775.55 1406.79 776.21 1404.5C776.88 1402.19 777.23 1399.74 777.56 1397.3C778.16 1392.4 778.4 1387.43 778.59 1382.43C778.81 1377.44 778.78 1372.38 779.5 1367.21C780.16 1362.17 781.02 1357.14 782.2 1352.17C784.56 1342.22 788.16 1332.56 792.6 1323.37L806.27 1296.52C810.67 1287.6 814.63 1278.54 817.59 1269.26C820.56 1259.98 822.11 1250.36 822.04 1240.78C821.96 1238.41 821.82 1235.95 821.61 1233.66C821.37 1231.44 820.82 1229.24 820.11 1227.07C818.69 1222.72 816.39 1218.51 813.91 1214.26C811.41 1210.02 808.68 1205.67 806.3 1201.02C803.96 1196.48 801.77 1191.86 799.75 1187.17C795.79 1177.74 792.5 1168.04 789.83 1158.21C787.03 1148.34 785.34 1138.06 784.78 1127.76C784.55 1122.58 784.56 1117.36 785.24 1112.08C785.86 1106.78 787.46 1101.4 789.67 1096.64C794.05 1086.99 800.19 1078.82 805.5 1070.5C816.32 1054.27 821.14 1034.58 822.22 1014.93C823.38 995.17 820.56 975.22 815.8 955.84L817.76 955.28C823.86 974.5 827.35 994.7 827.15 1015.11C826.64 1035.4 822.16 1056.29 811.09 1073.96C805.86 1082.69 800.09 1090.86 796.2 1099.55C794.24 1103.92 792.98 1108.29 792.46 1112.97C791.9 1117.65 791.92 1122.51 792.18 1127.35C792.8 1137.09 794.46 1146.72 797.23 1156.15C799.91 1165.67 803.16 1175 807.06 1184.04C808.97 1188.58 811.05 1193.05 813.26 1197.46C815.41 1201.77 817.99 1205.96 820.55 1210.38C823.08 1214.81 825.61 1219.48 827.28 1224.71C828.11 1227.31 828.76 1230.02 829.04 1232.79C829.27 1235.49 829.4 1238.05 829.46 1240.69C829.46 1251.18 827.64 1261.61 824.4 1271.42C821.23 1281.26 816.87 1290.56 812.13 1299.5L797.75 1325.95C793.21 1334.71 789.55 1343.88 786.96 1353.4C785.62 1358.14 784.56 1362.98 783.7 1367.86C782.82 1372.61 782.61 1377.63 782.17 1382.64C781.76 1387.66 781.31 1392.71 780.45 1397.74C779.95 1400.25 779.45 1402.77 778.58 1405.24C777.7 1407.68 776.71 1410.21 774.62 1412.19L773.2 1410.72V1410.73Z" fill="#00B6EC"/>
<path d="M541.12 1371C541.12 1371 539.4 1355.65 536.38 1328.8C534.94 1315.31 533.11 1298.9 531.73 1279.92C530.43 1260.94 529.45 1239.4 530.01 1215.78C530.26 1209.87 530.37 1203.84 530.76 1197.7C531.27 1191.55 531.5 1185.28 532.26 1178.92C533.05 1172.57 533.6 1166.08 534.77 1159.55C535.29 1156.28 535.82 1152.98 536.35 1149.66C536.88 1146.34 537.68 1143.03 538.33 1139.68C539.04 1136.34 539.67 1132.96 540.47 1129.58C541.34 1126.22 542.22 1122.84 543.1 1119.44C543.54 1117.74 543.99 1116.03 544.43 1114.32C544.9 1112.42 545.41 1110.96 545.91 1109.25C546.91 1105.95 547.91 1102.63 548.92 1099.29C553.07 1085.95 557.31 1072.32 561.63 1058.45C570.07 1030.9 578.64 1002.63 582.95 973.34C583.43 969.68 583.91 966.01 584.39 962.34L585.12 956.82C585.31 955.23 585.45 953.1 585.62 951.26C585.92 947.47 586.32 943.57 586.54 939.85L587.13 928.74C587.66 913.77 587.19 899.04 584.31 884.84C582.83 877.73 580.8 870.66 578.46 863.43C576.09 856.17 573.62 848.74 571.36 841.2C569.14 833.64 567.13 826.01 565.43 818.36L564.21 812.62L563.61 809.75L563.46 809.03L563.35 808.45L563.29 808.1L563.06 806.69C562.45 802.92 561.84 799.16 561.23 795.4C556.37 764.39 556.76 733.69 559.88 704.42C561.35 689.77 563.92 675.53 566.75 661.7C569.48 648.09 572.56 634.7 574.98 621.72C576.16 615.23 577.32 608.82 578.46 602.52C579.01 599.36 579.65 596.24 580.12 593.12C580.55 590 580.98 586.89 581.4 583.82C582.25 577.67 583.09 571.62 583.91 565.68C584.11 564.19 584.31 562.72 584.52 561.25C584.63 559.77 584.75 558.31 584.86 556.84C585.09 553.92 585.31 551.02 585.53 548.15C585.98 542.41 586.41 536.8 586.84 531.31L587 529.26C587.05 528.8 587.02 527.95 587.04 527.31C587.04 525.94 587.05 524.58 587.06 523.22C587.08 520.51 587.09 517.84 587.11 515.19C587.13 504.63 587.43 494.57 586.77 485.25C586.31 475.89 585.99 467.14 585.5 459.02C584.95 450.89 584.44 443.43 583.98 436.68C583.18 423.17 582.54 412.55 582.11 405.31C581.69 398.07 581.47 394.21 581.47 394.21L583.37 394.09C583.37 394.09 583.76 397.93 584.48 405.14C585.22 412.35 586.29 422.91 587.67 436.36C588.37 443.09 589.14 450.54 589.98 458.66C590.75 466.79 591.36 475.65 592.14 485.09C593.12 494.56 593.14 504.56 593.47 515.13C593.54 517.77 593.62 520.45 593.69 523.15C593.73 524.5 593.77 525.87 593.8 527.24C593.8 527.98 593.86 528.5 593.83 529.42L593.74 531.51C593.49 537.09 593.24 542.81 592.98 548.64C592.85 551.56 592.72 554.51 592.59 557.49C592.52 558.98 592.46 560.48 592.39 561.98C592.24 563.47 592.08 564.98 591.93 566.48C591.3 572.52 590.65 578.67 589.99 584.92C589.66 588.05 589.32 591.2 588.99 594.39C588.61 597.57 588.07 600.74 587.61 603.96C586.65 610.39 585.68 616.91 584.69 623.52C582.65 636.73 580.02 650.04 577.69 663.86C575.35 677.43 573.28 691.35 572.31 705.59C570.16 733.97 570.78 763.69 576.27 792.72C577 796.45 577.72 800.2 578.45 803.94L578.72 805.35L578.79 805.7C578.85 806.02 578.79 805.66 578.82 805.82L578.99 806.5L579.65 809.22L580.97 814.68C582.78 821.94 584.88 829.13 587.18 836.29C589.53 843.44 592.1 850.6 594.72 857.95C597.32 865.35 599.79 873.08 601.66 881.06C605.3 897.12 606.35 913.49 605.95 929.27L605.49 941.2C605.31 945.15 604.98 948.89 604.74 952.74C604.59 954.72 604.51 956.41 604.3 958.62L603.62 964.48C603.17 968.38 602.72 972.28 602.26 976.17C598.06 1007.21 589.84 1036.7 581.37 1064.53C577.14 1078.36 572.99 1091.96 568.92 1105.27C567.93 1108.61 566.95 1111.94 565.97 1115.24C565.51 1116.85 564.92 1118.65 564.57 1120.08C564.15 1121.69 563.73 1123.29 563.31 1124.88C562.47 1128.07 561.63 1131.25 560.8 1134.4C560.03 1137.57 559.44 1140.77 558.75 1143.92C558.12 1147.08 557.35 1150.19 556.84 1153.34C556.33 1156.49 555.82 1159.61 555.32 1162.71C554.19 1168.89 553.65 1175.08 552.87 1181.12C552.07 1187.16 551.74 1193.18 551.17 1199.04C550.7 1204.92 550.51 1210.73 550.18 1216.4C549.29 1239.14 549.91 1260.12 550.9 1278.74C551.86 1297.37 553.01 1313.67 554.07 1327.12C555.14 1340.56 556 1351.24 556.46 1358.48C556.93 1365.71 557.18 1369.57 557.18 1369.57L541.13 1370.98L541.12 1371Z" fill="#00B3EE"/>
<path d="M562.63 1370.87C562.63 1370.87 562.55 1370 562.4 1368.31C562.27 1366.61 562.09 1364.1 561.84 1360.81C561.4 1354.3 561 1344.77 560.87 1332.64C560.79 1320.51 560.95 1305.78 561.96 1288.9C562.99 1272.03 564.93 1253.01 568.19 1232.39C568.6 1229.81 569.01 1227.21 569.42 1224.57C569.92 1221.95 570.42 1219.3 570.92 1216.63C571.92 1211.28 572.92 1205.83 574.27 1200.34C576.68 1189.35 579.95 1177.95 583.28 1166.58C590.07 1144.07 597.51 1120.45 604.7 1095.99C608.23 1083.75 611.96 1071.33 615.24 1058.72C618.84 1046.13 621.63 1033.31 624.64 1020.39C626.03 1013.92 627.05 1007.39 628.28 1000.86C628.84 997.59 629.55 994.32 629.98 991.03L631.15 981.14L632.33 971.23C632.51 969.58 632.81 967.93 632.89 966.27L633.15 961.3L634.16 941.68L633.91 931.43C633.82 928.02 633.35 925.03 633.11 921.81C632.89 918.68 632.38 915.4 631.87 912.13C631.37 908.86 630.94 905.6 630.25 902.32C627.9 889.24 624.65 876.1 621.83 862.86C618.88 849.66 616.31 836.28 614.54 822.92C614.14 819.57 613.73 816.23 613.33 812.91C613.02 809.57 612.85 806.22 612.61 802.89C611.98 796.25 612.21 789.59 612.11 783.03C612.36 756.69 617.34 731.55 624.4 708.77C631.44 686.29 638.95 665.16 646.36 646C653.74 626.79 661.12 609.49 666.74 593.93C672.44 578.39 676.03 564.45 677.9 552.73C679.79 541.02 680.52 531.67 680.83 525.3C681.11 518.92 681.25 515.51 681.25 515.51H683.16C683.16 515.51 683.18 518.94 683.21 525.37C683.19 531.8 682.92 541.26 681.57 553.26C680.22 565.26 677 579.69 671.83 595.66C666.72 611.65 659.99 629.22 653.38 648.57C646.73 667.93 640.1 688.95 633.88 711.56C627.83 733.85 623.95 758.03 624.61 783.03C624.94 789.27 624.93 795.57 625.76 801.87C626.1 805.03 626.37 808.2 626.78 811.37C627.28 814.53 627.78 817.71 628.27 820.89C630.41 833.62 633.33 846.4 636.71 859.36C639.99 872.33 643.65 885.44 646.51 899.11C647.32 902.48 647.89 905.96 648.52 909.42C649.15 912.87 649.8 916.32 650.18 920C650.57 923.57 651.18 927.36 651.37 930.77L651.92 941.01L651.95 941.65V942.31V942.64L651.92 943.95L651.86 946.58L651.74 951.84L651.49 962.36C651.55 969.4 650.49 976.31 649.87 983.25L648.81 993.65C648.41 997.1 647.74 1000.49 647.22 1003.91C646.06 1010.71 645.1 1017.56 643.77 1024.27C640.9 1037.62 638.24 1050.94 634.79 1063.79C633.12 1070.23 631.64 1076.72 629.84 1083.01C628.06 1089.31 626.29 1095.57 624.53 1101.77C617.38 1126.53 610.19 1150.27 603.22 1172.69C596.45 1194.77 591.62 1215.86 588.08 1235.72C584.58 1255.55 582.38 1273.95 581.09 1290.31C579.72 1306.67 578.92 1320.99 578.61 1332.79C578.34 1344.59 578.39 1353.85 578.44 1360.15C578.51 1363.27 578.57 1365.66 578.6 1367.27C578.66 1368.89 578.69 1369.72 578.69 1369.72L562.61 1370.87H562.63Z" fill="#00B3EE"/>
<path d="M558.77 1369.26C558.77 1369.26 559.07 1366.48 559.64 1361.25C560.2 1356.04 561.23 1348.47 562.69 1338.86C564.17 1329.25 566.03 1317.6 568.59 1304.3C571.16 1291.01 574.32 1276.06 578.3 1259.86C580.3 1251.76 582.48 1243.35 584.84 1234.66C587.35 1226.01 589.84 1217.05 592.81 1207.93C598.4 1189.61 605.41 1170.6 613.38 1151.19C615.44 1146.36 617.52 1141.49 619.62 1136.59C621.78 1131.82 623.95 1127.02 626.14 1122.18C630.5 1112.49 634.86 1102.8 639.07 1092.91C647.53 1073.16 655.54 1052.98 661.82 1032.48C668.06 1011.96 672.13 990.97 673.42 969.87C674.82 948.79 673.94 927.73 672.24 907.37C670.36 887.08 667.95 867.04 666.73 848.02C665.44 829.01 664.98 810.85 666.49 794.08C667.94 777.33 671.66 762 677.48 749.49C683.16 736.89 690.79 727.41 697.55 720.41C699.27 718.67 700.84 716.97 702.42 715.49C704.06 714.07 705.59 712.73 707.02 711.49C708.45 710.26 709.77 709.11 710.98 708.07C712.26 707.11 713.42 706.24 714.46 705.45C718.61 702.33 720.82 700.67 720.82 700.67L721.96 702.2C721.96 702.2 719.87 703.97 715.96 707.3C714.98 708.13 713.89 709.06 712.69 710.08C711.56 711.18 710.33 712.38 709.01 713.67C707.69 714.96 706.26 716.36 704.75 717.84C703.29 719.38 701.87 721.13 700.3 722.91C697.06 726.39 694.11 730.74 690.83 735.37C689.4 737.82 687.92 740.37 686.38 743.01C685.01 745.74 683.79 748.67 682.42 751.63C677.47 763.73 674.61 778.39 673.96 794.59C673.27 810.8 674.49 828.49 676.58 847.15C678.61 865.83 681.82 885.32 684.67 906.03C687.31 926.69 689.2 948.33 688.7 970.58C688.36 992.83 684.67 1015.49 678.92 1037.31C673.22 1059.19 665.28 1080.16 657.1 1100.41C653.04 1110.55 648.78 1120.56 644.63 1130.33C642.54 1135.22 640.46 1140.08 638.4 1144.9C636.42 1149.65 634.45 1154.37 632.5 1159.05C624.91 1177.87 618.35 1196.42 612.71 1214.24C606.98 1232.02 602.25 1249.08 598 1264.86C593.91 1280.69 590.29 1295.24 587.42 1308.23C584.46 1321.19 582.04 1332.54 580.19 1341.91C578.36 1351.28 577.01 1358.66 576.09 1363.67C575.22 1368.67 574.76 1371.33 574.76 1371.33L558.77 1369.25V1369.26Z" fill="#00B3EE"/>
<path d="M541.52 1372.91C541.52 1372.91 540.53 1370.14 538.69 1364.94C536.89 1359.77 534.41 1352.17 531.55 1342.42C528.69 1332.67 525.4 1320.77 522.06 1307.01C518.85 1293.22 515.6 1277.55 512.82 1260.29C511.41 1251.67 510.13 1242.64 509.04 1233.26C507.89 1223.88 507.09 1214.13 506.55 1204.06C505.5 1183.99 505.51 1162.43 508.13 1140.5C509.22 1129.9 510.63 1118.74 512.23 1107.63C513.9 1096.56 515.8 1085.38 517.89 1074.21C522.01 1051.83 526.82 1029.44 529.82 1007.33C531.32 996.27 532.06 985.24 532.09 974.25C532.17 963.29 530.98 952.23 529.57 941.57C529.13 938.78 528.68 936 528.24 933.22C527.75 930.52 527.27 927.82 526.78 925.13C525.76 919.77 524.66 914.37 523.42 909.06C521 898.42 518.24 887.96 515.33 877.68C509.5 857.13 503.08 837.3 497.77 818.15C492.39 799.04 488.24 780.57 485.82 763.31C483.36 746.05 482.63 730.06 482.85 715.95C483.09 701.83 484.32 689.59 485.66 679.58C486.38 674.58 487.06 670.13 487.81 666.28C488.5 662.42 489.1 659.15 489.71 656.52C490.85 651.25 491.45 648.43 491.45 648.43L493.32 648.81C493.32 648.81 492.89 651.64 492.07 656.94C491.63 659.59 491.22 662.87 490.77 666.73C490.25 670.58 489.85 675.03 489.43 680C488.62 689.95 487.94 702.06 488.37 715.92C488.8 729.77 490.25 745.35 493.44 762.06C496.61 778.78 501.42 796.59 507.55 815.2C513.61 833.83 520.88 853.29 527.71 873.87C531.12 884.16 534.41 894.72 537.38 905.56C538.89 910.98 540.26 916.44 541.59 922.03C542.22 924.83 542.85 927.63 543.49 930.44C544.06 933.19 544.62 935.96 545.19 938.72C547.18 950.38 548.81 961.96 549.18 973.89C549.57 985.74 549.18 997.68 548.02 1009.42C545.62 1032.9 541 1055.5 537.47 1077.63C535.63 1088.7 534.03 1099.67 532.58 1110.52C531.11 1121.34 529.84 1131.89 528.81 1142.7L528.4 1146.7L528.2 1148.7L528.06 1150.52C527.86 1153.09 527.67 1155.66 527.48 1158.21C527.25 1163.33 526.96 1168.4 526.88 1173.44C526.67 1183.51 526.79 1193.4 527.3 1203.03C528.32 1222.29 530.09 1240.54 532.54 1257.31C534.91 1274.09 537.82 1289.39 540.63 1302.91C543.37 1316.45 546.13 1328.18 548.55 1337.8C551.01 1347.41 553.07 1354.92 554.49 1360.02C555.97 1365.05 556.75 1367.73 556.75 1367.73L541.5 1372.95L541.52 1372.91Z" fill="#00B3EE"/>
<path d="M541.93 1373.88C541.93 1373.88 541.63 1373.3 541.05 1372.19C540.5 1371.1 539.68 1369.48 538.62 1367.37C536.51 1363.16 533.58 1356.96 530.18 1348.93C523.3 1332.92 514.24 1309.69 506.46 1280.76C502.64 1266.29 498.94 1250.45 496.31 1233.42C493.62 1216.41 491.73 1198.25 491.47 1179.33C491.44 1174.6 491.42 1169.83 491.57 1165.02C491.73 1160.21 491.92 1155.32 492.21 1150.67C492.7 1141.23 493.49 1131.56 494.23 1121.94C495.75 1102.65 497.58 1083.11 498.95 1063.83C500.43 1044.54 500.82 1025.59 498.53 1007.13C496.34 988.66 491.71 970.61 486.28 953.33C483.53 944.69 480.63 936.23 477.63 927.98C476.13 923.91 474.6 919.68 473.1 915.88C472.29 913.88 471.48 911.9 470.68 909.93C469.84 908.05 469.01 906.18 468.17 904.32C461.2 889.32 453.57 875.13 447.73 861.47C441.77 847.85 437.34 834.89 434.29 823.21C431.11 811.55 429.53 801.14 428.28 792.61C427.86 788.32 427.49 784.48 427.17 781.15C426.85 777.82 426.83 774.97 426.69 772.66C426.47 768.06 426.35 765.6 426.35 765.6L428.25 765.49C428.25 765.49 428.53 767.91 429.06 772.46C429.36 774.73 429.57 777.54 430.11 780.81C430.65 784.07 431.28 787.82 431.98 792.02C432.93 796.17 433.75 800.81 434.99 805.77C436.28 810.72 437.64 816.08 439.52 821.68C443.11 832.92 448.09 845.27 454.62 858.24C461.06 871.27 469.22 884.77 477.22 899.91C478.21 901.85 479.2 903.8 480.2 905.77C481.11 907.7 482.02 909.65 482.93 911.61C484.81 915.75 486.46 919.67 488.24 923.8C491.72 931.99 495.13 940.44 498.42 949.14C504.92 966.55 510.8 985.14 514.21 1004.85C517.55 1024.57 517.99 1044.99 517.33 1064.78C516.63 1084.61 515.14 1104.1 514.17 1123.28C513.7 1132.86 513.23 1142.36 512.77 1151.75C512.51 1156.53 512.37 1161.02 512.26 1165.53C512.15 1170.04 512.2 1174.53 512.26 1178.97C512.74 1196.77 514.26 1214.01 516.8 1230.25C519.28 1246.49 522.4 1261.78 525.89 1275.75C529.29 1289.75 533.04 1302.45 536.59 1313.63C540.08 1324.83 543.52 1334.48 546.48 1342.36C549.46 1350.23 551.95 1356.36 553.66 1360.5C554.53 1362.55 555.2 1364.12 555.66 1365.18C556.11 1366.2 556.35 1366.73 556.35 1366.73L541.91 1373.89L541.93 1373.88Z" fill="#00B3EE"/>
<path d="M539.99 1376.81C539.99 1376.81 539.58 1376.56 538.55 1375.8C537.53 1375.04 535.9 1373.87 534.2 1372.42C530.53 1369.56 525.73 1364.99 519.96 1358.84C517.18 1355.7 514.11 1352.19 510.97 1348.24C508.02 1344.16 504.46 1339.96 501.47 1334.97C499.9 1332.52 498.29 1329.98 496.63 1327.37C495.14 1324.67 493.62 1321.88 492.05 1319.03C488.73 1313.39 486.14 1307.06 483.19 1300.55C481.63 1297.33 480.47 1293.88 479.2 1290.4C477.94 1286.91 476.66 1283.36 475.35 1279.75C474.21 1276.09 473.28 1272.31 472.21 1268.5C471.23 1264.67 469.99 1260.83 469.19 1256.85C468.42 1252.86 467.64 1248.82 466.85 1244.73C466.08 1240.64 465.16 1236.51 464.83 1232.27C464.37 1228.05 463.9 1223.78 463.43 1219.47C463.2 1217.31 462.96 1215.15 462.73 1212.97C462.52 1210.8 462.54 1208.6 462.43 1206.4C462.28 1202 462.12 1197.57 461.97 1193.1C461.91 1190.87 461.85 1188.63 461.79 1186.38C461.77 1184.14 461.95 1181.89 462.02 1179.63C462.42 1170.74 462.83 1161.75 463.24 1152.68C463.72 1143.71 464.2 1134.68 464.68 1125.6C465.02 1121.01 464.94 1116.62 464.97 1112.19L465.02 1098.86C465.33 1089.96 464.49 1081.07 463.95 1072.2L463.52 1065.55L463.31 1062.23C463.21 1061.13 463.01 1060.05 462.86 1058.96C462.25 1054.6 461.64 1050.25 461.03 1045.92C460.15 1037.16 457.75 1028.84 455.97 1020.44C455.18 1016.21 453.72 1012.2 452.47 1008.16C451.18 1004.12 449.9 1000.11 448.64 996.13C442.59 980.57 436.03 965.54 428.61 951.95C421.22 938.77 412.54 926.69 404.75 915.45C396.88 904.21 389.97 893.4 385.12 883.14C380.21 872.91 377.24 863.38 375.81 855.39C374.91 851.43 374.58 847.82 374.25 844.7C374.1 843.14 373.88 841.7 373.82 840.38C373.78 839.05 373.75 837.85 373.72 836.77C373.6 832.46 373.53 830.16 373.53 830.16L375.44 830.11C375.44 830.11 375.67 832.36 376.09 836.59C376.2 837.64 376.31 838.82 376.44 840.12C376.6 841.41 376.91 842.8 377.17 844.31C377.71 847.33 378.28 850.8 379.43 854.56C381.33 862.17 384.63 871.16 389.91 880.7C395.13 890.28 402.34 900.31 410.78 911.02C419.2 921.81 428.54 933.34 437.23 947.11C445.56 960.65 453.08 975.59 460.27 991.56C461.82 995.65 463.39 999.78 464.96 1003.94C466.5 1008.12 468.25 1012.27 469.33 1016.66C471.68 1025.36 474.66 1034.09 476.08 1043.19C476.95 1047.71 477.83 1052.25 478.71 1056.81C478.91 1057.95 479.17 1059.09 479.33 1060.24L479.71 1063.69L480.46 1070.6C481.44 1079.83 482.7 1089.09 482.8 1098.46L483.35 1112.48C483.54 1117.16 483.78 1121.87 483.53 1126.36C483.27 1135.44 483.02 1144.49 482.77 1153.46C482.59 1162.34 482.41 1171.15 482.23 1179.85C482.21 1181.99 482.09 1184.13 482.16 1186.26C482.27 1188.38 482.39 1190.5 482.5 1192.6C482.69 1196.81 482.88 1200.99 483.06 1205.14C483.18 1207.21 483.18 1209.29 483.39 1211.33C483.63 1213.37 483.87 1215.39 484.11 1217.41C484.59 1221.44 485.06 1225.44 485.52 1229.4C485.85 1233.38 486.79 1237.19 487.45 1241.01C488.16 1244.82 488.86 1248.59 489.56 1252.3C490.27 1256.01 491.42 1259.55 492.3 1263.1C493.27 1266.63 494.1 1270.14 495.13 1273.53C496.27 1276.87 497.39 1280.16 498.49 1283.39C499.59 1286.62 500.58 1289.83 501.96 1292.79C504.55 1298.8 506.81 1304.66 509.65 1309.9C510.99 1312.56 512.3 1315.15 513.57 1317.67C515 1320.09 516.4 1322.44 517.74 1324.72C520.31 1329.37 523.26 1333.33 525.75 1337.18C528.39 1340.9 530.99 1344.2 533.33 1347.16C538.2 1352.91 542.27 1357.23 545.13 1359.9C546.58 1361.34 547.57 1362.15 548.26 1362.78C548.95 1363.4 549.52 1363.81 549.48 1363.79L539.99 1376.81Z" fill="#00B3EE"/>
<path d="M921.469 666.636H955.381L978.707 723.483H979.884L1003.21 666.636H1037.12V767H1010.46V708.977H1009.68L987.332 766.216H971.259L948.912 708.585H948.128V767H921.469V666.636ZM1050.04 666.636H1077.28V719.17H1078.07L1113.74 666.636H1136.87V767H1109.63V714.27H1109.04L1072.77 767H1050.04V666.636ZM1173.92 791.111V746.026H1180.98C1183.33 744.588 1185.45 742.562 1187.35 739.949C1189.28 737.335 1190.91 733.594 1192.25 728.727C1193.62 723.859 1194.63 717.341 1195.29 709.173L1198.62 666.636H1269.58V746.026H1280.17V791.111H1253.9V767H1200.19V791.111H1173.92ZM1212.15 746.026H1243.31V688.591H1223.12L1221.56 709.173C1221.1 715.315 1220.4 720.69 1219.45 725.296C1218.53 729.87 1217.44 733.856 1216.16 737.254C1214.92 740.619 1213.58 743.543 1212.15 746.026ZM1289.38 767V666.636H1316.63V705.841H1352.69V666.636H1379.94V767H1352.69V727.795H1316.63V767H1289.38ZM1490.11 716.818C1490.11 727.991 1487.93 737.417 1483.59 745.094C1479.24 752.739 1473.38 758.538 1466 762.491C1458.61 766.412 1450.38 768.372 1441.3 768.372C1432.15 768.372 1423.88 766.396 1416.5 762.442C1409.15 758.457 1403.3 752.641 1398.96 744.996C1394.64 737.319 1392.49 727.926 1392.49 716.818C1392.49 705.645 1394.64 696.236 1398.96 688.591C1403.3 680.913 1409.15 675.114 1416.5 671.194C1423.88 667.241 1432.15 665.264 1441.3 665.264C1450.38 665.264 1458.61 667.241 1466 671.194C1473.38 675.114 1479.24 680.913 1483.59 688.591C1487.93 696.236 1490.11 705.645 1490.11 716.818ZM1462.07 716.818C1462.07 710.807 1461.27 705.743 1459.67 701.626C1458.11 697.477 1455.77 694.341 1452.67 692.217C1449.59 690.061 1445.81 688.983 1441.3 688.983C1436.79 688.983 1432.98 690.061 1429.88 692.217C1426.81 694.341 1424.47 697.477 1422.87 701.626C1421.3 705.743 1420.52 710.807 1420.52 716.818C1420.52 722.83 1421.3 727.91 1422.87 732.059C1424.47 736.175 1426.81 739.312 1429.88 741.468C1432.98 743.592 1436.79 744.653 1441.3 744.653C1445.81 744.653 1449.59 743.592 1452.67 741.468C1455.77 739.312 1458.11 736.175 1459.67 732.059C1461.27 727.91 1462.07 722.83 1462.07 716.818Z" fill="#00B4ED"/>
<path d="M1205.91 1049.89L1113.17 957.144C1105.77 949.747 1100.84 941.146 1098.37 931.343C1095.97 921.539 1096 911.796 1098.46 902.113C1100.93 892.369 1105.83 883.889 1113.17 876.671C1120.69 869.274 1129.26 864.372 1138.88 861.966C1148.56 859.5 1158.22 859.5 1167.84 861.966C1177.52 864.432 1186.12 869.334 1193.64 876.671L1205.91 888.58L1218.18 876.671C1225.76 869.334 1234.36 864.432 1243.98 861.966C1253.61 859.5 1263.23 859.5 1272.85 861.966C1282.54 864.372 1291.14 869.274 1298.65 876.671C1305.99 883.889 1310.89 892.369 1313.36 902.113C1315.83 911.796 1315.83 921.539 1313.36 931.343C1310.95 941.146 1306.05 949.747 1298.65 957.144L1205.91 1049.89Z" fill="#00B4ED"/>
<defs>
<linearGradient id="paint0_linear_149_1367" x1="1553.74" y1="1226.98" x2="845.012" y2="847.244" gradientUnits="userSpaceOnUse">
<stop stop-color="white"/>
<stop offset="1" stop-color="#00B8EC"/>
</linearGradient>
</defs>
</svg>
