<svg width="1712" height="1553" viewBox="0 0 1712 1553" fill="none" xmlns="http://www.w3.org/2000/svg">
<g clip-path="url(#clip0_149_1393)">
<path style="mix-blend-mode:multiply" d="M1362.54 1588.84C1674.24 1277.14 1674.24 771.775 1362.54 460.074C1050.84 148.373 545.473 148.373 233.773 460.074C-77.9284 771.775 -77.9284 1277.14 233.773 1588.84C545.473 1900.54 1050.84 1900.54 1362.54 1588.84Z" fill="url(#paint0_radial_149_1393)"/>
<path d="M1642.27 714.96C1643.32 722.63 1644.31 730.34 1645.16 738.11C1645.21 729.43 1645.16 720.84 1642.27 714.96Z" fill="url(#paint1_linear_149_1393)"/>
<path d="M1366.44 251.78C1375.88 260.98 1385.32 270.19 1394.77 279.4C1386.25 262.75 1377.59 255.28 1366.44 251.78Z" fill="url(#paint2_linear_149_1393)"/>
<path d="M1613.72 879.58C1614.47 903.91 1613.92 928.24 1611.76 952.56C1616.71 929.34 1619.47 905.84 1613.72 879.58Z" fill="url(#paint3_linear_149_1393)"/>
<path d="M1341.9 1270.23C1359.99 1261.62 1372.88 1247.94 1383.65 1232.2C1383.12 1232.63 1382.56 1233.04 1382.02 1233.46C1368.7 1246.87 1354.13 1258.56 1341.9 1270.23Z" fill="url(#paint4_linear_149_1393)"/>
<path d="M1611.76 952.55C1605.61 981.39 1596.25 1009.85 1596.07 1042.81C1604.04 1012.74 1609.1 982.65 1611.76 952.55Z" fill="url(#paint5_linear_149_1393)"/>
<path d="M1473.8 279.8L1458.08 264.47C1460.7 267.66 1463.45 270.86 1466.17 274.06C1468.93 275.77 1471.55 277.61 1473.8 279.8Z" fill="url(#paint6_linear_149_1393)"/>
<path d="M1427.68 234.84C1442.26 249.05 1442.75 249.53 1458.08 264.47C1448.26 254.1 1438.08 244.3 1427.68 234.84Z" fill="url(#paint7_linear_149_1393)"/>
<path d="M1405.55 1194.31C1402.57 1199.99 1399.55 1205.64 1396.46 1211.22C1401.6 1207.87 1405.5 1202.97 1405.55 1194.31Z" fill="url(#paint8_linear_149_1393)"/>
<path d="M1704.14 682.29C1705.63 690.75 1707.1 699.21 1708.56 707.93C1708.61 697.92 1708.57 688.01 1704.14 682.29Z" fill="url(#paint9_linear_149_1393)"/>
<path d="M1426.63 233.82C1426.63 233.82 1426.63 233.86 1426.63 233.88C1426.98 234.2 1427.32 234.52 1427.67 234.84C1427.3 234.47 1427.02 234.2 1426.62 233.82H1426.63Z" fill="url(#paint10_linear_149_1393)"/>
<path d="M1493.31 375.47L1504.82 386.69C1499.62 381.62 1496.21 378.29 1493.31 375.47Z" fill="url(#paint11_linear_149_1393)"/>
<path d="M1373.68 1239.89C1376.7 1237.97 1379.25 1235.6 1382.02 1233.45C1382.92 1232.54 1383.8 1231.61 1384.69 1230.69C1388.87 1224.45 1392.75 1217.92 1396.46 1211.22C1383.51 1219.66 1362.49 1218 1373.68 1239.89Z" fill="url(#paint12_linear_149_1393)"/>
<path d="M1364.33 1302.15C1363.82 1302.85 1363.31 1303.55 1364.33 1302.15Z" fill="url(#paint13_linear_149_1393)"/>
<path d="M205.02 591.34C206.5 583.64 208.05 575.93 209.76 568.21C206.84 576.47 204.05 584.67 205.02 591.34Z" fill="url(#paint14_linear_149_1393)"/>
<path d="M330.28 1134.63C323.79 1122.37 317.3 1110.11 310.81 1097.85C313.9 1116.87 320.18 1127.18 330.28 1134.63Z" fill="url(#paint15_linear_149_1393)"/>
<path d="M288.38 444.97C295.68 421.5 304.3 398.52 314.53 376.14C301.84 396.45 291.27 417.83 288.38 444.97Z" fill="url(#paint16_linear_149_1393)"/>
<path d="M314.53 376.13C330.29 350.92 349.18 327.24 360.28 295.89C342.27 321.61 327.2 348.42 314.53 376.13Z" fill="url(#paint17_linear_149_1393)"/>
<path d="M231.09 1068.3L241.9 1088.71C240.31 1084.7 238.59 1080.64 236.9 1076.58C234.67 1073.93 232.64 1071.21 231.09 1068.29V1068.3Z" fill="url(#paint18_linear_149_1393)"/>
<path d="M262.8 1128.18C259.98 1122.86 257.97 1119.05 256.24 1115.78C258.48 1119.87 260.49 1124.14 262.8 1128.18Z" fill="url(#paint19_linear_149_1393)"/>
<path d="M256.23 1115.78C251.33 1106.84 246.35 1097.97 241.9 1088.71C249.47 1103.02 251.81 1107.43 256.23 1115.78Z" fill="url(#paint20_linear_149_1393)"/>
<path d="M131.7 599.64C133 591.03 134.31 582.42 135.73 573.56C132.36 583.08 129.12 592.55 131.7 599.64Z" fill="url(#paint21_linear_149_1393)"/>
<path d="M263.52 1129.54C263.52 1129.54 263.52 1129.5 263.53 1129.48C263.28 1129.05 263.04 1128.61 262.8 1128.18C263.06 1128.67 263.25 1129.03 263.52 1129.54Z" fill="url(#paint22_linear_149_1393)"/>
<path d="M243.07 969.91L235.16 954.96C238.73 961.71 241.08 966.15 243.07 969.91Z" fill="url(#paint23_linear_149_1393)"/>
<path d="M1692.9 677.35C1698.35 677.42 1701.81 679.26 1704.17 682.28C1690.03 601.92 1673.38 532.83 1630.88 463.67C1630.88 478.92 1646.35 509.34 1646.35 524.58C1616.52 422.2 1528.72 347.51 1466.18 274.07C1449.68 263.83 1426.55 259.93 1426.63 233.85C1237.33 62.45 956.55 40.57 731.46 169.25C842.54 93.6 969.15 63.77 1095.55 79.61C1032.35 64.07 953.32 63.63 890.12 63.33L906.03 48.16C896.6 48.97 887.47 50.07 878.33 51.4C901.09 41.6 923.41 31.51 944.77 20.39C904.41 32.76 863.6 46.76 823.31 62.74C776.24 75.33 732.79 94.85 692.2 119.31C659.57 128.96 623.92 153.41 602.41 172.34C597.11 174.55 591.88 176.69 581.27 180.96C686.16 88.61 796.64 31.16 933.94 0C759.67 33.81 601.82 123.01 481.61 258.83C533.46 163.22 638.87 120.28 733.44 56.94C600.64 100.99 489.19 185.47 404.63 294.85C391.96 324.53 379 355.25 350.57 374.33C367.07 346.63 385.19 320.04 404.63 294.85C411.11 279.75 417.52 264.94 425.84 252.13C363.08 337.65 309.9 440.47 270.72 548.89C285.08 508.08 298.64 466.91 298.12 420.51C294.68 430.183 291.243 439.857 287.81 449.53C287.96 447.98 288.18 446.51 288.4 444.96C268.07 510.15 258.05 579.09 252.97 649.87C243.03 631.09 246.56 617.31 251.2 603.98C246.49 617.31 241.7 630.64 237.06 643.9C242.14 629.46 236.47 594.55 241.63 580.04C215.41 603.1 252.9 649.79 226.83 672.85L226.76 672.92C223.37 682.57 219.98 692.29 216.52 701.94C231.91 658.41 215.41 603.09 230.81 559.63C225.73 574.07 220.57 588.58 215.42 603.09C208.57 600.58 205.77 596.39 205.04 591.3C180.51 719.76 189.64 846.15 245.99 975.35C248.64 980.43 251.37 985.59 256.74 995.75C240.31 940.43 223.82 885.12 228.38 821.18C239.21 857.49 256.89 896.38 267.93 932.77C267.93 932.77 268 932.84 268 932.92C273.75 951.92 277.65 970.26 277.87 987.21C276.84 985.3 275.95 983.6 275.07 981.98C266.97 966.59 266.01 964.82 256.21 946.33C277.94 1006.58 299.59 1066.83 334.51 1115.45C343.5 1127.97 353.29 1139.76 364.27 1150.51C349.76 1145.13 338.71 1140.86 330.24 1134.6C334.58 1142.78 338.93 1150.95 343.2 1159.05C331.34 1146.68 320.15 1134.01 309.61 1121.12C168.93 947.73 150.95 727.35 188.15 527.37C184.71 537.043 181.273 546.717 177.84 556.39C166.5 486.56 218.94 440.38 202.44 384.99C176.81 457.54 135.19 524.13 141.38 608.46C135.93 606.4 133.06 603.3 131.66 599.62C119.36 681.38 113.25 753.49 133.28 835.1C138.44 820.66 132.76 785.75 137.85 771.24C134.02 879.81 198.03 983.45 236.92 1076.55C250.18 1092.39 272.27 1104.61 263.51 1129.44C266.01 1133.78 268.59 1138.13 271.24 1142.4C329.21 1237.57 411.11 1313.73 506.43 1367.05C539.28 1385.46 573.68 1401.08 609.26 1413.9C610.59 1414.34 611.91 1414.86 613.24 1415.3C621.78 1418.32 630.4 1421.19 639.17 1423.84C736.25 1453.89 840.84 1462.8 944.4 1447.63C839 1471.57 733.23 1466.27 634.38 1434.52C604.55 1424.94 575.31 1413.01 546.95 1398.65C572.07 1415 600.94 1429.73 630.92 1443.14C670.92 1461.04 712.6 1476.51 749.07 1490.06L728 1498.6C908.53 1549.13 1071.98 1494.92 1224.67 1420.3C1198.45 1443.35 1177.38 1451.97 1151.16 1475.03C1172.52 1469.73 1191.75 1462.29 1209.2 1453.08C1194.47 1467.81 1180.18 1482.69 1166.77 1498.01C1229.3 1448.29 1291.69 1391.87 1345.31 1328.97C1344.06 1329.63 1342.8 1330.59 1341.55 1331.18C1359.15 1314.39 1367.11 1292.81 1378.75 1271.81C1388.18 1254.94 1399.96 1238.37 1421.18 1224.89C1412.41 1239.47 1403.06 1253.76 1393.12 1267.76C1378.24 1288.83 1362.18 1309.23 1345.32 1328.97C1368.08 1316.45 1390.62 1289.27 1406.9 1264.15C1412.5 1255.68 1417.29 1247.5 1421.12 1240.14C1425.1 1236.31 1429.08 1232.55 1437.03 1224.97C1430.4 1237.64 1423.55 1249.94 1416.48 1261.95C1356.23 1365.36 1281.98 1445.58 1182.47 1513.34C1282.94 1449.48 1367.86 1362.93 1431.65 1258.93C1458.68 1215.1 1481.81 1168.18 1500.81 1118.54C1492.85 1170.32 1470.09 1214.81 1441.37 1257.38C1411.02 1302.46 1374.05 1345.33 1341.27 1392.17C1389 1352.32 1430.03 1305.99 1464.5 1254.73C1504.5 1195.22 1535.43 1129.07 1557.38 1058.88C1559.52 1026.99 1561.5 993.91 1580.73 966.51C1574.62 997.89 1566.81 1028.75 1557.38 1058.88C1556.35 1075.16 1555.17 1091.07 1551.86 1105.87C1581.54 1002.38 1596.94 885.49 1597.6 768.37C1597.31 814.11 1597.08 859.85 1612.63 905.67C1612.68 895.503 1612.73 885.34 1612.78 875.18C1613.22 876.65 1613.44 878.13 1613.74 879.6C1611.68 811.98 1599.45 744.44 1582.29 676.75C1596.87 691.04 1597.83 705.18 1597.83 719.32C1597.9 705.18 1598.05 691.11 1598.13 676.97C1598.13 692.22 1613.6 722.64 1613.6 737.88C1629.51 707.46 1582.3 676.75 1598.28 646.4C1598.35 636.38 1598.35 626.44 1598.43 616.42C1598.43 661.72 1629.29 707.24 1629.29 752.61C1629.36 737.58 1629.44 722.56 1629.58 707.53C1636.36 707.53 1640.11 710.48 1642.32 714.97C1624.64 587.03 1578.02 472.49 1489.11 371.36C1485.21 367.53 1481.23 363.7 1473.42 356.04C1504.72 401.93 1536.1 447.82 1551.57 508.88C1520.27 462.99 1473.05 417.03 1457.51 371.22C1467.97 381.433 1478.45 391.647 1488.96 401.86C1441.89 340.65 1394.75 279.37 1331.7 248.58C1346.14 248.65 1357.11 248.87 1366.47 251.75C1360.21 245.64 1353.87 239.52 1347.61 233.41C1552.52 341.17 1646.21 555.14 1676.64 768.75C1676.69 758.583 1676.74 748.42 1676.79 738.26C1708.09 799.4 1676.13 860.24 1707.51 906.12C1707.95 829.88 1724.16 753.72 1692.93 677.34L1692.9 677.35ZM615.81 173.09C610.51 177.44 605.13 181.78 599.9 186.27C599.02 186.42 598.13 186.71 597.25 186.86C603.29 182.15 609.55 177.65 615.81 173.09ZM524.48 290.5C524.63 290.5 524.77 290.43 524.85 290.35C524.7 290.57 524.48 290.87 524.26 291.09C524.33 290.87 524.41 290.72 524.48 290.5ZM1451.38 1046.74C1451.6 1046.89 1451.75 1047.04 1451.89 1047.26C1451.3 1048.95 1450.71 1050.58 1450.12 1052.27C1449.97 1051.61 1449.75 1050.87 1449.6 1050.21C1450.26 1049.03 1450.78 1047.93 1451.37 1046.75L1451.38 1046.74ZM1432.01 892.28C1433.41 903.62 1434.37 914.97 1434.74 926.24C1432.24 914.6 1431.06 903.11 1432.01 892.28ZM1380.82 1182.93C1375.66 1197.44 1391.65 1203.33 1391.65 1203.33C1401.89 1174.31 1417.28 1130.78 1427.6 1101.83C1425.76 1106.99 1424.36 1112.8 1423.03 1118.99C1417.28 1132.91 1411.54 1147.35 1405.72 1163.85L1418.02 1152.14C1417.14 1158.84 1416.33 1165.62 1415.44 1172.18C1417.13 1167.02 1419.05 1161.94 1421.11 1156.93C1420.08 1169.82 1416.91 1181.31 1412.2 1191.62C1413.45 1185.51 1414.48 1178.95 1415.44 1172.17C1412.64 1180.35 1410.73 1188.96 1409.25 1197.73C1402.69 1210.03 1394.15 1220.86 1384.72 1230.66C1384.35 1231.18 1383.98 1231.69 1383.62 1232.21C1391.57 1225.8 1398.79 1218.73 1404.91 1210.78C1405.13 1210.34 1405.28 1209.97 1405.5 1209.6V1210.04C1406.38 1208.79 1407.12 1207.54 1408 1206.28C1407.93 1207.31 1407.63 1208.2 1407.56 1209.23C1408 1208.13 1408.22 1206.65 1408.59 1205.47C1414.48 1197.15 1419.79 1188.38 1424.35 1179.18H1421.48C1423.1 1178.37 1424.28 1177.41 1425.75 1176.53C1437.54 1152.08 1445.49 1125.71 1453.44 1103.09C1453.29 1132.04 1452.85 1160.76 1425.75 1176.53C1425.31 1177.41 1424.79 1178.3 1424.35 1179.18L1437.24 1179.25C1421.33 1194.42 1421.26 1209.67 1405.42 1224.84L1405.49 1210.04C1405.27 1210.26 1405.12 1210.55 1404.9 1210.78C1395.99 1233.17 1384.87 1254.09 1372.2 1273.76C1349.66 1308.9 1322.19 1340.27 1293.17 1370.1C1298.92 1359.57 1304.14 1348.52 1308.42 1336.51C1266.29 1353.74 1245.74 1411.71 1192.78 1408.47C1238.3 1368.4 1282.05 1333.12 1317.85 1290.84C1343.85 1260.13 1365.73 1225.65 1380.83 1182.93H1380.82Z" fill="url(#paint24_linear_149_1393)"/>
<g style="mix-blend-mode:multiply">
<path d="M907.607 614.37C919.597 603.1 904.857 592.47 902.857 583.92C901.467 577.95 898.857 572.73 895.537 567.7C886.297 553.66 923.097 547.84 943.567 572.74C954.547 586.09 958.297 592.31 994.497 584.11C988.887 577.33 982.547 571.15 975.607 565.74C1010.2 569.99 1036.78 535.79 1070.59 533C1101.97 533 1119.53 553.1 1121.35 560.92C1138.98 562.41 1157.31 571.71 1169.24 584.63C1173.87 589.64 1183.71 596.97 1186.04 598.84C1195.47 606.39 1184.79 609.92 1177.78 614.89C1179.14 615.64 1182.21 617.11 1185.74 617.77C1188.44 618.27 1187.83 618.05 1185.5 619.49C1178.98 623.51 1156.78 640.66 1137.85 644.71C1137.08 649.53 1126.49 663.14 1118.11 670.28C1112.56 675.01 1105.34 677.5 1099.9 681.98C1126.92 659.71 1109.61 650.44 1108.42 647.49C1103.46 647.57 1086.06 647.54 1085.94 647.54C1080.06 654.64 1051.28 667.52 1042.58 664.46C1038.84 663.14 1030.63 651.54 1028.59 648.48C1036.2 648.57 1043.81 647.01 1050.81 644.03C1042.69 642 1034.86 639.08 1027.08 635.98C1023.56 641.36 1013.86 645.54 1009.17 646.47C997.337 648.84 989.957 638.21 965.637 629.04C969.747 627.13 973.297 624.07 975.907 620.37C950.797 614.45 958.737 630.64 924.717 649.11C908.877 657.71 889.367 649.52 894.987 638.66C901.477 626.13 898.417 622.97 907.597 614.35L907.607 614.37Z" fill="#2D87F1"/>
</g>
<g style="mix-blend-mode:multiply">
<path d="M585.318 395.19C594.408 386.64 583.228 378.58 581.718 372.09C580.658 367.56 578.678 363.61 576.168 359.79C569.168 349.14 597.068 344.73 612.598 363.61C620.918 373.73 623.768 378.45 651.218 372.24C646.968 367.1 642.158 362.41 636.888 358.31C663.118 361.53 683.278 335.59 708.918 333.48C732.718 333.48 746.038 348.72 747.418 354.65C760.788 355.78 774.688 362.83 783.738 372.63C787.248 376.43 794.708 381.99 796.478 383.41C803.628 389.13 795.528 391.81 790.218 395.58C791.248 396.15 793.578 397.26 796.248 397.76C798.298 398.14 797.838 397.97 796.068 399.07C791.128 402.12 774.288 415.12 759.928 418.2C759.348 421.86 751.318 432.18 744.958 437.59C740.748 441.18 735.268 443.07 731.148 446.47C751.638 429.58 738.518 422.55 737.608 420.31C733.848 420.37 720.648 420.35 720.558 420.35C716.098 425.73 694.268 435.5 687.678 433.18C684.838 432.18 678.618 423.39 677.068 421.06C682.838 421.13 688.608 419.95 693.918 417.69C687.758 416.15 681.818 413.94 675.918 411.59C673.248 415.67 665.898 418.84 662.338 419.55C653.368 421.35 647.768 413.28 629.328 406.33C632.448 404.88 635.138 402.56 637.118 399.75C618.068 395.26 624.098 407.54 598.298 421.55C586.288 428.07 571.488 421.86 575.748 413.63C580.668 404.13 578.348 401.73 585.308 395.2L585.318 395.19Z" fill="#2D87F1"/>
</g>
<path d="M1423.43 649.69C1439.7 649.69 1452.89 662.88 1452.89 679.15C1452.89 695.42 1439.7 708.61 1423.43 708.61C1407.16 708.61 1393.97 695.42 1393.97 679.15C1393.97 662.88 1407.16 649.69 1423.43 649.69ZM1423.43 642.32C1403.12 642.32 1386.6 658.84 1386.6 679.15C1386.6 699.46 1403.12 715.98 1423.43 715.98C1443.74 715.98 1460.26 699.46 1460.26 679.15C1460.26 658.84 1443.74 642.32 1423.43 642.32Z" fill="white"/>
<path d="M1355.77 597.31C1359.99 597.31 1363.41 600.73 1363.41 604.95C1363.41 609.17 1359.99 612.59 1355.77 612.59C1351.55 612.59 1348.13 609.17 1348.13 604.95C1348.13 600.73 1351.55 597.31 1355.77 597.31ZM1355.77 589.94C1347.5 589.94 1340.77 596.67 1340.77 604.94C1340.77 613.21 1347.5 619.94 1355.77 619.94C1364.04 619.94 1370.77 613.21 1370.77 604.94C1370.77 596.67 1364.04 589.94 1355.77 589.94Z" fill="white"/>
<path d="M1431.06 501.29C1437.09 501.29 1441.97 506.17 1441.97 512.2C1441.97 518.23 1437.09 523.11 1431.06 523.11C1425.03 523.11 1420.15 518.23 1420.15 512.2C1420.15 506.17 1425.04 501.29 1431.06 501.29ZM1431.06 493.92C1420.98 493.92 1412.78 502.12 1412.78 512.2C1412.78 522.28 1420.98 530.48 1431.06 530.48C1441.14 530.48 1449.34 522.28 1449.34 512.2C1449.34 502.12 1441.14 493.92 1431.06 493.92Z" fill="white"/>
<g style="mix-blend-mode:multiply">
<path d="M908.94 751.57C908.88 748.08 908.82 746.15 908.82 746.15H906.83C906.83 746.15 906.77 748.08 906.64 751.51C906.58 753.25 906.45 755.37 906.33 757.74C906.14 760.11 906.08 762.85 905.77 765.77C905.46 768.63 905.33 771.87 904.77 775.17C904.27 778.47 903.96 782.02 903.09 785.51C902.72 787.32 902.34 789.12 901.97 790.93C901.47 792.74 900.91 794.54 900.41 796.35C899.48 800.09 897.79 803.32 896.49 806.81C895.68 808.49 894.56 810.17 893.63 811.85L892.14 814.4C891.89 814.9 891.14 815.77 890.65 816.46C888.41 819.32 885.85 822 883.3 824.43C878.13 829.35 872.78 833.4 867.98 836.45C863.31 839.44 859.14 841.31 856.34 842.3C857.02 838.94 857.71 835.57 858.33 832.21C859.82 824.24 861.63 816.45 862.44 808.3C863.31 800.33 863.56 792.36 863.19 784.76C862.5 769.44 859.52 755.37 855.84 743.78C852.17 732.2 847.81 722.98 844.63 716.69C841.39 710.4 839.52 706.85 839.52 706.85L837.71 707.72C837.71 707.72 839.45 711.33 842.57 717.68C845.5 724.03 849.48 733.19 852.78 744.71C856.08 756.17 858.63 769.99 858.82 784.88C858.94 792.29 858.51 799.95 857.39 807.67C856.46 815.27 854.4 823.18 852.72 830.96C845.93 860.6 839.02 890.12 834.1 913.28C833.66 908.17 833.23 903.13 832.67 898.15C830.06 874.55 825.63 852.13 820.78 831.02C815.86 809.97 810.5 790.29 805.15 772.24C804.22 769.06 803.28 765.95 802.35 762.84C803.28 762.22 804.16 761.47 805.03 760.6C808.14 757.3 811.01 752.5 813.25 746.21C813.75 744.59 814.31 742.97 814.68 740.98C814.8 739.24 814.99 737.43 815.18 735.63C815.24 734.76 815.37 733.89 815.43 732.95V730.02C815.43 728.09 815.43 726.03 815.37 724.1C815.18 720.24 814.93 716.32 814.75 712.33C814.5 708.41 814.44 704.24 814.25 700.19C813.94 692.03 813.5 683.94 813.63 676.34C813.57 672.54 813.82 668.93 814 665.5C814.12 662.01 814.81 658.84 815.12 655.85C815.43 652.8 816.3 650.18 816.74 647.82C817.18 645.39 817.99 643.4 818.55 641.72C819.67 638.42 820.36 636.49 820.36 636.49L818.49 635.68C818.49 635.68 817.74 637.61 816.37 640.91C815.68 642.59 814.75 644.65 814.13 647.08C813.51 649.51 812.51 652.19 811.95 655.24C811.45 658.29 810.58 661.59 810.27 665.14C809.83 668.63 809.4 672.36 809.21 676.22C808.65 683.94 808.65 692.1 808.46 700.19C808.4 704.3 808.34 708.41 808.21 712.4C808.21 716.39 808.21 720.37 808.15 724.17C808.09 725.98 808.03 727.72 807.9 729.46C807.9 730.33 807.84 731.14 807.78 732.01C807.66 732.88 807.53 733.75 807.41 734.63C807.16 736.25 806.91 737.87 806.66 739.36C806.41 740.61 805.85 741.98 805.35 743.22C803.54 747.64 801.24 751.07 799.37 753.06C791.03 725.6 783.49 702.68 777.95 685.68C771.22 664.88 767.36 652.93 767.36 652.93L762.63 654.42C762.63 654.42 766.18 666.44 772.47 687.36C778.7 708.35 787.79 738.3 797.5 774.42C802.36 792.48 807.28 812.16 811.64 833.08C815.94 854 819.74 876.17 821.79 899.28C823.78 922.38 824.28 946.3 821.98 970.4C819.55 994.37 814.63 1018.54 806.66 1041.64C798.69 1064.74 787.98 1086.85 775.4 1107.4C772.41 1112.63 768.92 1117.43 765.75 1122.41C762.57 1127.39 758.71 1132.31 755.29 1137.17C754.48 1138.35 753.42 1139.79 752.74 1140.66L750 1144.09C748.13 1146.33 746.33 1148.57 744.52 1150.81C740.97 1155.42 736.98 1159.59 733.12 1163.83C717.55 1180.64 701.05 1195.78 685.11 1210.16C678.32 1216.32 671.66 1222.24 665.18 1228.28C667.11 1224.36 668.98 1220.37 670.97 1216.32C673.15 1211.59 675.58 1206.98 677.63 1201.94C685.23 1184.07 693.26 1165.26 701.17 1146.14C701.61 1145.7 702.04 1145.21 702.48 1144.71C703.35 1143.65 704.35 1142.47 705.47 1141.22C709.89 1135.99 716.12 1128.52 723.47 1119.49C730.76 1110.46 739.29 1099.94 748.44 1088.67C752.99 1082.94 757.66 1077.09 762.39 1071.17C764.76 1068.12 767.18 1065.13 769.55 1062.08L771.36 1059.78C771.92 1059.03 772.79 1057.91 773.35 1057.04L776.34 1052.06C780.39 1045.46 784.37 1038.55 787.74 1031.57C791.23 1024.6 793.91 1017.31 796.08 1010.21C797.08 1006.6 797.89 1002.99 798.57 999.5C799.01 995.89 799.75 992.53 799.88 989.04C800.25 982.38 800.81 976.15 800.75 970.23C800.88 964.31 800.81 958.96 800.69 954.29C800.57 949.56 800.5 945.45 800.38 942.02C800.26 935.29 800.13 931.43 800.13 931.43H797.14C797.14 931.43 797.08 935.29 796.95 942.08C796.83 945.44 796.76 949.55 796.64 954.22C796.58 958.95 796.33 964.25 795.95 969.91C795.83 975.64 794.95 981.93 794.27 988.53C793.96 991.64 793.15 994.94 792.59 998.24C791.78 1001.54 790.85 1004.9 789.79 1008.2C787.42 1014.86 784.62 1021.59 780.95 1028.06C777.4 1034.6 773.35 1040.95 768.99 1047.36L765.75 1052.15C765.25 1052.9 764.88 1053.27 764.26 1054.02L762.39 1056.2C759.9 1059.13 757.41 1061.99 754.92 1064.86C749.88 1070.59 744.96 1076.26 740.16 1081.67C732.13 1090.7 724.59 1099.23 717.8 1106.83C722.6 1095.93 727.51 1084.91 732.37 1073.76C734.8 1068.09 737.41 1062.74 739.66 1056.76C741.96 1050.84 744.21 1044.93 746.45 1039.01C748.38 1033.03 750.37 1026.99 752.3 1021.01C754.29 1014.97 755.66 1008.8 757.41 1002.7C763.64 978.16 767.56 953.07 768.87 928.22C770.24 903.37 768.99 878.84 765.82 855.42C760.47 815.82 749.63 779.88 738.42 748.62L739.17 748.87C739.17 748.87 739.36 748.18 739.73 747C739.92 746.32 740.17 745.75 740.42 744.63C740.61 743.57 740.86 742.39 741.17 741.02C741.54 738.4 741.85 735.35 741.92 731.87C741.98 728.38 741.86 724.46 741.42 720.29C739.86 703.6 734.51 682.49 729.28 661.57C726.66 651.05 724.11 640.58 722.12 630.68C720.13 620.84 718.69 611.5 718.2 603.53C717.95 599.54 717.83 595.87 718.01 592.63C718.07 591.01 718.13 589.45 718.32 588.08C718.44 586.71 718.57 585.4 718.82 584.28C719.01 583.1 719.13 582.1 719.32 581.23C719.57 580.36 719.76 579.61 719.88 578.99C720.19 577.81 720.38 577.18 720.38 577.18L718.45 576.56C718.45 576.56 718.26 577.18 717.89 578.43C717.7 579.05 717.45 579.8 717.21 580.73C717.02 581.6 716.77 582.66 716.53 583.84C716.22 585.02 716.03 586.33 715.85 587.76C715.6 589.19 715.48 590.75 715.35 592.43C715.04 595.79 714.98 599.53 715.04 603.64C715.23 611.86 716.22 621.39 717.84 631.48C719.33 641.57 721.45 652.22 723.63 662.8C727.93 683.97 732.29 705.21 733.03 720.9C733.28 724.82 733.22 728.37 733.09 731.49C733.03 732.18 732.9 732.8 732.84 733.42C732.65 732.86 732.47 732.24 732.22 731.68C725.56 714.31 719.39 698.36 713.97 684.23C708.68 670.09 704.5 657.7 702.01 647.3C699.52 636.9 698.59 628.62 698.59 622.95C698.46 620.15 698.9 618.09 698.9 616.6C699.02 615.17 699.09 614.42 699.09 614.42L694.17 613.67C694.17 613.67 694.04 614.48 693.92 616.04C693.86 617.6 693.36 619.9 693.36 622.95C693.23 628.99 693.98 637.77 696.35 648.61C700.96 670.28 712.42 699.42 724.75 734.42C737.08 769.42 749.85 811.02 754.89 856.79C755.39 861.21 755.76 865.76 756.14 870.3C753.28 865.07 750.04 859.71 746.43 854.36C739.89 844.65 732.23 834.87 724.7 825.15C722.89 822.78 721.03 820.35 719.16 817.99C717.35 815.5 715.49 813.07 713.68 810.7C711.81 808.27 710.25 805.84 708.57 803.48C706.83 801.11 705.27 798.75 703.78 796.32C700.67 791.52 697.99 786.79 695.44 782.25C694.19 779.95 693.14 777.64 692.02 775.46C690.9 773.28 689.84 771.16 689.03 769.05C687.22 764.88 685.54 761.08 684.3 757.59C682.99 754.1 681.81 751.11 681.06 748.56C679.44 743.45 678.51 740.53 678.51 740.53L675.58 741.28C675.58 741.28 676.33 744.27 677.57 749.56C678.13 752.24 679.06 755.35 680.18 758.96C681.11 762.63 682.61 766.62 684.23 771.04C685.04 773.22 685.97 775.46 686.97 777.77C688.03 780.07 688.96 782.5 690.15 784.93C692.52 789.73 695.01 794.77 697.93 799.81C699.3 802.36 700.86 804.92 702.48 807.47C704.1 810.02 705.66 812.76 707.34 815.19C709.02 817.68 710.76 820.23 712.45 822.79C714.26 825.28 716.06 827.83 717.87 830.32C725.16 840.22 732.32 850.12 738.3 859.65C744.34 869.24 749.13 878.52 752.25 886.68C755.05 894.03 756.55 900.32 757.23 905.11C757.11 912.46 756.79 919.93 756.23 927.34C754.36 951.31 750.06 975.48 743.46 998.95C741.65 1004.8 740.22 1010.72 738.17 1016.45C736.12 1022.18 734.12 1027.97 732.07 1033.7C729.83 1039.24 727.52 1044.85 725.28 1050.39C723.04 1055.93 720.17 1061.47 717.62 1067.02C712.45 1078.1 707.28 1089.13 702.18 1099.96C699.63 1105.44 697.07 1110.86 694.52 1116.28C692.15 1121.7 689.79 1127.05 687.42 1132.41C678.02 1153.89 668.8 1174.07 660.08 1193.25C658.03 1198.05 655.47 1202.72 653.17 1207.39C650.8 1212 648.44 1216.54 646.2 1221.03C643.9 1225.51 641.65 1229.87 639.48 1234.23L637.99 1237.16L636.25 1240.34C635.07 1242.39 633.95 1244.51 632.82 1246.57C626.41 1258.22 620.8 1269.42 615.82 1280.07C615.07 1281.07 614.33 1282.06 613.58 1283.06C620.8 1285.61 628.09 1288.04 635.5 1290.28C641.29 1282.56 648.02 1274.65 655.68 1266.62C658.92 1263.2 662.22 1259.77 665.58 1256.22C669 1252.92 672.49 1249.49 675.98 1246.01C683.08 1239.1 690.74 1231.94 698.52 1224.53C714.09 1209.77 730.78 1193.83 746.59 1175.83C750.51 1171.28 754.56 1166.8 758.24 1161.88C760.11 1159.45 761.98 1157.02 763.91 1154.59L766.71 1150.92C767.83 1149.36 768.52 1148.37 769.39 1147.06C772.75 1141.95 776.3 1137.22 779.6 1131.8C782.9 1126.44 786.51 1121.21 789.44 1115.67C802.08 1093.94 812.73 1070.52 820.51 1046.17C828.29 1021.76 832.84 996.41 834.77 971.44C835.08 967.08 835.14 962.78 835.33 958.49H835.46C835.46 958.49 836.02 954.5 836.95 947.53C837.39 944.04 838.07 939.87 838.88 935.08C839.63 930.28 840.5 924.87 841.62 918.95C844.86 900.39 849.53 877.1 854.39 852.69C854.58 852.63 854.83 852.57 855.2 852.44C855.64 852.32 856.13 852.25 856.88 852C857.69 851.69 858.56 851.38 859.56 851C863.17 849.51 867.84 847.01 872.82 843.4C877.86 839.73 883.28 835.12 888.51 829.51C891.12 826.65 893.68 823.66 896.04 820.23C896.6 819.3 897.1 818.74 897.78 817.43L899.09 814.81C899.96 813 900.96 811.38 901.71 809.45C903.02 805.47 904.7 801.54 905.45 797.68L906.76 791.89C907.01 790.02 907.32 788.09 907.57 786.22C908.19 782.55 908.32 778.87 908.63 775.51C909 772.08 908.94 768.85 909.07 765.86C909.2 762.87 909.07 760.19 909.13 757.76C909.13 755.33 909.07 753.28 909.07 751.53L908.94 751.57ZM610.03 1281.2C611.77 1274.35 613.7 1267.25 615.88 1259.84C625.22 1227.33 638.05 1189.85 653.24 1150.18C660.9 1130.32 669.12 1109.95 677.9 1089.4L679.52 1085.6L680.39 1083.67L680.89 1082.42L681.33 1081.42L687.43 1065.6C688.43 1062.92 689.3 1060.06 690.17 1057.32C691.98 1051.72 693.97 1046.11 695.28 1040.51C696.71 1034.84 698.46 1029.3 699.51 1023.57C704.55 1000.84 707.36 977.74 708.29 955.01C709.16 932.22 708.17 909.86 705.99 888.38C701.51 845.41 692.1 806.18 682.02 773.36C671.93 740.48 661.1 713.95 653.06 695.58C649.08 686.43 645.71 679.33 643.41 674.47C642.29 672.1 641.42 670.24 640.79 668.99C640.6 668.55 640.42 668.18 640.29 667.93C640.23 667.74 640.17 667.68 640.17 667.68L635.25 668.49C635.25 668.49 635.37 668.74 635.5 669.24C635.62 669.49 635.69 669.8 635.81 670.17C635.93 670.42 636.06 670.73 636.18 671.04C636.74 672.29 637.61 674.22 638.67 676.64C640.85 681.5 643.96 688.66 647.76 697.87C655.17 716.24 665.26 742.83 674.35 775.59C681.7 801.87 688.42 832.26 692.47 865.08C691.66 863.09 690.91 861.03 689.98 858.98C687.05 852.69 683.69 846.34 679.64 840.24C675.53 834.14 670.8 828.35 665.32 823.18C662.64 820.69 659.47 818.2 656.79 816.14C654.05 813.96 651.56 811.72 649.13 809.23C644.33 804.37 640.29 798.89 637.05 793.16C630.45 781.76 627.21 769.56 625.4 759.03C623.72 748.51 623.47 739.48 623.41 733.25C623.35 726.96 623.53 723.35 623.53 723.35L621.54 723.29C621.54 723.29 621.23 726.84 621.04 733.19C620.85 739.54 620.73 748.63 622.1 759.53C623.47 770.37 626.33 783.13 632.81 795.46C636.05 801.63 640.1 807.66 645.01 813.08C647.44 815.82 650.18 818.43 652.98 820.8C655.91 823.29 658.4 825.28 660.89 827.77C665.81 832.69 670.11 838.17 673.78 844.02C677.45 849.81 680.44 855.91 683 862.02C688.11 874.16 691.28 886.18 693.34 896.58C694.71 903.37 695.58 909.35 696.2 914.51C696.57 927.59 696.45 940.91 695.58 954.3C694.09 976.34 690.78 998.58 685.37 1020.25C684.25 1025.67 682.38 1030.96 680.95 1036.32C679.52 1041.74 677.52 1046.84 675.72 1052.01C674.79 1054.63 673.98 1057.18 672.98 1059.73L669.68 1067.58L666.44 1075.36L663.02 1082.77C653.62 1103.32 644.84 1123.62 636.55 1143.42C626.96 1166.52 618.3 1188.88 610.58 1210.11C610.71 1208.43 610.77 1206.81 610.89 1205.13C611.51 1196.85 612.76 1188.5 613.69 1179.91C614 1175.55 615.06 1171.38 615.81 1167.08C616.62 1162.78 617.43 1158.49 618.3 1154.13L618.92 1150.89C619.04 1150.14 619.42 1148.77 619.67 1147.71C620.23 1145.53 620.85 1143.29 621.41 1141.11C622.53 1136.63 623.9 1132.58 625.15 1128.22C630.57 1110.97 637.48 1093.53 644.02 1075.79C650.5 1057.98 656.79 1039.8 660.4 1021.05C664.07 1002.31 665.13 983.19 662.89 965.07C662.58 963.14 662.45 961.33 662.14 959.34L663.07 959.9C663.07 959.9 663.63 958.78 664.69 956.79C665.19 955.98 665.81 954.3 666.56 952.56C666.87 951.63 667.31 950.69 667.62 949.69C667.87 948.76 668.12 947.76 668.43 946.7C669.05 944.65 669.3 942.4 669.74 939.98C670.05 937.61 670.24 935.12 670.36 932.57C670.36 930.02 670.42 927.4 670.17 924.72C670.11 922.11 669.67 919.43 669.36 916.81C668.92 914.19 668.55 911.58 667.93 909.09C667.37 906.54 666.68 904.05 666 901.74C665.38 899.37 664.57 897.13 663.88 895.01C663.01 892.89 662.39 890.9 661.58 889.09C660.77 887.35 660.15 885.67 659.4 884.29C658.72 882.86 658.15 881.61 657.59 880.62C656.47 878.63 655.85 877.51 655.85 877.51L653.17 878.82C653.17 878.82 653.61 879.94 654.42 882C654.79 883.06 655.17 884.3 655.66 885.74C656.16 887.17 656.53 888.85 657.03 890.66C657.59 892.47 657.9 894.46 658.4 896.51C658.84 898.63 659.27 900.81 659.58 903.11C659.89 905.41 660.2 907.78 660.33 910.21C660.64 912.64 660.58 915.07 660.7 917.5C660.64 919.93 660.7 922.36 660.45 924.72C660.26 927.09 659.95 929.33 659.58 931.51C659.21 933.69 658.71 935.74 658.21 937.67C658.15 937.86 658.08 938.04 658.02 938.23C656.09 930.2 653.85 922.23 651.85 914.57C649.23 906.85 646.68 899.31 644.25 892.03C641.32 884.93 638.58 878.02 635.91 871.42C629.99 858.47 624.51 846.64 618.85 836.55C613.62 826.27 608.02 817.87 603.84 810.71C599.48 803.67 595.56 798.44 593.13 794.71C590.64 791.04 589.33 789.11 589.33 789.11L585.22 791.97C585.22 791.97 586.53 793.96 588.83 797.64C591.13 801.38 594.81 806.67 598.86 813.77C602.78 820.93 608.08 829.34 612.87 839.68C618.16 849.77 623.21 861.6 628.56 874.49C630.99 881.03 633.48 887.88 636.1 894.92C638.28 902.14 640.52 909.55 642.83 917.21C644.57 924.93 646.57 932.78 648.25 940.94C648.93 945.11 649.62 949.35 650.3 953.64C650.61 955.76 650.99 957.94 651.3 960.12C651.67 961.86 651.74 964.23 651.92 966.29C653.48 983.23 651.98 1000.91 647.93 1018.41C646.62 1024.2 644.94 1029.99 643.13 1035.78C642.76 1031.48 642.26 1027 641.45 1022.27C640.64 1016.48 639.46 1010.38 638.09 1004.21C635.35 991.82 631.49 978.87 627.44 966.16C625.39 959.68 623.21 953.52 620.9 947.23C618.53 941.07 616.23 935.03 614.05 929.23C611.81 923.38 609.69 917.77 607.89 912.42C605.96 907 604.59 902.08 603.03 897.1C601.41 892.24 599.73 888.01 598.42 884.21C596.99 880.41 595.93 877.11 595.18 874.37C594.43 871.63 594.06 869.45 593.81 867.96C593.69 866.47 593.56 865.72 593.56 865.72L590.57 865.84C590.57 865.84 590.63 866.71 590.76 868.33C590.88 869.95 591.2 872.25 591.82 875.18C592.44 878.11 593.38 881.59 594.56 885.52C595.74 889.38 597.18 893.74 598.42 898.47C599.66 903.08 600.85 908.62 602.47 914.1C604.03 919.64 605.9 925.43 607.76 931.41C609.69 937.33 611.68 943.43 613.68 949.66C615.55 955.76 617.42 962.24 619.04 968.59C622.47 981.42 625.45 994.18 627.51 1006.26C628.51 1012.3 629.32 1018.15 629.81 1023.7C630.37 1029.3 630.68 1034.54 630.87 1039.39C630.99 1044.25 630.99 1048.67 630.87 1052.65C630.87 1056.57 630.56 1059.94 630.43 1062.74C629.99 1068.53 629.68 1071.83 629.68 1071.83H629.99C623.14 1088.77 615.79 1105.71 609.69 1123.14C608.26 1127.69 606.58 1132.29 605.27 1136.72C604.65 1138.9 603.96 1141.08 603.34 1143.32C603.03 1144.44 602.72 1145.31 602.34 1146.74L601.59 1150.17C600.59 1154.72 599.53 1159.2 598.54 1163.68C597.61 1168.23 596.42 1172.65 595.86 1177.13C594.62 1186.03 593.06 1194.75 592.12 1203.35C591.5 1210.14 590.94 1216.68 590.38 1223.22C586.21 1207.9 581.54 1192.08 576.93 1175.83C572.63 1160.39 568.52 1144.57 565.53 1128.25C565.53 1127.81 565.53 1127.38 565.59 1126.94C565.72 1125.63 565.72 1124.26 565.9 1122.58C566.15 1120.9 566.34 1119.03 566.58 1117.1C567.26 1113.18 568.01 1108.69 569.2 1103.84C570.32 1098.92 571.69 1093.63 573.31 1088.08C574.87 1082.48 576.67 1076.56 578.6 1070.46C582.4 1058.25 586.82 1045.24 590.49 1031.85C592.3 1025.13 593.98 1018.21 594.79 1011.24C595.16 1007.88 595.66 1004.64 595.91 1001.28C596.1 997.85 596.28 994.55 596.47 991.25C596.59 984.71 596.66 978.42 596.28 972.51C596.16 966.53 595.6 960.99 595.22 955.82C593.29 935.33 591.98 921.7 591.98 921.7L588.99 921.89C588.99 921.89 589.55 935.59 590.48 956.08C590.54 961.25 590.79 966.79 590.67 972.58C590.67 978.43 590.3 984.54 589.92 990.83C589.55 993.94 589.17 997.12 588.86 1000.3C588.42 1003.54 587.74 1006.84 587.18 1010.14C586.12 1016.55 584.25 1022.91 582.14 1029.38C577.91 1042.15 572.86 1054.91 568.38 1066.99C566.14 1073.03 563.96 1078.88 562.09 1084.55C561.47 1086.29 560.97 1087.91 560.41 1089.59C559.79 1082.18 559.29 1074.65 558.98 1067.11C557.61 1029.37 560.04 991.26 561.6 955.33C562.41 937.4 562.97 919.96 562.97 903.46V891.19C562.85 887.21 562.78 883.28 562.6 879.3C562.29 871.52 561.79 863.98 561.04 856.76C559.55 842.25 557.18 829.05 554 817.65C552.69 812.98 551.2 808.75 549.7 804.7C552.07 793.12 554.25 781.97 556.36 771.26L556.86 771.57C556.86 771.57 557.67 770.26 559.1 767.83C559.79 766.65 560.66 765.22 561.65 763.6C562.65 762.04 563.58 759.86 564.7 757.68C565.82 755.5 567 753.07 568.25 750.58C569.31 748.03 570.49 745.41 571.67 742.67C574.16 737.19 576.28 731.21 578.71 725.36C583.13 713.53 587.55 701.7 590.85 692.79C592.47 688.37 593.96 684.7 594.96 682.14C595.96 679.59 596.58 678.15 596.58 678.15L594.77 677.28C594.77 677.28 594.02 678.71 592.84 681.2C591.59 683.69 589.85 687.24 587.92 691.54C583.93 700.13 578.64 711.59 573.35 723.05C570.55 728.65 568 734.45 565.13 739.55C563.82 742.04 562.58 744.47 561.39 746.77C563.51 736.37 565.5 726.59 567.37 717.63C570.05 703.99 572.91 692.22 575.22 682.51C579.83 663.08 582.44 651.93 582.44 651.93L577.64 650.62C577.64 650.62 574.71 661.7 569.61 681.07C566.99 690.78 563.82 702.55 560.77 716.13C557.59 729.77 554.05 745.09 550.18 761.78C549.87 763.03 549.56 764.4 549.25 765.64C549 766.01 548.81 766.26 548.81 766.26L549.06 766.45C548.62 768.57 548.13 770.68 547.63 772.86C546.26 767.94 544.52 762.65 542.34 757.11C539.97 750.7 537.17 744.09 534.74 737.43C533.43 734.07 532.56 730.83 531.56 727.4C530.69 723.97 529.5 720.61 528.94 717.37C528.26 714.13 527.57 711.02 526.95 708.03C526.51 704.98 526.08 702.11 525.7 699.5C525.33 696.82 524.95 694.39 524.89 692.21C524.77 690.03 524.64 688.16 524.52 686.61C524.33 683.5 524.21 681.69 524.21 681.69H522.22V692.4C522.16 694.58 522.28 697.07 522.53 699.81C522.72 702.49 522.97 705.48 523.21 708.59C523.65 711.64 524.14 714.94 524.64 718.3C525.08 721.79 525.95 725.09 526.63 728.57C527.31 732 528.12 735.73 529.18 739.22C531.23 746.26 533.6 752.98 535.53 759.4C537.52 765.81 539.08 771.73 540.08 776.84C540.52 779.39 540.83 781.7 541.08 783.69C541.14 784.81 541.2 785.81 541.2 786.74C540.64 785.74 540.02 784.62 539.46 783.69C538.4 782.07 537.53 780.51 536.53 779.21C534.47 776.53 532.86 774.17 531.36 772.42C528.25 769 526.56 767.19 526.56 767.19L523.01 770.68C523.01 770.68 524.51 772.42 527.31 775.72C528.74 777.4 530.18 779.71 531.98 782.26C532.91 783.51 533.66 785.06 534.6 786.62C535.53 788.18 536.53 789.8 537.4 791.66C538.71 794.27 540.08 797.33 541.32 800.5C540.2 805.48 538.95 810.53 537.71 815.69C533.1 834.87 528.18 854.8 523.39 876.03C518.97 897.2 515.73 919.43 513.8 942.1C513.12 949.51 512.74 956.98 512.37 964.46C511.93 963.15 511.56 961.91 511.12 960.6C509.75 955.93 508.13 951.2 507.07 946.4C506.57 944.03 505.82 941.6 505.45 939.3C505.01 936.81 504.52 934.38 504.08 931.95C503.46 927.15 502.77 922.48 502.52 917.81C502.02 913.2 502.02 908.72 501.9 904.42C502.02 900.19 501.9 896.14 502.21 892.4C502.52 888.66 502.65 885.24 503.14 882.25C503.51 879.26 503.76 876.58 504.2 874.47C505.01 870.17 505.45 867.74 505.45 867.74L502.52 866.99C502.52 866.99 501.9 869.42 500.78 873.78C500.16 875.9 499.72 878.58 499.1 881.63C498.48 884.68 498.04 888.17 497.48 891.97C496.86 895.77 496.67 899.88 496.23 904.24C496.11 908.66 495.73 913.27 495.92 918.13C495.86 922.86 496.23 927.91 496.54 933.01C496.79 935.5 497.1 937.99 497.35 940.48C497.6 943.16 498.16 945.59 498.6 948.2C499.35 953.37 500.66 958.23 501.71 963.21C502.96 968.01 504.14 972.8 505.26 977.41C506.44 981.96 507.56 986.38 508.5 990.49C509.5 994.66 510.18 998.52 510.87 1002.14C511.62 1005.81 511.8 1008.87 512.18 1011.67C512.3 1012.73 512.37 1013.72 512.49 1014.66C512.55 1015.53 512.61 1016.4 512.61 1017.28C512.61 1017.96 512.67 1018.65 512.67 1019.27C512.73 1023.69 512.79 1026.18 512.79 1026.18H513.1C515.78 1067.34 522.75 1107.94 531.47 1145.43C538.69 1176.94 546.98 1206.33 554.45 1232.92C547.1 1220.9 539.07 1208.95 530.73 1196.62C527.18 1191.26 523.51 1185.85 519.83 1180.37C515.84 1170.34 511.92 1160.07 508.12 1149.48C504.2 1138.52 500.27 1126.88 496.23 1115.29C492.49 1103.58 488.63 1091.75 484.77 1079.73C481.22 1067.65 477.55 1055.44 474.06 1043.05C470.88 1030.6 467.27 1018.08 464.35 1005.44C462.92 999.09 461.49 992.74 460.05 986.39L457.87 976.8L457.75 976.24H458.37C458.37 976.24 458.31 973.06 458.18 967.46C458.12 964.66 458.06 961.23 457.99 957.31C457.87 953.39 457.93 949.09 457.93 944.29C457.99 939.56 457.8 934.39 458.05 928.97C458.24 923.49 458.42 917.76 458.67 911.78C458.98 905.86 459.54 899.76 460.04 893.53C460.48 887.3 461.22 880.89 461.85 874.54C462.47 868.13 463.28 861.84 463.97 855.61C464.53 849.32 465.78 843.34 466.65 837.43C466.9 836 467.09 834.5 467.33 833.07C467.64 831.64 468.02 830.27 468.33 828.9C469.01 826.1 469.64 823.42 470.32 820.74C471.44 815.51 473 810.4 474.12 805.67C475.24 801 476.3 796.76 477.48 793.15C478.6 789.48 479.85 786.42 481.09 784.06C481.78 782.88 482.34 781.88 482.83 780.95C483.45 780.14 484.01 779.46 484.45 778.89C485.32 777.77 485.82 777.21 485.82 777.21L483.7 775.03C483.7 775.03 483.14 775.65 482.08 776.84C481.58 777.46 480.9 778.15 480.15 779.08C479.53 780.01 478.84 781.14 478.03 782.38C476.54 784.87 475.04 788.05 473.61 791.78C472.18 795.52 470.87 799.81 469.5 804.42C468.19 808.97 466.45 813.76 464.89 819.18C464.08 821.86 463.21 824.6 462.4 827.4C461.96 828.83 461.53 830.26 461.09 831.7C460.78 833.13 460.47 834.63 460.16 836.12C458.98 842.04 457.36 848.2 456.42 854.43C455.36 860.66 454.18 867.07 453.24 873.36C452.24 879.71 451.12 886 450.31 892.35C449.5 898.64 448.5 904.87 447.88 910.91C447.69 912.53 447.57 914.15 447.44 915.7C447.13 913.65 446.82 911.53 446.51 909.41C445.7 903 445.2 896.58 444.52 890.17C443.9 883.88 443.21 877.28 442.71 871.24C442.4 864.83 442.09 858.41 441.78 852.12C441.53 845.77 441.84 839.73 441.84 833.56C441.72 827.4 442.4 821.36 442.84 815.31C443.09 812.26 443.34 809.27 443.52 806.28C443.89 803.29 444.45 800.36 444.89 797.37C445.33 794.44 445.76 791.52 446.2 788.65L446.88 784.29L447.94 779.99C449.31 774.39 450.56 768.72 451.99 763.24C453.8 757.82 455.54 752.47 457.28 747.24C465.06 726.38 474.59 707.64 485.24 691.07C490.28 682.54 495.64 674.94 500.56 667.47C505.67 660.12 510.58 653.15 515.26 646.73C520.12 640.44 524.54 634.28 528.77 628.98C531.01 626.3 533.13 623.87 535.25 621.57C537.37 619.2 539.42 617.02 541.35 614.91C549.26 606.44 555.18 599.28 558.41 593.68C560.28 591.13 561.09 588.7 561.9 587.33C562.65 585.84 563.08 585.03 563.08 585.03L558.47 583.04C558.47 583.04 558.1 583.73 557.41 585.09C556.6 586.4 555.79 588.52 554.05 590.94C550.94 596.05 545.14 602.71 537.17 610.93C535.12 612.99 533 615.23 530.82 617.53C528.58 619.9 526.21 622.39 524.03 625C519.42 630.42 514.94 636.33 509.89 642.69C504.97 649.1 499.86 655.95 494.51 663.24C489.4 670.71 483.68 678.5 478.51 686.84C467.55 703.09 457.21 722.15 448.81 743.26C450.62 724.89 452.92 704.9 456.28 685.04C459.14 668.23 462.69 651.6 467.24 636.34C469.48 628.74 471.91 621.4 474.53 614.61C477.15 607.82 479.76 601.35 482.56 595.8C485.49 590.32 488.97 585.65 492.09 581.48C495.27 577.37 498.13 573.82 500.31 570.71C502.49 567.6 503.98 565.04 504.98 563.3C505.98 561.49 506.47 560.5 506.47 560.5L504.66 559.63C504.66 559.63 504.16 560.5 503.17 562.25C502.11 563.93 500.56 566.3 498.31 569.29C496.07 572.22 493.14 575.64 489.78 579.63C486.42 583.68 482.68 588.29 479.32 594.08C476.08 599.81 473.4 606.22 470.54 613.07C467.68 619.86 465.06 627.27 462.57 634.93C457.59 650.31 453.54 667.06 450.24 683.94C443.64 717.69 440.09 751.88 437.04 777.29C436.48 781.71 435.98 785.76 435.48 789.68C435.11 791.67 434.8 793.73 434.42 795.78C433.86 798.83 433.3 801.88 432.8 804.93C432.49 808.04 432.18 811.16 431.87 814.27C431.81 814.96 431.75 815.58 431.68 816.26C431.37 818.32 431.18 819.44 431.18 819.44H431.37C430.31 830.28 430.13 841.42 429.94 852.51C430.13 858.86 430.25 865.28 430.44 871.69C430.56 873.68 430.69 875.61 430.81 877.54C428.76 872.56 426.64 867.51 424.65 862.47C423.03 858.05 421.35 853.63 419.92 849.21C418.36 844.79 417.24 840.43 416 836.13C415.07 831.9 413.88 827.72 413.39 823.74C413.08 821.75 412.77 819.82 412.46 817.95C412.21 816.08 412.15 814.21 411.96 812.47C411.83 810.73 411.59 809.04 411.59 807.43V798.9C411.71 797.65 411.84 796.53 411.9 795.47C412.34 791.36 412.52 788.99 412.52 788.99L409.59 788.49C409.59 788.49 409.15 790.86 408.47 795.09C408.28 796.15 408.1 797.27 407.91 798.58C407.79 799.83 407.66 801.2 407.6 802.69C407.48 804.18 407.35 805.74 407.23 807.42C407.11 809.1 407.23 810.84 407.17 812.65C407.23 814.52 407.23 816.45 407.29 818.38C407.41 820.37 407.6 822.43 407.79 824.48C408.04 828.71 408.91 833.01 409.53 837.56C410.53 842.04 411.34 846.71 412.58 851.32C413.7 855.99 415.13 860.6 416.44 865.27C422.17 883.77 428.89 901.76 432.88 915.27C433.63 917.64 434.25 919.88 434.81 921.93C435.12 924.79 435.49 927.66 435.87 930.52C437.24 943.72 439.61 956.74 441.79 969.81L443.41 979.65L445.4 989.36C446.71 995.84 448.02 1002.37 449.32 1008.79C452.06 1021.74 455.36 1034.45 458.29 1047.21C461.59 1059.79 465.02 1072.24 468.32 1084.64C471.74 1095.97 475.04 1107.12 478.35 1118.2C476.42 1115.21 474.49 1112.28 472.5 1109.3C467.58 1101.83 462.72 1094.35 457.8 1086.94C455.43 1083.27 453.01 1079.59 450.64 1075.98C448.4 1072.18 446.16 1068.38 443.91 1064.58C441.67 1060.78 439.43 1056.98 437.19 1053.25C434.95 1049.51 433.2 1045.71 431.21 1041.92C429.22 1038.18 427.29 1034.45 425.36 1030.71C423.43 1026.97 421.56 1023.3 419.88 1019.5C416.52 1011.9 413.15 1004.43 409.92 997.14C406.99 989.67 404.19 982.38 401.45 975.28C398.52 968.24 396.41 961.14 394.16 954.29C393.1 950.93 391.98 947.56 390.92 944.26C389.8 940.96 388.8 937.72 387.99 934.48C386.25 928.07 384.63 921.9 383.07 915.99C382.32 913.06 381.45 910.26 380.89 907.46C380.27 904.6 379.71 901.86 379.15 899.24C378.03 893.95 377.03 888.96 376.1 884.36C375.6 882.06 375.17 879.88 374.73 877.76C374.42 875.64 374.11 873.65 373.8 871.72C371.5 856.28 370.19 847.5 370.19 847.5L365.21 848C365.21 848 366.27 856.97 368.07 872.54C368.32 874.53 368.57 876.59 368.82 878.77C369.19 880.89 369.57 883.13 369.94 885.43C370.75 890.1 371.62 895.21 372.55 900.56C373.05 903.3 373.48 906.04 373.98 908.9C374.54 911.77 375.29 914.69 375.97 917.68C377.34 923.66 378.77 930.01 380.33 936.55C381.01 939.85 381.95 943.21 382.94 946.58C383.87 949.94 384.87 953.37 385.93 956.86C387.92 963.83 389.85 971.18 392.53 978.41C395.08 985.76 397.76 993.23 400.44 1000.95C402.93 1006.99 405.42 1013.22 408.04 1019.44C406.92 1018.57 405.8 1017.63 404.68 1016.7C402.31 1014.71 399.76 1012.71 397.14 1010.72C391.85 1006.61 385.99 1002.38 379.95 997.89C377.02 995.65 374.03 993.34 370.98 991.04C369.49 989.73 367.93 988.36 366.43 987.06L364.13 985C363.38 984.32 362.88 983.57 362.2 982.88C360.89 981.45 359.65 980.02 358.34 978.52C357.16 976.9 356.04 975.28 354.85 973.6C353.6 971.98 352.67 970.18 351.67 968.37C350.67 966.5 349.55 964.76 348.74 962.83C345.07 955.23 342.39 946.89 339.52 938.61L337.4 932.32C336.78 930.45 336.15 928.21 335.53 926.16C334.35 921.93 332.91 917.75 331.92 913.58C330.99 909.41 330.11 905.3 329.24 901.19C328.31 897.08 327.87 892.91 327.18 888.92C326.87 886.87 326.56 884.87 326.25 882.88C326.06 880.89 325.88 878.89 325.63 876.9C325.26 872.98 324.82 869.12 324.51 865.38C324.14 857.84 323.58 850.75 323.39 844.14C322.89 830.94 322.83 819.92 322.71 812.26C322.59 804.54 322.46 800.12 322.46 800.12H320.53C320.53 800.12 320.47 804.54 320.34 812.26C320.34 819.98 320.09 830.94 320.22 844.21C320.22 850.81 320.59 858.03 320.78 865.63C320.9 868.74 321.22 871.86 321.4 875.09C321.4 875.09 321.46 875.15 321.46 875.21C321.52 875.89 321.52 876.58 321.59 877.26C321.78 879.25 321.9 881.31 322.03 883.3C322.34 885.35 322.59 887.41 322.84 889.46C323.4 893.57 323.71 897.8 324.58 902.04C325.39 906.28 326.2 910.57 327.01 914.87C327.13 915.49 327.26 916.11 327.45 916.68C328.32 920.35 329.38 923.97 330.31 927.58C330.87 929.76 331.37 931.75 332.05 934.06L333.98 940.35C336.66 948.82 339.15 957.35 342.82 965.51C343.63 967.63 344.75 969.56 345.81 971.55C346.81 973.48 347.8 975.54 349.11 977.34C350.29 979.15 351.54 981.01 352.72 982.82C354.21 984.56 355.65 986.24 357.08 987.93C357.77 988.74 358.51 989.67 359.26 990.42L361.44 992.47C362.93 993.84 364.43 995.21 365.86 996.58C367.48 997.89 369.1 999.2 370.65 1000.5C372.21 1001.68 373.7 1002.93 375.2 1004.11C381.18 1008.78 386.85 1013.14 391.89 1017.31C394.44 1019.37 396.87 1021.29 399.05 1023.29C401.23 1025.28 403.41 1027.03 405.21 1028.89C407.08 1030.7 408.82 1032.44 410.44 1034C411.87 1035.62 413.24 1037.11 414.42 1038.42C415.04 1039.1 415.6 1039.73 416.1 1040.35C416.66 1041.03 417.1 1041.66 417.53 1042.28C418.28 1043.28 418.84 1044.02 419.4 1044.77C419.84 1045.7 420.27 1046.58 420.71 1047.51C422.64 1051.37 424.38 1055.54 426.5 1059.34C428.62 1063.14 430.67 1067 432.79 1070.86C434.91 1074.72 437.03 1078.58 439.2 1082.44C441.63 1086.61 443.81 1090.16 446.18 1094.02C450.85 1101.68 455.52 1109.34 460.19 1116.94C469.53 1132.2 478.75 1147.64 488.15 1162.52C491.64 1168 495.06 1173.48 498.49 1178.96C499.67 1182.2 500.86 1185.5 502.04 1188.74C509.08 1207.73 516.24 1225.61 523.02 1242.23C550.79 1257.8 579.87 1271 609.95 1281.84C609.89 1281.59 609.89 1281.4 609.89 1281.16L610.03 1281.2ZM549 1141.21C538.35 1100.05 529.76 1055.52 526.83 1010.38C525.34 987.9 525.21 965.23 526.58 943.06C527.89 920.83 530.5 899.03 534.3 878.17C538.35 857.43 542.89 837.01 546.94 817.83C546.94 817.71 547 817.64 547 817.52C547.19 818.14 547.31 818.7 547.5 819.33C550.24 830.41 552.17 843.31 553.17 857.44C553.67 864.48 553.92 871.89 553.98 879.48C554.04 883.28 553.98 887.26 553.98 891.25C553.85 895.17 553.73 899.22 553.67 903.27C553.11 919.59 551.99 936.83 550.68 954.71C548 990.39 544.33 1028.63 544.58 1067.42C544.7 1086.79 545.83 1106.28 548.5 1125.46C550.74 1142.27 554.35 1158.71 558.15 1174.47C555.04 1163.63 551.92 1152.55 549 1141.22V1141.21ZM628.4 1306.61C629.08 1304.99 629.71 1303.31 630.39 1301.63C630.7 1300.88 631.01 1300.14 631.32 1299.33C606.1 1291.24 581.38 1281.15 557.4 1269C578.64 1282.82 603.05 1295.28 628.39 1306.61H628.4Z" fill="#2D87F1"/>
<path d="M1166.77 1498.04C1180.18 1482.72 1194.46 1467.84 1209.2 1453.11C1191.74 1462.32 1172.52 1469.76 1151.16 1475.06C1177.38 1452.01 1198.45 1443.39 1224.67 1420.33C1071.98 1494.94 908.53 1549.16 728 1498.63L749.07 1490.09C712.61 1476.54 670.92 1461.07 630.92 1443.17C600.94 1429.76 572.07 1415.03 546.95 1398.68C575.31 1413.04 604.55 1424.98 634.38 1434.55C733.23 1466.3 839 1471.6 944.4 1447.66C840.84 1462.83 736.25 1453.92 639.17 1423.87C630.4 1421.22 621.79 1418.35 613.24 1415.33C611.91 1414.89 610.59 1414.37 609.26 1413.93C573.68 1401.11 539.29 1385.5 506.43 1367.08C411.12 1313.75 329.21 1237.59 271.24 1142.43C282.29 1133.22 295.03 1126 309.61 1121.14C312.04 1120.33 314.47 1119.59 317.05 1118.93C318.45 1118.56 319.85 1118.19 321.32 1117.83C325.59 1116.87 329.94 1116.06 334.51 1115.47C361.25 1111.86 393.07 1115.1 430.56 1126.89C496.92 1147.88 551.58 1194.36 608.74 1234.06C665.9 1273.83 732.48 1308.75 801.65 1301.16C856.67 1295.05 906.83 1262.49 962.15 1260.43C1031.31 1257.93 1093.41 1303.15 1161.91 1312.95C1214.35 1320.39 1267.02 1306.84 1317.84 1290.85C1323.22 1289.23 1328.52 1287.54 1333.82 1285.84C1346.49 1281.79 1359.31 1277.66 1372.2 1273.76C1374.41 1273.1 1376.55 1272.43 1378.75 1271.84C1383.54 1270.44 1388.33 1269.04 1393.11 1267.79C1397.68 1266.54 1402.32 1265.36 1406.88 1264.18C1390.6 1289.3 1368.06 1316.48 1345.3 1329C1291.68 1391.9 1229.29 1448.32 1166.76 1498.04H1166.77Z" fill="#2D87F1"/>
</g>
<g style="mix-blend-mode:multiply">
<path d="M1431.64 1258.94C1367.85 1362.94 1282.93 1449.49 1182.46 1513.35C1281.97 1445.59 1356.22 1365.37 1416.47 1261.96C1421.48 1260.93 1426.56 1259.9 1431.64 1258.94Z" fill="#2D87F1"/>
</g>
<g style="mix-blend-mode:multiply">
<path d="M1464.49 1254.75C1430.02 1306.02 1388.99 1352.35 1341.26 1392.19C1374.04 1345.34 1411.01 1302.48 1441.36 1257.4C1449.09 1256.15 1456.75 1255.26 1464.49 1254.75Z" fill="#2D87F1"/>
</g>
<path d="M640.5 857.636H679.818L706.864 923.545H708.227L735.273 857.636H774.591V974H743.682V906.727H742.773L716.864 973.091H698.227L672.318 906.273H671.409V974H640.5V857.636ZM789.562 857.636H821.153V918.545H822.062L863.426 857.636H890.244V974H858.653V912.864H857.972L815.926 974H789.562V857.636ZM933.199 1001.95V949.682H941.381C944.108 948.015 946.57 945.667 948.767 942.636C951.002 939.606 952.896 935.269 954.449 929.625C956.04 923.981 957.214 916.424 957.972 906.955L961.835 857.636H1044.11V949.682H1056.38V1001.95H1025.93V974H963.653V1001.95H933.199ZM977.517 949.682H1013.65V883.091H990.244L988.426 906.955C987.896 914.076 987.081 920.307 985.983 925.648C984.922 930.951 983.653 935.572 982.176 939.511C980.737 943.413 979.184 946.803 977.517 949.682ZM1067.06 974V857.636H1098.65V903.091H1140.47V857.636H1172.06V974H1140.47V928.545H1098.65V974H1067.06ZM1299.79 915.818C1299.79 928.773 1297.27 939.701 1292.23 948.602C1287.2 957.466 1280.4 964.189 1271.84 968.773C1263.27 973.318 1253.73 975.591 1243.2 975.591C1232.59 975.591 1223.01 973.299 1214.45 968.716C1205.93 964.095 1199.15 957.352 1194.11 948.489C1189.11 939.587 1186.61 928.697 1186.61 915.818C1186.61 902.864 1189.11 891.955 1194.11 883.091C1199.15 874.189 1205.93 867.466 1214.45 862.92C1223.01 858.337 1232.59 856.045 1243.2 856.045C1253.73 856.045 1263.27 858.337 1271.84 862.92C1280.4 867.466 1287.2 874.189 1292.23 883.091C1297.27 891.955 1299.79 902.864 1299.79 915.818ZM1267.29 915.818C1267.29 908.848 1266.36 902.977 1264.51 898.205C1262.69 893.394 1259.98 889.758 1256.38 887.295C1252.82 884.795 1248.43 883.545 1243.2 883.545C1237.97 883.545 1233.56 884.795 1229.96 887.295C1226.4 889.758 1223.69 893.394 1221.84 898.205C1220.02 902.977 1219.11 908.848 1219.11 915.818C1219.11 922.788 1220.02 928.678 1221.84 933.489C1223.69 938.261 1226.4 941.898 1229.96 944.398C1233.56 946.86 1237.97 948.091 1243.2 948.091C1248.43 948.091 1252.82 946.86 1256.38 944.398C1259.98 941.898 1262.69 938.261 1264.51 933.489C1266.36 928.678 1267.29 922.788 1267.29 915.818Z" fill="white"/>
</g>
<defs>
<radialGradient id="paint0_radial_149_1393" cx="0" cy="0" r="1" gradientUnits="userSpaceOnUse" gradientTransform="translate(798.156 1024.46) scale(798.16)">
<stop offset="0.3" stop-color="#0541AE"/>
<stop offset="0.4" stop-color="#3968BE"/>
<stop offset="0.52" stop-color="#7495D2"/>
<stop offset="0.63" stop-color="#A6BBE2"/>
<stop offset="0.74" stop-color="#CCD8EE"/>
<stop offset="0.84" stop-color="#E8EDF7"/>
<stop offset="0.93" stop-color="#F9FAFD"/>
<stop offset="1" stop-color="white"/>
</radialGradient>
<linearGradient id="paint1_linear_149_1393" x1="1183.56" y1="2254.92" x2="1733.54" y2="428.168" gradientUnits="userSpaceOnUse">
<stop offset="0.11" stop-color="#0024A5"/>
<stop offset="0.27" stop-color="#0E43BD"/>
<stop offset="0.47" stop-color="#1C63D4"/>
<stop offset="0.66" stop-color="#2679E6"/>
<stop offset="0.84" stop-color="#2C87F0"/>
<stop offset="1" stop-color="#2F8CF4"/>
</linearGradient>
<linearGradient id="paint2_linear_149_1393" x1="815.088" y1="2143.9" x2="1365.05" y2="317.229" gradientUnits="userSpaceOnUse">
<stop offset="0.11" stop-color="#0024A5"/>
<stop offset="0.27" stop-color="#0E43BD"/>
<stop offset="0.47" stop-color="#1C63D4"/>
<stop offset="0.66" stop-color="#2679E6"/>
<stop offset="0.84" stop-color="#2C87F0"/>
<stop offset="1" stop-color="#2F8CF4"/>
</linearGradient>
<linearGradient id="paint3_linear_149_1393" x1="1207.49" y1="2262.08" x2="1757.46" y2="435.382" gradientUnits="userSpaceOnUse">
<stop offset="0.11" stop-color="#0024A5"/>
<stop offset="0.27" stop-color="#0E43BD"/>
<stop offset="0.47" stop-color="#1C63D4"/>
<stop offset="0.66" stop-color="#2679E6"/>
<stop offset="0.84" stop-color="#2C87F0"/>
<stop offset="1" stop-color="#2F8CF4"/>
</linearGradient>
<linearGradient id="paint4_linear_149_1393" x1="1070.82" y1="2220.93" x2="1620.79" y2="394.23" gradientUnits="userSpaceOnUse">
<stop offset="0.11" stop-color="#0024A5"/>
<stop offset="0.27" stop-color="#0E43BD"/>
<stop offset="0.47" stop-color="#1C63D4"/>
<stop offset="0.66" stop-color="#2679E6"/>
<stop offset="0.84" stop-color="#2C87F0"/>
<stop offset="1" stop-color="#2F8CF4"/>
</linearGradient>
<linearGradient id="paint5_linear_149_1393" x1="1221.93" y1="2266.41" x2="1771.9" y2="439.728" gradientUnits="userSpaceOnUse">
<stop offset="0.11" stop-color="#0024A5"/>
<stop offset="0.27" stop-color="#0E43BD"/>
<stop offset="0.47" stop-color="#1C63D4"/>
<stop offset="0.66" stop-color="#2679E6"/>
<stop offset="0.84" stop-color="#2C87F0"/>
<stop offset="1" stop-color="#2F8CF4"/>
</linearGradient>
<linearGradient id="paint6_linear_149_1393" x1="895.137" y1="2168.02" x2="1445.09" y2="341.338" gradientUnits="userSpaceOnUse">
<stop offset="0.11" stop-color="#0024A5"/>
<stop offset="0.27" stop-color="#0E43BD"/>
<stop offset="0.47" stop-color="#1C63D4"/>
<stop offset="0.66" stop-color="#2679E6"/>
<stop offset="0.84" stop-color="#2C87F0"/>
<stop offset="1" stop-color="#2F8CF4"/>
</linearGradient>
<linearGradient id="paint7_linear_149_1393" x1="867.792" y1="2159.76" x2="1417.75" y2="333.101" gradientUnits="userSpaceOnUse">
<stop offset="0.11" stop-color="#0024A5"/>
<stop offset="0.27" stop-color="#0E43BD"/>
<stop offset="0.47" stop-color="#1C63D4"/>
<stop offset="0.66" stop-color="#2679E6"/>
<stop offset="0.84" stop-color="#2C87F0"/>
<stop offset="1" stop-color="#2F8CF4"/>
</linearGradient>
<linearGradient id="paint8_linear_149_1393" x1="1092.98" y1="2227.57" x2="1642.94" y2="400.91" gradientUnits="userSpaceOnUse">
<stop offset="0.11" stop-color="#0024A5"/>
<stop offset="0.27" stop-color="#0E43BD"/>
<stop offset="0.47" stop-color="#1C63D4"/>
<stop offset="0.66" stop-color="#2679E6"/>
<stop offset="0.84" stop-color="#2C87F0"/>
<stop offset="1" stop-color="#2F8CF4"/>
</linearGradient>
<linearGradient id="paint9_linear_149_1393" x1="1232.33" y1="2269.54" x2="1782.29" y2="442.857" gradientUnits="userSpaceOnUse">
<stop offset="0.11" stop-color="#0024A5"/>
<stop offset="0.27" stop-color="#0E43BD"/>
<stop offset="0.47" stop-color="#1C63D4"/>
<stop offset="0.66" stop-color="#2679E6"/>
<stop offset="0.84" stop-color="#2C87F0"/>
<stop offset="1" stop-color="#2F8CF4"/>
</linearGradient>
<linearGradient id="paint10_linear_149_1393" x1="848.523" y1="2156.11" x2="1399.02" y2="327.561" gradientUnits="userSpaceOnUse">
<stop offset="0.11" stop-color="#0024A5"/>
<stop offset="0.27" stop-color="#0E43BD"/>
<stop offset="0.47" stop-color="#1C63D4"/>
<stop offset="0.66" stop-color="#2679E6"/>
<stop offset="0.84" stop-color="#2C87F0"/>
<stop offset="1" stop-color="#2F8CF4"/>
</linearGradient>
<linearGradient id="paint11_linear_149_1393" x1="955.565" y1="2186.31" x2="1505.57" y2="359.543" gradientUnits="userSpaceOnUse">
<stop offset="0.11" stop-color="#0024A5"/>
<stop offset="0.27" stop-color="#0E43BD"/>
<stop offset="0.47" stop-color="#1C63D4"/>
<stop offset="0.66" stop-color="#2679E6"/>
<stop offset="0.84" stop-color="#2C87F0"/>
<stop offset="1" stop-color="#2F8CF4"/>
</linearGradient>
<linearGradient id="paint12_linear_149_1393" x1="1081.07" y1="2224" x2="1631.03" y2="397.32" gradientUnits="userSpaceOnUse">
<stop offset="0.11" stop-color="#0024A5"/>
<stop offset="0.27" stop-color="#0E43BD"/>
<stop offset="0.47" stop-color="#1C63D4"/>
<stop offset="0.66" stop-color="#2679E6"/>
<stop offset="0.84" stop-color="#2C87F0"/>
<stop offset="1" stop-color="#2F8CF4"/>
</linearGradient>
<linearGradient id="paint13_linear_149_1393" x1="1086.05" y1="2225.87" x2="1636.22" y2="398.52" gradientUnits="userSpaceOnUse">
<stop offset="0.11" stop-color="#0024A5"/>
<stop offset="0.27" stop-color="#0E43BD"/>
<stop offset="0.47" stop-color="#1C63D4"/>
<stop offset="0.66" stop-color="#2679E6"/>
<stop offset="0.84" stop-color="#2C87F0"/>
<stop offset="1" stop-color="#2F8CF4"/>
</linearGradient>
<linearGradient id="paint14_linear_149_1393" x1="-174.009" y1="1846.11" x2="375.952" y2="19.4505" gradientUnits="userSpaceOnUse">
<stop offset="0.11" stop-color="#0024A5"/>
<stop offset="0.27" stop-color="#0E43BD"/>
<stop offset="0.47" stop-color="#1C63D4"/>
<stop offset="0.66" stop-color="#2679E6"/>
<stop offset="0.84" stop-color="#2C87F0"/>
<stop offset="1" stop-color="#2F8CF4"/>
</linearGradient>
<linearGradient id="paint15_linear_149_1393" x1="77.9501" y1="1922" x2="627.921" y2="95.2895" gradientUnits="userSpaceOnUse">
<stop offset="0.11" stop-color="#0024A5"/>
<stop offset="0.27" stop-color="#0E43BD"/>
<stop offset="0.47" stop-color="#1C63D4"/>
<stop offset="0.66" stop-color="#2679E6"/>
<stop offset="0.84" stop-color="#2C87F0"/>
<stop offset="1" stop-color="#2F8CF4"/>
</linearGradient>
<linearGradient id="paint16_linear_149_1393" x1="-135.46" y1="1857.74" x2="414.51" y2="31.0402" gradientUnits="userSpaceOnUse">
<stop offset="0.11" stop-color="#0024A5"/>
<stop offset="0.27" stop-color="#0E43BD"/>
<stop offset="0.47" stop-color="#1C63D4"/>
<stop offset="0.66" stop-color="#2679E6"/>
<stop offset="0.84" stop-color="#2C87F0"/>
<stop offset="1" stop-color="#2F8CF4"/>
</linearGradient>
<linearGradient id="paint17_linear_149_1393" x1="-121.98" y1="1861.8" x2="427.99" y2="35.1101" gradientUnits="userSpaceOnUse">
<stop offset="0.11" stop-color="#0024A5"/>
<stop offset="0.27" stop-color="#0E43BD"/>
<stop offset="0.47" stop-color="#1C63D4"/>
<stop offset="0.66" stop-color="#2679E6"/>
<stop offset="0.84" stop-color="#2C87F0"/>
<stop offset="1" stop-color="#2F8CF4"/>
</linearGradient>
<linearGradient id="paint18_linear_149_1393" x1="-9.53007" y1="1895.68" x2="540.446" y2="68.9428" gradientUnits="userSpaceOnUse">
<stop offset="0.11" stop-color="#0024A5"/>
<stop offset="0.27" stop-color="#0E43BD"/>
<stop offset="0.47" stop-color="#1C63D4"/>
<stop offset="0.66" stop-color="#2679E6"/>
<stop offset="0.84" stop-color="#2C87F0"/>
<stop offset="1" stop-color="#2F8CF4"/>
</linearGradient>
<linearGradient id="paint19_linear_149_1393" x1="23.5698" y1="1905.66" x2="573.562" y2="78.889" gradientUnits="userSpaceOnUse">
<stop offset="0.11" stop-color="#0024A5"/>
<stop offset="0.27" stop-color="#0E43BD"/>
<stop offset="0.47" stop-color="#1C63D4"/>
<stop offset="0.66" stop-color="#2679E6"/>
<stop offset="0.84" stop-color="#2C87F0"/>
<stop offset="1" stop-color="#2F8CF4"/>
</linearGradient>
<linearGradient id="paint20_linear_149_1393" x1="8.55964" y1="1901.09" x2="558.522" y2="74.4178" gradientUnits="userSpaceOnUse">
<stop offset="0.11" stop-color="#0024A5"/>
<stop offset="0.27" stop-color="#0E43BD"/>
<stop offset="0.47" stop-color="#1C63D4"/>
<stop offset="0.66" stop-color="#2679E6"/>
<stop offset="0.84" stop-color="#2C87F0"/>
<stop offset="1" stop-color="#2F8CF4"/>
</linearGradient>
<linearGradient id="paint21_linear_149_1393" x1="-239.7" y1="1826.38" x2="310.281" y2="-0.340008" gradientUnits="userSpaceOnUse">
<stop offset="0.11" stop-color="#0024A5"/>
<stop offset="0.27" stop-color="#0E43BD"/>
<stop offset="0.47" stop-color="#1C63D4"/>
<stop offset="0.66" stop-color="#2679E6"/>
<stop offset="0.84" stop-color="#2C87F0"/>
<stop offset="1" stop-color="#2F8CF4"/>
</linearGradient>
<linearGradient id="paint22_linear_149_1393" x1="28.8163" y1="1907.18" x2="578.759" y2="80.5436" gradientUnits="userSpaceOnUse">
<stop offset="0.11" stop-color="#0024A5"/>
<stop offset="0.27" stop-color="#0E43BD"/>
<stop offset="0.47" stop-color="#1C63D4"/>
<stop offset="0.66" stop-color="#2679E6"/>
<stop offset="0.84" stop-color="#2C87F0"/>
<stop offset="1" stop-color="#2F8CF4"/>
</linearGradient>
<linearGradient id="paint23_linear_149_1393" x1="-39.17" y1="1886.72" x2="510.786" y2="60.0518" gradientUnits="userSpaceOnUse">
<stop offset="0.11" stop-color="#0024A5"/>
<stop offset="0.27" stop-color="#0E43BD"/>
<stop offset="0.47" stop-color="#1C63D4"/>
<stop offset="0.66" stop-color="#2679E6"/>
<stop offset="0.84" stop-color="#2C87F0"/>
<stop offset="1" stop-color="#2F8CF4"/>
</linearGradient>
<linearGradient id="paint24_linear_149_1393" x1="524.81" y1="2056.52" x2="1074.78" y2="229.82" gradientUnits="userSpaceOnUse">
<stop offset="0.11" stop-color="#0024A5"/>
<stop offset="0.27" stop-color="#0E43BD"/>
<stop offset="0.47" stop-color="#1C63D4"/>
<stop offset="0.66" stop-color="#2679E6"/>
<stop offset="0.84" stop-color="#2C87F0"/>
<stop offset="1" stop-color="#2F8CF4"/>
</linearGradient>
<clipPath id="clip0_149_1393">
<rect width="1712" height="1553" fill="white"/>
</clipPath>
</defs>
</svg>
