<?xml version="1.0" encoding="utf-8"?>
<!-- Generator: Adobe Illustrator 26.5.0, SVG Export Plug-In . SVG Version: 6.00 Build 0)  -->
<svg version="1.1" xmlns="http://www.w3.org/2000/svg" xmlns:xlink="http://www.w3.org/1999/xlink" x="0px" y="0px"
	 viewBox="0 0 500 500" style="enable-background:new 0 0 500 500;" xml:space="preserve">
<style type="text/css">
	.st0{fill:#F5FDFF;}
	.st1{clip-path:url(#SVGID_00000183940419321875542500000003695885454896298887_);}
	.st2{opacity:0.8;fill:#E5F7FB;}
	.st3{opacity:0.1;clip-path:url(#SVGID_00000057862418508390485280000006958503959129839489_);fill:#FFFFFF;}
	.st4{opacity:0.4;clip-path:url(#SVGID_00000057862418508390485280000006958503959129839489_);fill:#FFFFFF;}
	.st5{clip-path:url(#SVGID_00000057862418508390485280000006958503959129839489_);fill:#FFFFFF;}
	.st6{clip-path:url(#SVGID_00000057862418508390485280000006958503959129839489_);}
	.st7{fill:#E4FAFD;}
	.st8{fill:#72D5E5;}
	.st9{fill:#4ACCDE;}
	.st10{fill:#00C6DA;}
	.st11{fill:#0093AC;}
	.st12{fill:url(#SVGID_00000099657848714320058830000012944467219101224880_);}
	.st13{opacity:0.3;fill:#FFFFFF;}
	.st14{opacity:0.05;fill:#FFFFFF;}
	.st15{font-family:'Montserrat-Regular';}
	.st16{font-size:26px;}
	.st17{letter-spacing:5;}
	.st18{font-family:'Bebas';}
	.st19{font-size:57.3149px;}
	.st20{opacity:0.5;}
	.st21{fill:#FFFFFF;}
</style>
<g id="BACKGROUND">
	<rect class="st0" width="500" height="500"/>
</g>
<g id="OBJECT">
	<g>
		<g>
			<defs>
				<circle id="SVGID_1_" cx="250" cy="250" r="187.33"/>
			</defs>
			<clipPath id="SVGID_00000173130964779715186300000017297155508886249917_">
				<use xlink:href="#SVGID_1_"  style="overflow:visible;"/>
			</clipPath>
			<g style="clip-path:url(#SVGID_00000173130964779715186300000017297155508886249917_);">
				<rect x="27.34" y="27.34" class="st2" width="445.32" height="445.32"/>
				<g>
					<defs>
						<rect id="SVGID_00000161608420387125356810000013926086334724055981_" x="27.34" y="27.34" width="445.32" height="445.32"/>
					</defs>
					<clipPath id="SVGID_00000037687748196485060690000012918951960640995982_">
						<use xlink:href="#SVGID_00000161608420387125356810000013926086334724055981_"  style="overflow:visible;"/>
					</clipPath>
					<path style="opacity:0.1;clip-path:url(#SVGID_00000037687748196485060690000012918951960640995982_);fill:#FFFFFF;" d="
						M427.68,300.62c-1.2,98.12-81.72,176.7-179.85,175.5c-98.13-1.2-176.71-81.72-175.51-179.84
						c1.2-98.13,81.72-176.71,179.85-175.51C350.3,121.97,428.87,202.49,427.68,300.62z"/>
					<path style="opacity:0.4;clip-path:url(#SVGID_00000037687748196485060690000012918951960640995982_);fill:#FFFFFF;" d="
						M377.46,300c-0.86,70.39-58.63,126.76-129.02,125.9c-70.4-0.86-126.77-58.63-125.91-129.02
						c0.86-70.4,58.63-126.77,129.02-125.91C321.95,171.84,378.32,229.61,377.46,300z"/>
					<path style="clip-path:url(#SVGID_00000037687748196485060690000012918951960640995982_);fill:#FFFFFF;" d="M330.69,299.43
						c-0.54,44.56-37.11,80.25-81.68,79.7c-44.57-0.54-80.25-37.11-79.71-81.68c0.54-44.57,37.11-80.25,81.68-79.71
						C295.55,218.3,331.24,254.87,330.69,299.43z"/>
					<g style="clip-path:url(#SVGID_00000037687748196485060690000012918951960640995982_);">
						<g>
							<path class="st7" d="M-76.17,255.71c19.66,9.5,46.5,8.13,68.43,9.45c28.97,1.73,57.42-5.17,85.97-8.86
								c28.59-3.69,56.28-1.6,84.49,4.08c16.44,3.31,32.73,7.26,49.19,10.48c43.66,8.53,86.62,5.74,129.3-6.25
								c21.04-5.91,43.9-11.89,65.96-10.41c14.59,0.98,29.11,6.1,41.12,14.43L432.12,538.9l-523.36-31.29"/>
						</g>
						<g>
							<path class="st8" d="M-13.41,259.32c33.3-0.79,66.24,10.27,98.05,18.73c33.45,8.9,67.4,17.29,102.13,18.78
								c20.14,0.87,40.33-0.6,60.03-4.91c24.86-5.44,49.07-12.57,72.12-23.47c15.29-7.23,30.67-15.04,46.77-20.35
								c28.63-9.45,54.56,0.43,81.23,10.75c21.56,8.34,44.21,10.96,66.93,14.13v248.79h-527.7"/>
						</g>
						<g>
							<path class="st9" d="M497.23,257.97c-43.91-8.23-87.8,7.38-130.52,15.38c-25.43,4.76-51.02,9.08-76.81,11.25
								c-25.51,2.15-51.09,1.74-76.4-2.32c-25.16-4.03-49.59-11.36-74.39-17.05c-31.93-7.33-64.58-12.85-97.45-12.07
								c-24.99,0.59-55.62,0.72-77.63,14.31v232.16H499.6"/>
						</g>
						<g>
							<path class="st10" d="M-33.41,263.51c25.44,0,51.03-0.23,76.15,4.4c23.43,4.32,45.47,13.59,67.57,22.16
								c13,5.04,26.11,9.89,39.64,13.33c35.26,8.98,71.5,9.21,107.33,3.68c33.62-5.2,66.15-15.64,100.54-15
								c27.54,0.51,52.81,6.47,79.98-1.58c30.12-8.92,56.19-26.99,88.72-26.99V483.2h-561.7"/>
						</g>
						<g>
							<path class="st11" d="M512.49,318.96c-6.45-4.18-13.51-7.59-22.7-9.84c-16.75-4.11-34.45-4.83-51.69-4.74
								c-44.56,0.23-87.66,10.43-131.29,17.49c-17.61,2.85-35.38,5.06-53.27,5.52c-47.29,1.23-91.19-14.45-137.86-16.8
								c-45.26-2.28-91.01,4.61-135.91-3.33c-13.47-2.38-27.25-6.35-37.06-15.75v200.69h591.39V335.44
								C526.23,329.33,519.74,323.65,512.49,318.96z"/>
						</g>
						<g>
							
								<linearGradient id="SVGID_00000140004069499615219330000009193303779817395341_" gradientUnits="userSpaceOnUse" x1="243.7656" y1="571.2937" x2="243.7656" y2="351.2054">
								<stop  offset="0" style="stop-color:#00C6DA"/>
								<stop  offset="0.1081" style="stop-color:#02C6DA"/>
								<stop  offset="1" style="stop-color:#0DC5D9"/>
							</linearGradient>
							<path style="fill:url(#SVGID_00000140004069499615219330000009193303779817395341_);" d="M416.65,335.19
								c-23.87,9.32-49.24,15.5-75,13.33c-25.3-2.13-49.55-12.43-75.24-10.59c-21.7,1.55-42.46,9.06-63.61,13.56
								c-12.52,2.66-25.23,4.53-38.06,3.91c-40.06-1.93-77.62-17.11-115.49-28.92c-15.11-4.71-30.57-8.35-46.39-9.47
								c-10.72-0.76-27.79-2.06-35.78,6.93v208.29h553.39v-216.6C484.4,304.53,449.55,322.34,416.65,335.19z"/>
						</g>
					</g>
				</g>
			</g>
		</g>
		<path class="st13" d="M199.9,407.12c0,5.9-4.79,10.69-10.69,10.69c-5.9,0-10.69-4.79-10.69-10.69s4.79-10.69,10.69-10.69
			C195.12,396.44,199.9,401.22,199.9,407.12z"/>
		<path class="st14" d="M315.31,404.16c0,5.9-4.79,10.69-10.69,10.69c-5.9,0-10.69-4.79-10.69-10.69c0-5.9,4.79-10.69,10.69-10.69
			C310.53,393.47,315.31,398.25,315.31,404.16z"/>
		<path class="st14" d="M208.88,386.53c0,3.83-3.11,6.94-6.94,6.94c-3.83,0-6.94-3.11-6.94-6.94c0-3.83,3.11-6.94,6.94-6.94
			C205.78,379.59,208.88,382.7,208.88,386.53z"/>
		<circle class="st13" cx="310.75" cy="371.8" r="6.12"/>
		<path class="st13" d="M190.27,373.35c0,2.52-2.04,4.56-4.56,4.56c-2.52,0-4.56-2.04-4.56-4.56c0-2.52,2.04-4.56,4.56-4.56
			C188.22,368.79,190.27,370.83,190.27,373.35z"/>
		<path class="st14" d="M356.4,365.67c0,2.52-2.04,4.56-4.56,4.56c-2.52,0-4.56-2.04-4.56-4.56c0-2.52,2.04-4.56,4.56-4.56
			C354.35,361.11,356.4,363.15,356.4,365.67z"/>
		<path class="st14" d="M148.28,376.36c0,2.52-2.04,4.56-4.56,4.56c-2.52,0-4.56-2.04-4.56-4.56c0-2.52,2.04-4.56,4.56-4.56
			C146.24,371.8,148.28,373.84,148.28,376.36z"/>
		<path class="st13" d="M245.66,424.34c0,2.52-2.04,4.56-4.56,4.56c-2.52,0-4.56-2.04-4.56-4.56c0-2.52,2.04-4.56,4.56-4.56
			C243.61,419.78,245.66,421.82,245.66,424.34z"/>
		
			<ellipse transform="matrix(0.2298 -0.9732 0.9732 0.2298 -149.3797 542.5962)" class="st14" cx="268.11" cy="365.67" rx="9.32" ry="9.32"/>
	</g>
	<g>
		<g>
			<g>
				<g>
					<text transform="matrix(1 0 0 1 223.4272 155.9585)" class="st11 st15 st16 st17">ми</text>
				</g>
				<g>
					<text transform="matrix(1 0 0 1 194.9902 211.27)" class="st10 st18 st19">ДНО</text>
				</g>
				<g>
					<text transform="matrix(1 0 0 1 189.0723 252.2793)" class="st11 st15 st16 st17">слони</text>
				</g>
			</g>
			<g>
				<g>
					<path class="st11" d="M180.02,246.79h-36.67c-0.98,0-1.78-0.8-1.78-1.78v-97.32c0-0.98,0.8-1.78,1.78-1.78h32.76
						c0.98,0,1.78,0.8,1.78,1.78c0,0.98-0.8,1.78-1.78,1.78h-30.98v93.76h34.88c0.98,0,1.78,0.8,1.78,1.78
						C181.8,245.99,181.01,246.79,180.02,246.79z"/>
				</g>
			</g>
			<g>
				<g>
					<path class="st11" d="M356.64,246.79h-33.81c-0.98,0-1.78-0.8-1.78-1.78c0-0.98,0.8-1.78,1.78-1.78h32.03v-93.76h-30.03
						c-0.98,0-1.78-0.8-1.78-1.78c0-0.98,0.8-1.78,1.78-1.78h31.81c0.98,0,1.78,0.8,1.78,1.78v97.32
						C358.42,245.99,357.63,246.79,356.64,246.79z"/>
				</g>
			</g>
		</g>
		<g class="st20">
			<path class="st21" d="M238.42,191.88v7.67c-6.03-0.94-12.05-2.08-18.07-3.25v-26.08h21.9v7.73h-14.21v13.92H238.42z
				 M272.04,201.59l-5.25-31.33h-10.58l-5.25,30.88c2.56,0.24,5.13,0.43,7.7,0.55l2.8-19.75l2.82,19.88
				C266.86,201.83,269.44,201.76,272.04,201.59z M290.45,170.22h-8.64v30.3c2.08-0.33,4.17-0.71,6.26-1.18
				c0.48-0.11,0.95-0.23,1.43-0.34v-10.42l3.13,9.67c1.91-0.47,3.81-0.98,5.71-1.49L290.45,170.22z M334.48,171.44
				c-1.95-1.22-4.3-1.83-7.04-1.83c-2.85,0-5.24,0.72-7.16,2.16c-3.12,2.39-4.68,5.91-4.68,10.55c0,2.58,0.57,4.97,1.71,7.17
				c0.34,0.62,0.76,1.27,1.24,1.95c1.04-0.24,2.09-0.49,3.14-0.71c1.74-0.37,3.49-0.71,5.23-1.03c-0.13-0.14-0.26-0.29-0.37-0.42
				c-2.01-2.41-3.01-4.79-3.01-7.12c0-1.49,0.3-2.74,0.9-3.75c0.73-1.25,1.8-1.87,3.22-1.87c1.33,0,2.35,0.42,3.05,1.26
				c0.98,1.17,1.57,2.8,1.79,4.88l7.37-1.34c-0.19-2.23-0.75-4.19-1.69-5.9C337.23,173.72,336,172.4,334.48,171.44z M300.66,196.15
				c2.56-0.7,5.13-1.41,7.69-2.11v-23.82h-7.69V196.15z M198.51,178.61c0.85-0.87,1.89-1.3,3.11-1.3c1.22,0,2.27,0.43,3.13,1.3
				c0.87,0.87,1.3,1.91,1.3,3.13v5.98h7.98v-5.82c0-3.36-1.18-6.24-3.54-8.63c-2.36-2.39-5.24-3.58-8.63-3.58
				c-3.37,0-6.24,1.19-8.63,3.56c-2.39,2.38-3.58,5.26-3.58,8.65v9c2.53,0.33,5.05,0.7,7.57,1.11v-10.27
				C197.22,180.52,197.65,179.48,198.51,178.61z M183.02,190.15v-8.32c0-3.37-1.19-6.24-3.56-8.63s-5.26-3.58-8.65-3.58
				c-3.34,0-6.2,1.19-8.59,3.56c-2.39,2.38-3.58,5.26-3.58,8.65v8.06c2.47-0.4,5.04-0.54,7.53-0.56v-7.66c0-1.22,0.43-2.26,1.3-3.11
				c0.87-0.85,1.91-1.28,3.13-1.28s2.26,0.43,3.11,1.28c0.86,0.86,1.28,1.89,1.28,3.11v7.91
				C177.68,189.69,180.36,189.89,183.02,190.15z"/>
		</g>
		<g>
			<g>
				<path class="st21" d="M339.04,114.47c0,0,7.29-8.9,18.89,0.42C357.92,114.89,346,92.6,339.04,114.47z"/>
				<path class="st21" d="M321.79,106.75c14.48-3.44,17.24,7.73,17.24,7.73C342.13,91.72,321.79,106.75,321.79,106.75z"/>
			</g>
			<g>
				<path class="st21" d="M113.81,198.73c0,0,3.68-13.04,20.6-8.44C134.42,190.29,111.03,171.82,113.81,198.73z"/>
				<path class="st21" d="M91.55,198.5c14.02-10.53,22.26,0.23,22.26,0.23C106.45,172.7,91.55,198.5,91.55,198.5z"/>
			</g>
			<g>
				<path class="st21" d="M398.75,224.99c0,0,8.33-14.4,27.07-3.8C425.82,221.19,403.59,192.13,398.75,224.99z"/>
				<path class="st21" d="M372.32,217.97c19.87-8.28,26.43,7.02,26.43,7.02C397.87,191.78,372.32,217.97,372.32,217.97z"/>
			</g>
			<g>
				<path class="st21" d="M311.51,88.1c0,0,1.67-5.92,9.36-3.83C320.86,84.27,310.24,75.88,311.51,88.1z"/>
				<path class="st21" d="M301.39,88c6.37-4.78,10.11,0.1,10.11,0.1C308.16,76.28,301.39,88,301.39,88z"/>
			</g>
			<g>
				<path class="st21" d="M273.92,101.38c0,0,1.67-5.92,9.36-3.83C283.28,97.55,272.66,89.16,273.92,101.38z"/>
				<path class="st21" d="M263.8,101.28c6.37-4.78,10.11,0.1,10.11,0.1C270.57,89.56,263.8,101.28,263.8,101.28z"/>
			</g>
		</g>
	</g>
</g>
</svg>
