<svg width="1646" height="1707" viewBox="0 0 1646 1707" fill="none" xmlns="http://www.w3.org/2000/svg">
<g clip-path="url(#clip0_147_654)">
<path d="M356.05 796.53C383.62 1298.98 930.84 1580.28 1314.65 1295.25C1532.31 1133.54 1567.35 876.1 1624.45 829.83C1653.88 806.03 1689.57 1252.2 1343.11 1530.33C1160.33 1677.04 921.44 1734.58 687.68 1688.01C-88.1699 1533.35 -253.32 466.87 457.53 99.2398C587.43 32.0798 733.59 -0.920152 882.98 3.71985C1286.67 16.3298 1563.18 306.58 1571.89 337.02C1574 344.5 1555.78 332.79 1530.58 319.89C1513.69 311.26 1527.58 329.51 1474.76 279.17C989.58 -183.18 324.96 225.35 356.05 796.53Z" fill="url(#paint0_linear_147_654)"/>
<path d="M1370.42 186.78C1062.78 -4.04015 747.03 16.4899 550.01 147.77C395.67 250.71 350.05 386.02 327.27 570.98C251.23 1189.36 751.98 1542.98 1190.09 1400.01C1380.48 1337.82 1598.5 1170.84 1598.5 1170.84C1598.5 1170.84 1536.4 1460.54 1213.3 1622.55C982.88 1738.04 701.46 1736.82 459.71 1607.74C-20.4901 1351.25 -149.07 710.71 206.24 298.01C388.89 85.9099 666.86 -22.6301 954.69 6.81987C1345.3 46.8599 1558.9 316.9 1548.93 317.52C1542.19 317.85 1478.05 253.56 1370.42 186.78Z" fill="#37C8FF"/>
<path d="M1313.39 134.06C977.38 -27.0701 605.44 35.35 383.19 243.39C235.89 381.3 173.23 570.02 188.25 699.28C199.9 798.94 239.09 770.31 270.06 834.67C299.63 896.23 333.4 1049.65 458.97 1205.94C581.64 1358.52 710.24 1417.19 803.57 1468.1C849.8 1493.33 876.28 1514.02 940.76 1522.8C1261.22 1566.32 1643.25 1122.83 1562.5 1262.51C1558.62 1300.78 1450.09 1410.45 1457.99 1414.42C1464.92 1417.83 1499.42 1379.06 1503.77 1371.82C1507.6 1365.42 1466.23 1423.26 1396.49 1485.47C1141.21 1713.12 787.48 1759.16 491.03 1620.26C-248.67 1273.52 -114.1 160.29 695.58 16.1199C942.92 -27.8801 1213.39 30.0399 1470.49 231.83C1503.5 257.73 1410.73 180.78 1313.39 134.07V134.06Z" fill="#007FDE"/>
<path d="M1122.9 39.7499C878.35 -32.2501 682.22 8.24994 513.2 119.4C152.46 356.68 37.4699 752.09 160.46 1037.75C207.82 1147.62 258.02 1168.89 329.02 1230C424.79 1312.45 591.05 1482.36 890.61 1532.42C1006.87 1551.83 1095.46 1544.2 1124.28 1554.16C1152.18 1563.86 1125.54 1591.82 1169.91 1589.17C1338.8 1578.88 1537.59 1334.61 1469.76 1416.95C1222.26 1717.28 748.91 1805.84 382.12 1559.21C-41.6401 1274.17 -123.05 679.77 205.56 296C469.23 -11.86 908.97 -82.1201 1287.8 129.12C1469.09 230.26 1573.94 362 1612.52 400.8C1652.58 441.05 1483.51 146.01 1122.89 39.7499H1122.9Z" fill="#006AC3"/>
<path d="M927.72 0.789965C237.71 -35.14 -191.89 713.51 187.46 1233.56C290.74 1375.05 451.86 1491.22 616.64 1556.61C706.74 1592.36 822.33 1623.64 998.28 1638.37C1136.99 1649.96 1277.01 1583.53 1382.89 1495.13C1535.67 1367.53 1590.71 1215.26 1581.11 1222.5C1562.81 1236.42 1421.62 1563.24 1027.93 1658.64C767.26 1721.77 490.92 1655.01 288.54 1478.63C-278.32 984.4 39.4399 7.99997 866.08 0.169969C906.18 -0.200031 1021.92 5.70996 927.73 0.789965H927.72Z" fill="#004198"/>
<path d="M776.32 394.1C776.44 390.1 778.25 389.21 780.92 390.16C784.04 391.26 788.31 394.84 792.44 398.9C792.98 399.43 793.52 399.96 794.05 400.51C796.92 403.43 799.63 406.44 801.72 408.85C801.87 408.83 802.05 408.81 802.22 408.79C802.52 408.75 802.82 408.71 803.13 408.67C803.46 408.62 803.79 408.57 804.12 408.52C804.51 408.45 804.89 408.39 805.27 408.31C809.71 407.44 813.89 405.82 817.53 403.87C819.68 402.72 821.64 401.45 823.36 400.14C825.94 398.18 827.99 396.14 829.31 394.28C829.54 393.96 829.74 393.65 829.92 393.35C829.93 393.33 829.95 393.31 829.96 393.29C830.14 392.99 830.29 392.7 830.43 392.42C830.44 392.4 830.45 392.37 830.46 392.35C830.59 392.06 830.71 391.79 830.8 391.52C830.89 391.24 830.96 390.97 831 390.72C831.03 390.55 831.05 390.38 831.05 390.22C828.44 390.81 825.97 391.7 823.7 392.75C821.54 393.73 819.58 394.86 817.82 395.99C812.74 399.27 809.54 402.59 809.34 402.8C813.51 395.03 817.6 389.23 821.54 384.92C823.72 382.52 825.85 380.61 827.93 379.07C828.43 378.7 828.93 378.36 829.43 378.03C829.52 377.97 829.62 377.91 829.71 377.85C830.21 377.53 830.7 377.23 831.19 376.95C831.2 376.95 831.22 376.94 831.23 376.93C831.72 376.65 832.2 376.4 832.68 376.16C832.74 376.13 832.8 376.1 832.86 376.07C833.35 375.83 833.84 375.61 834.33 375.41C834.35 375.41 834.37 375.39 834.39 375.38C834.88 375.18 835.37 375 835.86 374.83C835.86 374.83 835.88 374.83 835.89 374.83C837.98 374.13 839.98 373.78 841.88 373.68C841.88 373.68 841.9 373.68 841.91 373.68C842.43 373.65 842.94 373.64 843.45 373.65C844.79 373.67 846.08 373.81 847.3 374.03C849.47 374.43 851.43 375.07 853.15 375.74C855.21 376.46 857.7 377.58 860.46 379.01C861.46 379.52 862.5 380.09 863.57 380.69C867.78 383.04 872.42 385.97 877.01 389.19C878.3 390.09 879.58 391.01 880.85 391.96C893 400.99 903.77 411.57 903.75 418.29C903.75 419.22 903.54 420.24 903.15 421.31C902.18 421.39 901.28 421.6 900.46 421.88C897.55 422.84 895.68 424.65 895.68 424.65L897.72 425.33L900.44 426.23C895.76 432.81 886.74 440.55 877.43 447.12C875.5 448.49 873.55 449.8 871.63 451.03C867.03 454 862.57 456.57 858.74 458.44C857.12 459.24 855.61 459.9 854.25 460.42C853.87 460.57 853.51 460.71 853.16 460.83C849.67 462.19 845.17 463.44 839.97 462.71C838.78 462.54 837.55 462.27 836.29 461.86C835.79 461.7 835.29 461.52 834.79 461.33C834.74 461.31 834.69 461.29 834.64 461.27C834.14 461.07 833.63 460.85 833.12 460.61C833.08 460.59 833.04 460.57 833 460.56C832.47 460.31 831.93 460.02 831.38 459.72C831.37 459.72 831.36 459.71 831.35 459.7C830.5 459.22 829.64 458.69 828.77 458.08C828.71 458.04 828.64 457.99 828.58 457.95C828.35 457.78 828.11 457.61 827.87 457.44C827.76 457.36 827.66 457.28 827.55 457.2C827.35 457.05 827.15 456.89 826.96 456.74C826.82 456.63 826.69 456.52 826.55 456.41C826.37 456.27 826.2 456.12 826.02 455.97C825.87 455.84 825.71 455.71 825.56 455.58C825.4 455.44 825.23 455.29 825.07 455.14C824.9 454.99 824.74 454.85 824.57 454.69C824.41 454.54 824.25 454.38 824.08 454.23C823.91 454.07 823.74 453.91 823.58 453.75C823.4 453.58 823.22 453.39 823.05 453.21C822.9 453.05 822.74 452.9 822.59 452.74C822.26 452.4 821.93 452.04 821.59 451.68C821.13 451.17 820.66 450.63 820.18 450.07C816.66 445.95 813.04 440.61 809.36 433.76C809.36 433.76 814.53 439.24 822.4 443.18C823.51 443.74 824.68 444.26 825.89 444.73C827.54 445.38 829.26 445.93 831.06 446.34C831.04 445.35 830.56 444.13 829.67 442.78C829.08 441.88 828.31 440.93 827.38 439.95C826.16 438.68 824.69 437.38 822.98 436.11C818.84 433.04 813.38 430.2 807.31 428.68C806.33 428.43 805.33 428.22 804.31 428.04C802.27 427.69 800.18 427.5 798.06 427.5C797.9 427.5 797.76 427.48 797.6 427.48C796.55 428.5 795.55 429.45 794.59 430.33C792.26 432.48 790.18 434.23 788.29 435.66C785.95 437.45 783.93 438.71 782.2 439.55C770.24 445.36 772.2 430.69 776.37 423.62C781.93 414.2 775.89 410.58 776.37 394.17L776.32 394.1Z" fill="#007FDE"/>
<path d="M671.67 314.07C671.79 310.07 673.6 309.18 676.27 310.13C679.39 311.23 683.66 314.81 687.79 318.87C688.33 319.4 688.87 319.93 689.4 320.48C692.27 323.4 694.98 326.41 697.07 328.82C697.22 328.8 697.4 328.78 697.57 328.76C697.87 328.72 698.17 328.68 698.48 328.64C698.81 328.59 699.14 328.54 699.47 328.49C699.86 328.43 700.24 328.36 700.62 328.28C705.06 327.41 709.24 325.79 712.88 323.84C715.03 322.69 716.99 321.42 718.71 320.11C721.29 318.15 723.34 316.11 724.66 314.25C724.89 313.93 725.09 313.62 725.27 313.32C725.28 313.3 725.3 313.28 725.31 313.26C725.49 312.96 725.64 312.67 725.78 312.39C725.79 312.37 725.8 312.35 725.81 312.32C725.94 312.03 726.06 311.76 726.15 311.49C726.24 311.21 726.31 310.94 726.35 310.69C726.38 310.52 726.4 310.35 726.4 310.19C723.79 310.78 721.32 311.67 719.05 312.72C716.89 313.7 714.93 314.83 713.18 315.96C708.1 319.24 704.9 322.56 704.7 322.77C708.87 315 712.96 309.2 716.9 304.89C719.08 302.49 721.21 300.58 723.29 299.04C723.79 298.67 724.29 298.33 724.79 298C724.88 297.94 724.98 297.88 725.07 297.82C725.57 297.5 726.06 297.2 726.55 296.92C726.56 296.92 726.58 296.91 726.59 296.9C727.08 296.62 727.56 296.37 728.04 296.13C728.1 296.1 728.16 296.07 728.22 296.04C728.71 295.8 729.2 295.58 729.69 295.38C729.71 295.38 729.73 295.36 729.75 295.35C730.24 295.15 730.73 294.97 731.22 294.8C731.22 294.8 731.24 294.8 731.25 294.8C733.34 294.1 735.34 293.75 737.24 293.65C737.24 293.65 737.26 293.65 737.27 293.65C737.79 293.62 738.3 293.61 738.81 293.62C740.15 293.64 741.44 293.78 742.66 294C744.83 294.4 746.79 295.04 748.51 295.71C750.57 296.43 753.06 297.55 755.82 298.98C756.82 299.49 757.86 300.06 758.93 300.66C763.14 303.01 767.78 305.94 772.37 309.16C773.66 310.06 774.94 310.98 776.21 311.93C788.36 320.96 799.13 331.54 799.11 338.26C799.11 339.2 798.9 340.21 798.51 341.28C797.54 341.36 796.64 341.57 795.82 341.85C792.91 342.81 791.04 344.62 791.04 344.62L793.08 345.3L795.8 346.2C791.12 352.78 782.1 360.52 772.79 367.09C770.86 368.46 768.91 369.77 766.99 371C762.39 373.97 757.93 376.54 754.1 378.41C752.48 379.21 750.97 379.87 749.61 380.39C749.23 380.54 748.87 380.68 748.52 380.8C745.03 382.16 740.53 383.41 735.33 382.68C734.14 382.51 732.91 382.24 731.64 381.83C731.14 381.67 730.64 381.49 730.14 381.3C730.09 381.28 730.04 381.26 729.99 381.24C729.49 381.04 728.98 380.82 728.47 380.58C728.43 380.56 728.39 380.54 728.35 380.53C727.82 380.28 727.28 379.99 726.73 379.69C726.72 379.69 726.71 379.68 726.7 379.67C725.85 379.19 724.99 378.66 724.12 378.05C724.06 378.01 723.99 377.96 723.93 377.92C723.7 377.75 723.46 377.58 723.22 377.41C723.11 377.33 723.01 377.25 722.9 377.17C722.7 377.02 722.5 376.86 722.3 376.71C722.16 376.6 722.03 376.49 721.89 376.38C721.71 376.24 721.54 376.09 721.36 375.94C721.2 375.81 721.05 375.68 720.89 375.55C720.73 375.41 720.56 375.26 720.4 375.11C720.23 374.96 720.07 374.82 719.9 374.66C719.74 374.51 719.58 374.35 719.41 374.2C719.24 374.04 719.07 373.88 718.91 373.72C718.73 373.55 718.55 373.36 718.38 373.18C718.23 373.03 718.07 372.87 717.92 372.72C717.59 372.38 717.25 372.02 716.92 371.66C716.46 371.15 715.99 370.61 715.51 370.05C711.99 365.93 708.37 360.59 704.69 353.74C704.69 353.74 709.86 359.22 717.73 363.16C718.84 363.72 720.01 364.24 721.22 364.71C722.87 365.36 724.59 365.91 726.39 366.32C726.37 365.33 725.89 364.11 725 362.76C724.41 361.86 723.64 360.91 722.71 359.93C721.49 358.66 720.02 357.36 718.31 356.09C714.17 353.02 708.71 350.18 702.64 348.66C701.66 348.41 700.66 348.2 699.64 348.02C697.6 347.67 695.51 347.48 693.39 347.48C693.23 347.48 693.09 347.46 692.93 347.46C691.88 348.48 690.88 349.43 689.92 350.31C687.59 352.46 685.51 354.21 683.62 355.64C681.28 357.43 679.26 358.69 677.53 359.53C665.57 365.34 667.53 350.67 671.7 343.6C677.26 334.18 671.22 330.56 671.7 314.15L671.67 314.07Z" fill="#007FDE"/>
<path d="M782.75 1441.19C782.07 1424.41 781.78 1407.63 780.87 1390.91C780.15 1374.19 778.86 1357.55 776.47 1341.06C774.04 1324.55 771.06 1308.18 767.77 1291.67C764.61 1275.11 761.97 1258.36 760.62 1241.44C760.04 1232.97 759.72 1224.49 759.79 1215.98C759.88 1207.39 760.58 1198.83 761.77 1190.41C764.13 1173.55 767.8 1157.18 770.2 1140.78C775.03 1107.98 771.43 1074.33 762.66 1042.05L764.61 1041.46C770.16 1057.36 774.16 1073.87 776.43 1090.7C778.53 1107.54 778.59 1124.68 776.73 1141.61C774.98 1158.53 771.15 1174.96 769.13 1191.39C768.06 1199.6 767.48 1207.81 767.48 1216.01C767.5 1224.29 767.9 1232.59 768.56 1240.85C769.71 1257.41 772.12 1273.89 775.07 1290.34C778.07 1306.8 781.25 1323.45 783 1340.25C784.88 1357.06 785.68 1373.97 785.81 1390.8C785.74 1407.64 785.46 1424.43 784.8 1441.21H782.76L782.75 1441.19Z" fill="#37C8FF"/>
<path d="M782.75 1441.2C782.36 1432.35 782.54 1423.38 784.01 1414.52C785.4 1405.65 787.91 1397 790.78 1388.6C791.49 1386.49 792.26 1384.41 793.02 1382.33L794.17 1379.21L794.97 1376.26L798.21 1363.48C800.31 1354.93 802.37 1346.36 804.32 1337.78C808.16 1320.6 812.17 1303.46 815.44 1286.2C817.05 1277.58 818.6 1268.94 819.76 1260.3C821.06 1251.56 821.68 1243.22 821.68 1234.45C821.88 1216.45 824.51 1198.51 829.41 1181.22C834.23 1163.89 841.63 1147.34 850.58 1131.93C859.58 1116.51 869.83 1101.93 880.88 1088.06C892.05 1074.28 903.78 1061.04 915.93 1048.22L917.46 1049.57C906.32 1063.25 895.08 1076.82 884.79 1091.07C874.31 1105.16 864.64 1119.81 856.32 1135.14C848.18 1150.57 840.94 1166.42 836.55 1183.2C832 1199.91 829.65 1217.22 829.63 1234.5C829.56 1243.38 828.78 1252.67 827.37 1261.37C826.09 1270.21 824.44 1278.92 822.72 1287.63C819.15 1304.99 815.26 1322.26 810.71 1339.35C808.48 1347.91 806.16 1356.44 803.79 1364.95L800.13 1377.72L799.66 1379.32L799.08 1381.12L797.84 1384.18L795.42 1390.3C792.18 1398.44 789.35 1406.68 787.57 1415.18C785.77 1423.68 785.06 1432.41 784.81 1441.19L782.77 1441.21L782.75 1441.2Z" fill="#37C8FF"/>
<path d="M784.9 1426.17C784.35 1410.28 780.03 1394.85 772.9 1380.72C766.16 1366.41 757.29 1353.11 748.78 1339.48C740.15 1325.96 732.06 1311.58 726.45 1296.19C720.71 1280.97 716.57 1264.91 715.11 1248.53C714.39 1240.33 714.51 1232.11 714.59 1224.12C714.68 1216.09 714.82 1208.09 714.77 1200.12C714.69 1184.28 713.8 1168.21 710.42 1153.21C708.49 1145.82 705.16 1138.82 700.87 1132.34C696.63 1125.8 691.33 1119.99 686.07 1113.82C675.74 1101.5 665.78 1088.5 658.54 1074.03L660.32 1073.04C668.63 1086.69 678.78 1098.96 689.76 1110.56C695.13 1116.38 700.87 1122.3 705.62 1129.08C710.41 1135.81 714.34 1143.35 716.74 1151.42C725.13 1183.7 720.75 1216.64 723.01 1247.83C724.23 1263.45 727.98 1278.78 733.39 1293.63C736.01 1301.13 739.23 1308.17 742.8 1315.24C746.46 1322.24 750.39 1329.15 754.39 1336.07C762.39 1349.92 770.97 1363.68 777.38 1378.68C783.82 1393.58 787.74 1409.93 786.92 1426.2L784.88 1426.16L784.9 1426.17Z" fill="#37C8FF"/>
<path d="M783.87 1435.35C798.31 1435.69 812.16 1430.23 824.55 1423.02C837.05 1415.85 848.54 1406.86 858.8 1396.78C863.9 1391.73 868.71 1386.32 872.69 1380.66C876.67 1374.75 880.22 1368.44 883.83 1362.03C891.02 1349.36 898.85 1335.88 911.02 1325.97C934.81 1306.82 963.45 1297.52 986.52 1280.55C998.03 1272.13 1007.73 1261.33 1014.8 1248.83C1022.11 1236.43 1026.7 1222.5 1030.39 1208.37L1032.39 1208.79C1029.98 1223.32 1025.89 1237.76 1019.14 1251.18C1012.3 1264.54 1002.37 1276.41 990.54 1285.77C966.76 1304.47 938.09 1314.04 916.07 1332.12C905.2 1340.78 897.8 1353.22 890.45 1365.84C886.74 1372.15 882.97 1378.58 878.63 1384.76C874.09 1391.05 868.87 1396.47 863.35 1401.53C852.3 1411.6 840.17 1420.43 826.91 1427.35C813.66 1433.94 798.8 1439.11 783.69 1437.37L783.88 1435.34L783.87 1435.35Z" fill="#37C8FF"/>
<path d="M588.44 1187.55C590.77 1190.57 591.56 1194.15 592.34 1197.5C593.06 1200.89 593.53 1204.28 594.41 1207.38C596.64 1213.49 599.05 1220.17 601.74 1226.15C607.11 1238.24 615.7 1248.66 625.15 1258.14C634.77 1267.44 644.83 1276.95 654.68 1286.18C664.61 1295.54 674.64 1304.19 685.45 1312.72C696.04 1321.54 706.21 1331.36 714.39 1342.81C718.45 1348.47 722.11 1354.72 725.02 1361.02C728 1367.31 730.51 1373.67 733.18 1379.86C738.46 1392.24 744.78 1403.97 755.82 1411.45C761.14 1415.46 766.85 1419.06 772.79 1422.2C775.76 1423.78 778.8 1425.21 781.9 1426.47C784.99 1427.74 788.16 1428.86 791.38 1429.4L791.17 1431.43C784.07 1430.76 777.54 1428.22 771.23 1425.44C764.91 1422.61 758.82 1419.31 752.98 1415.48C750.07 1413.58 747.29 1411.37 744.61 1408.92C742.06 1406.39 739.64 1403.71 737.61 1400.8C733.42 1395.04 730.18 1388.8 727.2 1382.6C724.21 1376.39 721.48 1370.16 718.53 1364.17C715.59 1358.15 712.21 1352.66 708.23 1347.32C700.39 1336.66 690.78 1327.38 680.37 1318.86C669.84 1310.42 659.22 1301.24 649.44 1291.75L634.82 1277.38C630 1272.6 625.09 1267.83 620.4 1262.71C611.07 1252.56 602.37 1241.24 597.19 1228.07C595.94 1224.8 594.89 1221.5 593.89 1218.23L592.39 1213.34C591.92 1211.75 591.32 1210.12 590.92 1208.28C590.17 1204.76 589.92 1201.35 589.46 1198.02C589.01 1194.73 588.49 1191.37 586.81 1188.78L588.45 1187.56L588.44 1187.55Z" fill="#37C8FF"/>
<path d="M783.83 1431.6C792.46 1431.61 800.82 1428.63 808.33 1424.52C815.87 1420.37 822.6 1414.77 828.32 1408.51C833.99 1402.18 838.24 1394.76 841 1386.69C843.87 1378.65 845.5 1369.97 848.21 1361.32C850.77 1352.77 854.47 1343.72 860.7 1336.48C866.82 1329.14 874.72 1323.85 882.54 1319.38C890.41 1314.94 898.29 1311.06 905.7 1306.66C912.99 1302.33 919.57 1296.95 925.15 1290.61L930.2 1296.36L928.05 1297.78L903.18 1314.23L923.01 1292.03C930.16 1284.02 935.67 1274.54 940.12 1264.49L953.55 1233.67C958.07 1223.37 962.49 1213.03 967.17 1202.8C971.8 1192.55 976.36 1182.28 981.14 1172.1L983.01 1172.91C979.18 1183.48 975.14 1193.96 971.16 1204.47C967.23 1214.99 963.05 1225.41 958.97 1235.86L946.6 1267.31C942.16 1277.86 936.48 1288.18 928.81 1297.11L923.77 1291.37L925.91 1289.94L949.85 1273.88L930.96 1295.69C924.9 1302.68 917.65 1308.67 909.77 1313.42C902.01 1318.13 893.97 1322.01 886.41 1326.22C878.89 1330.45 871.87 1335.2 866.54 1341.45C861.06 1347.61 857.71 1355.21 855.04 1363.49C852.36 1371.69 850.23 1380.36 846.9 1388.9C843.61 1397.45 838.62 1405.51 832.21 1412.12C825.83 1418.73 818.3 1424.05 810.11 1427.98C801.95 1431.86 792.87 1434.48 783.72 1433.64L783.83 1431.6Z" fill="#37C8FF"/>
<path d="M782.77 1436.56C781.08 1429.46 778.77 1422.55 775.64 1416.08C772.47 1409.62 768.27 1403.82 763.41 1398.51C758.61 1393.16 753.23 1388.06 748.27 1382.44C743.31 1376.84 738.67 1370.82 734.81 1364.24C730.94 1357.66 727.96 1350.55 725.84 1343.25C723.79 1336.26 721.54 1329.42 718.7 1322.86C713.18 1309.73 705.12 1297.77 695.05 1287.7C685.06 1277.44 673.23 1268.49 662.88 1257.41C660.27 1254.66 657.95 1251.63 655.55 1248.71C653.36 1245.63 651.02 1242.64 649.08 1239.4C644.91 1233.1 641.51 1226.39 638.35 1219.62C632.16 1206 627.38 1191.92 623.29 1177.72C619.34 1163.47 615.83 1149.19 612.37 1134.9L614.33 1134.33C619.09 1148.28 623.16 1162.43 628 1176.26C632.61 1190.15 637.8 1203.83 644.28 1216.77C650.86 1229.63 658.51 1241.94 668.43 1252.17C678.3 1262.51 690.08 1271.39 700.72 1282.12C711.37 1292.92 720.04 1305.84 725.74 1319.91C728.61 1326.92 730.82 1334.12 732.78 1341.28C734.68 1348.13 737.2 1354.76 740.54 1361.01C743.9 1367.25 748.06 1373.1 752.65 1378.68C757.21 1384.28 762.36 1389.48 767.15 1395.3C771.89 1401.13 776.01 1407.62 778.91 1414.58C781.83 1421.53 783.68 1428.83 784.76 1436.17L782.76 1436.56H782.77Z" fill="#37C8FF"/>
<path d="M782.9 1418.04C786.44 1417.21 789.73 1415.67 792.71 1413.64C795.62 1411.49 798.29 1409.01 800.62 1406.2C805.27 1400.56 808.89 1394.06 811.86 1387.3C818.08 1373.87 820.8 1359.12 825 1344.43C827.06 1337.09 829.43 1329.71 832.74 1322.63C835.93 1315.5 840.27 1308.76 844.92 1302.66C849.6 1296.48 854.9 1290.67 860.82 1285.52C866.67 1280.52 872.27 1276.05 875.15 1270.22C876.61 1267.4 877.47 1264.07 878.17 1260.51C878.86 1256.99 879.32 1253.3 879.87 1249.51C880.42 1245.73 881.08 1241.81 882.17 1237.92C883.25 1234.15 884.49 1230.45 885.96 1226.84C888.89 1219.62 892.48 1212.69 896.69 1206.15C900.87 1199.51 906.1 1193.54 911.61 1188.2C917.12 1182.82 922.92 1177.9 928.59 1172.95C934.27 1168.04 939.75 1162.94 945.24 1157.77C956.34 1147.58 967.32 1137 979.66 1128.12L980.92 1129.72C969.54 1139.55 959.14 1150.37 948.68 1161.3C943.4 1166.7 937.99 1172.06 932.45 1177.24C926.92 1182.41 921.38 1187.47 916.28 1192.83C911.17 1198.2 906.58 1203.82 902.79 1210.01C898.95 1216.24 895.68 1222.83 893.06 1229.65C891.77 1233.06 890.6 1236.52 889.63 1240.02C888.7 1243.4 888.11 1246.95 887.6 1250.63C886.47 1258.01 886.06 1265.85 882.22 1273.85C878.2 1281.68 871.43 1286.71 865.91 1291.45C860.4 1296.16 855.48 1301.56 850.95 1307.33C846.35 1313.16 842.37 1319.11 839.26 1325.72C836.1 1332.28 833.59 1339.25 831.29 1346.34C826.67 1360.47 823.36 1375.6 816.31 1389.43C812.8 1396.29 808.62 1402.88 803.31 1408.6C800.64 1411.45 797.61 1413.98 794.3 1416.11C790.87 1418.08 787.12 1419.48 783.22 1420.07L782.89 1418.06L782.9 1418.04Z" fill="#37C8FF"/>
<path d="M779.62 1421.5C783.4 1411.56 786.28 1401.34 788.34 1390.96C790.37 1380.56 791.34 1369.99 791.93 1359.4C793.2 1338.21 792.28 1316.87 792.44 1295.4C792.52 1284.66 792.82 1273.87 793.88 1263.09C794.9 1252.45 795.88 1241.85 796.6 1231.23C797.33 1220.62 797.81 1210.01 797.96 1199.4C798.07 1194.06 797.94 1188.88 797.96 1183.42C797.94 1177.96 798.15 1172.49 798.66 1167.06C800.66 1145.27 806.67 1124.14 814.49 1104.02C822.33 1083.85 831.96 1064.63 841.46 1045.52C850.92 1026.38 860.19 1007.19 867.52 987.26C871.22 977.32 874.59 967.24 877.08 956.92C879.56 946.61 881.4 936.14 882.47 925.55L884.51 925.68C883.72 947.21 878.96 968.48 872.17 988.9C865.29 1009.33 856.38 1028.94 847.4 1048.36C838.52 1067.84 828.83 1086.86 821.43 1106.67C813.94 1126.42 808.34 1146.89 806.6 1167.77C806.06 1172.97 805.83 1178.2 805.8 1183.43C805.74 1188.67 805.83 1194.17 805.67 1199.52C805.44 1210.29 804.86 1221.04 804.03 1231.76C803.22 1242.47 802.14 1253.16 801.03 1263.79C799.98 1274.29 799.43 1284.88 799.05 1295.51C798.34 1316.78 798.76 1338.25 796.88 1359.74C795.84 1370.46 794.41 1381.18 791.9 1391.69C789.42 1402.2 785.96 1412.47 781.54 1422.28L779.66 1421.48L779.62 1421.5Z" fill="#37C8FF"/>
<path d="M783.91 1404.34C785.48 1400.21 785.9 1395.7 785.76 1391.23C785.64 1386.75 784.96 1382.26 784 1377.84C782.02 1369.02 779.1 1360.28 775.5 1352.01C771.89 1343.67 767.67 1335.49 763.81 1327.01C759.97 1318.43 756.65 1309.9 753.4 1301.14C750.23 1292.39 747.33 1283.44 745.7 1274.02C744.04 1264.66 743.54 1255.27 743.05 1246.08C742.27 1227.75 739.99 1209.74 736.14 1191.89C734.34 1182.96 732.17 1174.09 729.69 1165.32C728.44 1160.96 727.15 1156.51 725.69 1152.29C724.29 1148.08 722.56 1143.94 720.67 1139.83C716.93 1131.6 712.51 1123.49 708.63 1114.93C704.69 1106.44 701.44 1097.25 700.4 1087.57C699.77 1082.76 699.95 1077.86 700.4 1073.04C700.8 1070.66 701.2 1068.24 701.68 1065.92L703.34 1059.15C705.63 1050.18 708.04 1041.41 709.05 1032.48C710.22 1023.53 709.96 1014.58 706.96 1006.1C704.13 997.74 699.04 989.73 691.15 985.52L692.03 983.68C696.42 985.65 700.22 988.79 703.28 992.47C706.31 996.19 708.59 1000.44 710.35 1004.87C712.11 1009.3 713.28 1013.96 713.84 1018.73C714.4 1023.56 714.3 1028.24 713.97 1032.97C713.24 1042.42 710.95 1051.57 708.96 1060.5L707.53 1067.2C707.15 1069.4 706.86 1071.54 706.55 1073.71C706.29 1078.07 706.23 1082.44 706.94 1086.76C709.41 1104.21 719.49 1119.81 727.42 1136.72C729.41 1140.97 731.29 1145.32 732.85 1149.84C734.43 1154.31 735.76 1158.71 737.09 1163.19C739.71 1172.13 742.02 1181.16 743.95 1190.28C747.7 1208.5 749.88 1227.21 750.48 1245.73C750.88 1254.94 751.29 1264 752.77 1272.83C754.26 1281.6 756.82 1290.33 759.64 1299C762.54 1307.61 765.67 1316.37 769.12 1324.72C772.64 1333.13 776.67 1341.45 780.08 1350.16C783.41 1358.96 785.93 1367.93 787.56 1377.18C789.05 1386.33 789.74 1396.24 785.8 1405.18L783.93 1404.36L783.91 1404.34Z" fill="#37C8FF"/>
<path d="M786.34 1413.51C784.31 1405.58 780.92 1398.17 776.39 1391.43C771.61 1384.85 766 1378.93 759.97 1373.4C747.87 1362.33 734.35 1352.6 722.28 1340.63C716.38 1334.54 710.57 1328.06 706.53 1320.24C705.31 1318.42 704.67 1316.28 703.73 1314.3C702.84 1312.29 701.97 1310.27 701.4 1308.16C700.06 1304 699.22 1299.73 698.56 1295.48C696.09 1278.41 697.68 1261.63 695.88 1245.66C695.53 1241.64 694.85 1237.75 694.02 1233.86C693.09 1229.89 692.12 1225.92 690.97 1222C688.75 1214.14 686.07 1206.43 682.98 1198.88C676.81 1183.79 668.78 1169.45 658.97 1156.52C649.01 1143.55 637.54 1131.4 627.31 1118.14C622.25 1111.47 617.42 1104.56 613.35 1097.16C609.27 1089.8 606.02 1081.8 604.84 1073.37L606.85 1073.01C610.54 1089.01 620.66 1102.53 631.15 1115.04C641.66 1127.72 653.41 1139.41 664.13 1152.43C674.98 1165.52 683.19 1180.51 689.83 1196.01C693.11 1203.79 695.98 1211.75 698.36 1219.84C699.59 1223.88 700.63 1227.97 701.64 1232.06C702.59 1236.27 703.38 1240.56 703.79 1244.82C705.47 1261.89 703.73 1278.53 705.91 1294.42C706.49 1298.37 707.21 1302.28 708.38 1306.03C708.87 1307.95 709.63 1309.74 710.41 1311.53C711.24 1313.3 711.74 1315.21 712.85 1316.86L715.8 1321.98L719.28 1326.82C720.37 1328.48 721.73 1329.98 723.02 1331.52C724.34 1333.04 725.56 1334.63 727.03 1336.06C738.16 1347.89 751.4 1358.07 763.4 1369.84C769.3 1375.85 774.81 1382.32 779.43 1389.46C783.86 1396.75 786.92 1404.8 788.37 1413.14L786.36 1413.51H786.34Z" fill="#37C8FF"/>
<path d="M774.52 1426.6C779.26 1426.45 784.02 1426.09 788.45 1424.6C792.89 1423.18 797.03 1421 800.63 1418.11C807.74 1412.15 812.55 1403.83 815.76 1395.01C819.2 1386.22 820.82 1376.84 823.04 1367.29C825.23 1357.8 827.81 1348.27 831.58 1339.03C833.52 1334.44 835.7 1329.92 838.3 1325.59C840.97 1321.32 843.96 1317.21 847.38 1313.47C854.2 1305.91 862.55 1300.03 870.75 1294.82C879 1289.55 887.28 1284.67 894.96 1279.17C902.53 1273.63 909.62 1267.46 914.31 1259.85C915.64 1258.04 916.46 1255.98 917.53 1254.02C918.36 1251.87 919.36 1249.79 920.04 1247.56C921.64 1243.21 922.73 1238.62 923.8 1234.04C925.77 1224.79 926.99 1215.27 928.32 1205.65C929.67 1196.04 931.08 1186.29 933.73 1176.67C936.36 1166.94 940.28 1157.99 944.49 1149.08C952.97 1131.33 964.24 1114.93 977.66 1100.62C991.21 1086.42 1007 1074.49 1024.08 1065.18L1025.11 1066.94C992.36 1087.28 965.93 1117 950.46 1151.87C949.43 1154.02 948.54 1156.23 947.65 1158.43C946.74 1160.63 945.83 1162.83 945.06 1165.08C943.39 1169.58 941.77 1173.94 940.66 1178.51C938.24 1187.59 936.95 1197.07 935.7 1206.63C934.47 1216.19 933.32 1225.91 931.35 1235.63C930.27 1240.47 929.15 1245.34 927.47 1250.1C926.75 1252.51 925.68 1254.83 924.78 1257.19C923.58 1259.5 922.56 1261.97 921.06 1264.1C915.43 1272.98 907.49 1279.64 899.45 1285.42C891.33 1291.13 882.86 1296 874.75 1301.08C866.6 1306.15 858.92 1311.5 852.68 1318.29C846.43 1325.08 841.49 1333.04 837.65 1341.61C833.85 1350.21 831.09 1359.36 828.66 1368.66C826.23 1377.88 824.3 1387.65 820.36 1396.82C816.56 1405.95 810.98 1414.77 802.87 1420.94C798.77 1423.94 794.12 1426.12 789.27 1427.41C784.4 1428.72 779.37 1428.79 774.46 1428.63L774.54 1426.59L774.52 1426.6Z" fill="#37C8FF"/>
<path d="M782.11 1427.26C785.58 1417.54 792.87 1410.17 798.98 1402.66C802.07 1398.89 804.99 1395.03 807.1 1390.85C809.25 1386.64 810.91 1382.06 812.32 1377.47C815.24 1368.21 816.67 1358.75 818.43 1348.86C820.3 1339.07 822.74 1329.37 825.77 1319.85C831.75 1300.76 840.31 1282.65 850.06 1265.27C859.87 1248.01 870.86 1231.64 876.86 1213.55C878.42 1209.07 879.54 1204.47 880.4 1199.87C881.14 1195.42 881.17 1190.72 881.06 1185.85C880.96 1180.98 880.71 1175.93 881.1 1170.72C881.4 1165.52 882.64 1160.1 884.53 1155.29C888.28 1145.51 894.01 1137.03 899.76 1128.95C902.6 1124.96 905.64 1120.81 908.93 1116.99C912.22 1113.15 915.72 1109.53 919.34 1106.05C933.78 1092.1 950.23 1080.86 965.35 1068.53C972.91 1062.37 980.19 1055.83 986.38 1048.39C989.5 1044.69 992.3 1040.74 994.55 1036.5C996.83 1032.29 998.58 1027.77 999.3 1023.03L1001.33 1023.26C1000.34 1033.46 995.29 1042.74 989.21 1050.64C983.13 1058.65 975.96 1065.67 968.55 1072.3C953.5 1085.32 937.55 1096.85 923.97 1110.74C917.1 1117.65 911.17 1125.02 905.61 1133.09C900.02 1141.07 894.72 1149.18 891.49 1157.9C889.85 1162.28 888.89 1166.6 888.65 1171.24C888.34 1175.86 888.61 1180.68 888.76 1185.66C888.92 1190.63 888.96 1195.84 888.13 1201.14C887.23 1206.23 886.06 1211.24 884.41 1216.09C877.73 1235.52 866.25 1252.11 856.51 1268.97C846.75 1285.83 838.51 1303.61 832.03 1321.93C828.82 1331.11 826.18 1340.5 824.1 1350.01C822.13 1359.46 820.36 1369.53 817.02 1379C815.32 1383.75 813.4 1388.41 810.87 1392.87C808.31 1397.39 805.05 1401.29 801.73 1405C795.17 1412.41 787.83 1419.12 784.03 1427.97L782.12 1427.25L782.11 1427.26Z" fill="#37C8FF"/>
<path d="M785.23 1411.14C791.91 1404.4 797.22 1396.39 801.28 1387.83C805.36 1379.28 808.36 1370.2 810 1360.92C811.75 1351.69 812.29 1342.18 810.67 1333.13C809.24 1324.19 804.36 1316.07 799.46 1307.85C796.98 1303.72 794.44 1299.53 792.17 1295.06C791.03 1292.84 790.03 1290.46 789.13 1288.12L786.65 1281.22C783.49 1271.96 780.74 1262.53 779.09 1252.69C775.98 1233.17 776.46 1213.08 780.66 1193.74C782.79 1184.08 785.9 1174.68 789.61 1165.57L795.38 1152.27C797.24 1147.9 798.94 1143.47 800.48 1139.01C806.64 1121.29 810.08 1102.05 805.3 1084.36C799.78 1066.64 789.22 1050.1 780.82 1032.63C776.65 1023.84 772.91 1014.72 770.6 1005.15C768.25 995.61 767.56 985.57 769.17 975.88L771.19 976.14C770.25 985.62 771.46 995.15 774.08 1004.23C776.72 1013.33 780.74 1021.98 785.23 1030.42C794 1047.42 805.02 1063.42 811.61 1082.48C814.69 1092.22 815.18 1102.56 814.1 1112.47C813.06 1122.42 810.63 1132.07 807.51 1141.4C805.95 1146.07 804.23 1150.67 802.35 1155.19L796.73 1168.48C793.25 1177.26 790.37 1186.27 788.42 1195.47C784.26 1213.81 783.62 1232.93 786.41 1251.54C787.86 1260.75 790.43 1269.93 793.42 1278.95L795.77 1285.69C796.56 1287.86 797.45 1289.92 798.44 1292.03C800.42 1296.22 802.76 1300.36 805.14 1304.57C809.8 1312.95 814.96 1321.91 816.36 1332.23C817.84 1342.27 816.98 1352.32 814.83 1361.94C812.66 1371.58 809.12 1380.83 804.5 1389.49C799.94 1398.17 793.98 1406.17 786.61 1412.67L785.23 1411.16V1411.14Z" fill="#37C8FF"/>
<path d="M775.2 1409.73C776.72 1408.13 777.55 1405.79 778.21 1403.5C778.88 1401.19 779.23 1398.74 779.56 1396.3C780.16 1391.4 780.4 1386.43 780.59 1381.43C780.81 1376.44 780.78 1371.38 781.5 1366.21C782.16 1361.17 783.02 1356.14 784.2 1351.17C786.56 1341.22 790.16 1331.56 794.6 1322.37L808.27 1295.52C812.67 1286.6 816.63 1277.54 819.59 1268.26C822.56 1258.98 824.11 1249.36 824.04 1239.78C823.96 1237.41 823.82 1234.95 823.61 1232.66C823.37 1230.44 822.82 1228.24 822.11 1226.07C820.69 1221.72 818.39 1217.51 815.91 1213.26C813.41 1209.02 810.68 1204.67 808.3 1200.02C805.96 1195.48 803.77 1190.86 801.75 1186.17C797.79 1176.74 794.5 1167.04 791.83 1157.21C789.03 1147.34 787.34 1137.06 786.78 1126.76C786.55 1121.58 786.56 1116.36 787.24 1111.08C787.86 1105.78 789.46 1100.4 791.67 1095.64C796.05 1085.99 802.19 1077.82 807.5 1069.5C818.32 1053.27 823.14 1033.58 824.22 1013.93C825.38 994.17 822.56 974.22 817.8 954.84L819.76 954.28C825.86 973.5 829.35 993.7 829.15 1014.11C828.64 1034.4 824.16 1055.29 813.09 1072.96C807.86 1081.69 802.09 1089.86 798.2 1098.55C796.24 1102.92 794.98 1107.29 794.46 1111.97C793.9 1116.65 793.92 1121.51 794.18 1126.35C794.8 1136.09 796.46 1145.72 799.23 1155.15C801.91 1164.67 805.16 1174 809.06 1183.04C810.97 1187.58 813.05 1192.05 815.26 1196.46C817.41 1200.77 819.99 1204.96 822.55 1209.38C825.08 1213.81 827.61 1218.48 829.28 1223.71C830.11 1226.31 830.76 1229.02 831.04 1231.79C831.27 1234.49 831.4 1237.05 831.46 1239.69C831.46 1250.18 829.64 1260.61 826.4 1270.42C823.23 1280.26 818.87 1289.56 814.13 1298.5L799.75 1324.95C795.21 1333.71 791.55 1342.88 788.96 1352.4C787.62 1357.14 786.56 1361.98 785.7 1366.86C784.82 1371.61 784.61 1376.63 784.17 1381.64C783.76 1386.66 783.31 1391.71 782.45 1396.74C781.95 1399.25 781.45 1401.77 780.58 1404.24C779.7 1406.68 778.71 1409.21 776.62 1411.19L775.2 1409.72V1409.73Z" fill="#37C8FF"/>
<path d="M543.12 1370C543.12 1370 541.4 1354.65 538.38 1327.8C536.94 1314.31 535.11 1297.9 533.73 1278.92C532.43 1259.94 531.45 1238.4 532.01 1214.78C532.26 1208.87 532.37 1202.84 532.76 1196.7C533.27 1190.55 533.5 1184.28 534.26 1177.92C535.05 1171.57 535.6 1165.08 536.77 1158.55C537.29 1155.28 537.82 1151.98 538.35 1148.66C538.88 1145.34 539.68 1142.03 540.33 1138.68C541.04 1135.34 541.67 1131.96 542.47 1128.58C543.34 1125.22 544.22 1121.84 545.1 1118.44C545.54 1116.74 545.99 1115.03 546.43 1113.32C546.9 1111.42 547.41 1109.96 547.91 1108.25C548.91 1104.95 549.91 1101.63 550.92 1098.29C555.07 1084.95 559.31 1071.32 563.63 1057.45C572.07 1029.9 580.64 1001.63 584.95 972.34C585.43 968.68 585.91 965.01 586.39 961.34L587.12 955.82C587.31 954.23 587.45 952.1 587.62 950.26C587.92 946.47 588.32 942.57 588.54 938.85L589.13 927.74C589.66 912.77 589.19 898.04 586.31 883.84C584.83 876.73 582.8 869.66 580.46 862.43C578.09 855.17 575.62 847.74 573.36 840.2C571.14 832.64 569.13 825.01 567.43 817.36L566.21 811.62L565.61 808.75L565.46 808.03L565.35 807.45L565.29 807.1L565.06 805.69C564.45 801.92 563.84 798.16 563.23 794.4C558.37 763.39 558.76 732.69 561.88 703.42C563.35 688.77 565.92 674.53 568.75 660.7C571.48 647.09 574.56 633.7 576.98 620.72C578.16 614.23 579.32 607.82 580.46 601.52C581.01 598.36 581.65 595.24 582.12 592.12C582.55 589 582.98 585.89 583.4 582.82C584.25 576.67 585.09 570.62 585.91 564.68C586.11 563.19 586.31 561.72 586.52 560.25C586.63 558.77 586.75 557.31 586.86 555.84C587.09 552.92 587.31 550.02 587.53 547.15C587.98 541.41 588.41 535.8 588.84 530.31L589 528.26C589.05 527.8 589.02 526.95 589.04 526.31C589.04 524.94 589.05 523.58 589.06 522.22C589.08 519.51 589.09 516.84 589.11 514.19C589.13 503.63 589.43 493.57 588.77 484.26C588.31 474.9 587.99 466.15 587.5 458.03C586.95 449.9 586.44 442.44 585.98 435.69C585.18 422.18 584.54 411.56 584.11 404.32C583.69 397.08 583.47 393.22 583.47 393.22L585.37 393.1C585.37 393.1 585.76 396.94 586.48 404.15C587.22 411.36 588.29 421.92 589.67 435.37C590.37 442.1 591.14 449.55 591.98 457.67C592.75 465.8 593.36 474.66 594.14 484.1C595.12 493.57 595.14 503.57 595.47 514.14C595.54 516.78 595.62 519.46 595.69 522.16C595.73 523.51 595.77 524.88 595.8 526.25C595.8 526.99 595.86 527.51 595.83 528.43L595.74 530.52C595.49 536.1 595.24 541.82 594.98 547.65C594.85 550.57 594.72 553.52 594.59 556.5C594.52 557.99 594.46 559.49 594.39 560.99C594.24 562.48 594.08 563.99 593.93 565.49C593.3 571.53 592.65 577.68 591.99 583.93C591.66 587.06 591.32 590.21 590.99 593.4C590.61 596.58 590.07 599.75 589.61 602.97C588.65 609.4 587.68 615.92 586.69 622.53C584.65 635.74 582.02 649.05 579.69 662.87C577.35 676.44 575.28 690.36 574.31 704.6C572.16 732.98 572.78 762.7 578.27 791.73C579 795.46 579.72 799.21 580.45 802.95L580.72 804.36L580.79 804.71C580.85 805.03 580.79 804.67 580.82 804.83L580.99 805.51L581.65 808.23L582.97 813.69C584.78 820.95 586.88 828.14 589.18 835.3C591.53 842.45 594.1 849.61 596.72 856.96C599.32 864.36 601.79 872.09 603.66 880.07C607.3 896.13 608.35 912.5 607.95 928.28L607.49 940.21C607.31 944.16 606.98 947.9 606.74 951.75C606.59 953.73 606.51 955.42 606.3 957.63L605.62 963.49C605.17 967.39 604.72 971.29 604.26 975.18C600.06 1006.22 591.84 1035.71 583.37 1063.54C579.14 1077.37 574.99 1090.97 570.92 1104.28C569.93 1107.62 568.95 1110.95 567.97 1114.25C567.51 1115.86 566.92 1117.66 566.57 1119.09C566.15 1120.7 565.73 1122.3 565.31 1123.89C564.47 1127.08 563.63 1130.26 562.8 1133.41C562.03 1136.58 561.44 1139.78 560.75 1142.93C560.12 1146.09 559.35 1149.2 558.84 1152.35C558.33 1155.5 557.82 1158.62 557.32 1161.72C556.19 1167.9 555.65 1174.09 554.87 1180.13C554.07 1186.17 553.74 1192.19 553.17 1198.05C552.7 1203.93 552.51 1209.74 552.18 1215.41C551.29 1238.15 551.91 1259.13 552.9 1277.75C553.86 1296.38 555.01 1312.68 556.07 1326.13C557.14 1339.57 558 1350.25 558.46 1357.49C558.93 1364.72 559.18 1368.58 559.18 1368.58L543.13 1369.99L543.12 1370Z" fill="#007FDE"/>
<path d="M564.63 1369.87C564.63 1369.87 564.55 1369 564.4 1367.31C564.27 1365.61 564.09 1363.1 563.84 1359.81C563.4 1353.3 563 1343.77 562.87 1331.64C562.79 1319.51 562.95 1304.78 563.96 1287.9C564.99 1271.03 566.93 1252.01 570.19 1231.39C570.6 1228.81 571.01 1226.21 571.42 1223.57C571.92 1220.95 572.42 1218.3 572.92 1215.63C573.92 1210.28 574.92 1204.83 576.27 1199.34C578.68 1188.35 581.95 1176.95 585.28 1165.58C592.07 1143.07 599.51 1119.45 606.7 1094.99C610.23 1082.75 613.96 1070.33 617.24 1057.72C620.84 1045.13 623.63 1032.31 626.64 1019.39C628.03 1012.92 629.05 1006.39 630.28 999.86C630.84 996.59 631.55 993.32 631.98 990.03L633.15 980.14L634.33 970.23C634.51 968.58 634.81 966.93 634.89 965.27L635.15 960.3L636.16 940.68L635.91 930.43C635.82 927.02 635.35 924.03 635.11 920.81C634.89 917.68 634.38 914.4 633.87 911.13C633.37 907.86 632.94 904.6 632.25 901.32C629.9 888.24 626.65 875.1 623.83 861.86C620.88 848.66 618.31 835.28 616.54 821.92C616.14 818.57 615.73 815.23 615.33 811.91C615.02 808.57 614.85 805.22 614.61 801.89C613.98 795.25 614.21 788.59 614.11 782.03C614.36 755.69 619.34 730.55 626.4 707.77C633.44 685.29 640.95 664.16 648.36 645C655.74 625.79 663.12 608.49 668.74 592.93C674.44 577.39 678.03 563.45 679.9 551.73C681.79 540.02 682.52 530.67 682.83 524.3C683.11 517.92 683.25 514.51 683.25 514.51H685.16C685.16 514.51 685.18 517.94 685.21 524.37C685.19 530.8 684.92 540.26 683.57 552.26C682.22 564.26 679 578.69 673.83 594.66C668.72 610.65 661.99 628.22 655.38 647.57C648.73 666.93 642.1 687.95 635.88 710.56C629.83 732.85 625.95 757.03 626.61 782.03C626.94 788.27 626.93 794.57 627.76 800.87C628.1 804.03 628.37 807.2 628.78 810.37C629.28 813.53 629.78 816.71 630.27 819.89C632.41 832.62 635.33 845.4 638.71 858.36C641.99 871.33 645.65 884.44 648.51 898.11C649.32 901.48 649.89 904.96 650.52 908.42C651.15 911.87 651.8 915.32 652.18 919C652.57 922.57 653.18 926.36 653.37 929.77L653.92 940.01L653.95 940.65V941.31V941.64L653.92 942.95L653.86 945.58L653.74 950.84L653.49 961.36C653.55 968.4 652.49 975.31 651.87 982.25L650.81 992.65C650.41 996.1 649.74 999.49 649.22 1002.91C648.06 1009.71 647.1 1016.56 645.77 1023.27C642.9 1036.62 640.24 1049.94 636.79 1062.79C635.12 1069.23 633.64 1075.72 631.84 1082.01C630.06 1088.31 628.29 1094.57 626.53 1100.77C619.38 1125.53 612.19 1149.27 605.22 1171.69C598.45 1193.77 593.62 1214.86 590.08 1234.72C586.58 1254.55 584.38 1272.95 583.09 1289.31C581.72 1305.67 580.92 1319.99 580.61 1331.79C580.34 1343.59 580.39 1352.85 580.44 1359.15C580.51 1362.27 580.57 1364.66 580.6 1366.27C580.66 1367.89 580.69 1368.72 580.69 1368.72L564.61 1369.87H564.63Z" fill="#007FDE"/>
<path d="M560.77 1368.26C560.77 1368.26 561.07 1365.48 561.64 1360.25C562.2 1355.04 563.23 1347.47 564.69 1337.86C566.17 1328.25 568.03 1316.6 570.59 1303.3C573.16 1290.01 576.32 1275.06 580.3 1258.86C582.3 1250.76 584.48 1242.35 586.84 1233.66C589.35 1225.01 591.84 1216.05 594.81 1206.93C600.4 1188.61 607.41 1169.6 615.38 1150.19C617.44 1145.36 619.52 1140.49 621.62 1135.59C623.78 1130.82 625.95 1126.02 628.14 1121.18C632.5 1111.49 636.86 1101.8 641.07 1091.91C649.53 1072.16 657.54 1051.98 663.82 1031.48C670.06 1010.96 674.13 989.97 675.42 968.87C676.82 947.79 675.94 926.73 674.24 906.37C672.36 886.08 669.95 866.04 668.73 847.02C667.44 828.01 666.98 809.85 668.49 793.08C669.94 776.33 673.66 761 679.48 748.49C685.16 735.89 692.79 726.41 699.55 719.41C701.27 717.67 702.84 715.97 704.42 714.49C706.06 713.07 707.59 711.73 709.02 710.49C710.45 709.26 711.77 708.11 712.98 707.07C714.26 706.11 715.42 705.24 716.46 704.45C720.61 701.33 722.82 699.67 722.82 699.67L723.96 701.2C723.96 701.2 721.87 702.97 717.96 706.3C716.98 707.13 715.89 708.06 714.69 709.08C713.56 710.18 712.33 711.38 711.01 712.67C709.69 713.96 708.26 715.36 706.75 716.84C705.29 718.38 703.87 720.13 702.3 721.91C699.06 725.39 696.11 729.74 692.83 734.37C691.4 736.82 689.92 739.37 688.38 742.01C687.01 744.74 685.79 747.67 684.42 750.63C679.47 762.73 676.61 777.39 675.96 793.59C675.27 809.8 676.49 827.49 678.58 846.15C680.61 864.83 683.82 884.32 686.67 905.03C689.31 925.69 691.2 947.33 690.7 969.58C690.36 991.83 686.67 1014.49 680.92 1036.31C675.22 1058.19 667.28 1079.16 659.1 1099.41C655.04 1109.55 650.78 1119.56 646.63 1129.33C644.54 1134.22 642.46 1139.08 640.4 1143.9C638.42 1148.65 636.45 1153.37 634.5 1158.05C626.91 1176.87 620.35 1195.42 614.71 1213.24C608.98 1231.02 604.25 1248.08 600 1263.86C595.91 1279.69 592.29 1294.24 589.42 1307.23C586.46 1320.19 584.04 1331.54 582.19 1340.91C580.36 1350.28 579.01 1357.66 578.09 1362.67C577.22 1367.67 576.76 1370.33 576.76 1370.33L560.77 1368.25V1368.26Z" fill="#007FDE"/>
<path d="M543.52 1371.91C543.52 1371.91 542.53 1369.14 540.69 1363.94C538.89 1358.77 536.41 1351.17 533.55 1341.42C530.69 1331.67 527.4 1319.77 524.06 1306.01C520.85 1292.22 517.6 1276.55 514.82 1259.29C513.41 1250.67 512.13 1241.64 511.04 1232.26C509.89 1222.88 509.09 1213.13 508.55 1203.06C507.5 1182.99 507.51 1161.43 510.13 1139.5C511.22 1128.9 512.63 1117.74 514.23 1106.63C515.9 1095.56 517.8 1084.38 519.89 1073.21C524.01 1050.83 528.82 1028.44 531.82 1006.33C533.32 995.27 534.06 984.24 534.09 973.25C534.17 962.29 532.98 951.23 531.57 940.57C531.13 937.78 530.68 935 530.24 932.22C529.75 929.52 529.27 926.82 528.78 924.13C527.76 918.77 526.66 913.37 525.42 908.06C523 897.42 520.24 886.96 517.33 876.68C511.5 856.13 505.08 836.3 499.77 817.15C494.39 798.04 490.24 779.57 487.82 762.31C485.36 745.05 484.63 729.06 484.85 714.95C485.09 700.83 486.32 688.59 487.66 678.58C488.38 673.58 489.06 669.13 489.81 665.28C490.5 661.42 491.1 658.15 491.71 655.52C492.85 650.25 493.45 647.43 493.45 647.43L495.32 647.81C495.32 647.81 494.89 650.64 494.07 655.94C493.63 658.58 493.22 661.87 492.77 665.73C492.25 669.58 491.85 674.03 491.43 679C490.62 688.95 489.94 701.06 490.37 714.92C490.8 728.77 492.25 744.35 495.44 761.06C498.61 777.78 503.42 795.59 509.55 814.2C515.61 832.83 522.88 852.29 529.71 872.87C533.12 883.16 536.41 893.72 539.38 904.56C540.89 909.98 542.26 915.44 543.59 921.03C544.22 923.83 544.85 926.63 545.49 929.44C546.06 932.19 546.62 934.96 547.19 937.72C549.18 949.38 550.81 960.96 551.18 972.89C551.57 984.74 551.18 996.68 550.02 1008.42C547.62 1031.9 543 1054.5 539.47 1076.63C537.63 1087.7 536.03 1098.67 534.58 1109.52C533.11 1120.34 531.84 1130.89 530.81 1141.7L530.4 1145.7L530.2 1147.7L530.06 1149.52C529.86 1152.09 529.67 1154.66 529.48 1157.21C529.25 1162.33 528.96 1167.4 528.88 1172.44C528.67 1182.51 528.79 1192.4 529.3 1202.03C530.32 1221.29 532.09 1239.54 534.54 1256.31C536.91 1273.09 539.82 1288.39 542.63 1301.91C545.37 1315.45 548.13 1327.18 550.55 1336.8C553.01 1346.41 555.07 1353.92 556.49 1359.02C557.97 1364.05 558.75 1366.73 558.75 1366.73L543.5 1371.95L543.52 1371.91Z" fill="#007FDE"/>
<path d="M543.93 1372.88C543.93 1372.88 543.63 1372.3 543.05 1371.19C542.5 1370.1 541.68 1368.48 540.62 1366.37C538.51 1362.16 535.58 1355.96 532.18 1347.93C525.3 1331.92 516.24 1308.69 508.46 1279.76C504.64 1265.29 500.94 1249.45 498.31 1232.42C495.62 1215.41 493.73 1197.25 493.47 1178.33C493.44 1173.6 493.42 1168.83 493.57 1164.02C493.73 1159.21 493.92 1154.32 494.21 1149.67C494.7 1140.23 495.49 1130.56 496.23 1120.94C497.75 1101.65 499.58 1082.11 500.95 1062.83C502.43 1043.54 502.82 1024.59 500.53 1006.13C498.34 987.66 493.71 969.61 488.28 952.33C485.53 943.69 482.63 935.23 479.63 926.98C478.13 922.91 476.6 918.68 475.1 914.88C474.29 912.88 473.48 910.9 472.68 908.93C471.84 907.05 471.01 905.18 470.17 903.32C463.2 888.32 455.57 874.13 449.73 860.47C443.77 846.85 439.34 833.89 436.29 822.21C433.11 810.55 431.53 800.14 430.28 791.61C429.86 787.32 429.49 783.48 429.17 780.15C428.85 776.82 428.83 773.97 428.69 771.66C428.47 767.06 428.35 764.6 428.35 764.6L430.25 764.49C430.25 764.49 430.53 766.91 431.06 771.46C431.36 773.73 431.57 776.54 432.11 779.81C432.65 783.07 433.28 786.82 433.98 791.02C434.93 795.17 435.75 799.81 436.99 804.77C438.28 809.72 439.64 815.08 441.52 820.68C445.11 831.92 450.09 844.27 456.62 857.24C463.06 870.27 471.22 883.77 479.22 898.91C480.21 900.85 481.2 902.8 482.2 904.77C483.11 906.7 484.02 908.65 484.93 910.61C486.81 914.75 488.46 918.67 490.24 922.8C493.72 930.99 497.13 939.44 500.42 948.14C506.92 965.55 512.8 984.14 516.21 1003.85C519.55 1023.57 519.99 1043.99 519.33 1063.78C518.63 1083.61 517.14 1103.1 516.17 1122.28C515.7 1131.86 515.23 1141.36 514.77 1150.75C514.51 1155.53 514.37 1160.02 514.26 1164.53C514.15 1169.04 514.2 1173.53 514.26 1177.97C514.74 1195.77 516.26 1213.01 518.8 1229.25C521.28 1245.49 524.4 1260.78 527.89 1274.75C531.29 1288.75 535.04 1301.45 538.59 1312.63C542.08 1323.83 545.52 1333.48 548.48 1341.36C551.46 1349.23 553.95 1355.36 555.66 1359.5C556.53 1361.55 557.2 1363.12 557.66 1364.18C558.11 1365.2 558.35 1365.73 558.35 1365.73L543.91 1372.89L543.93 1372.88Z" fill="#007FDE"/>
<path d="M541.99 1375.81C541.99 1375.81 541.58 1375.56 540.55 1374.8C539.53 1374.04 537.9 1372.87 536.2 1371.42C532.53 1368.56 527.73 1363.99 521.96 1357.84C519.18 1354.7 516.11 1351.19 512.97 1347.24C510.02 1343.16 506.46 1338.96 503.47 1333.97C501.9 1331.52 500.29 1328.98 498.63 1326.37C497.14 1323.67 495.62 1320.88 494.05 1318.03C490.73 1312.39 488.14 1306.06 485.19 1299.55C483.63 1296.33 482.47 1292.88 481.2 1289.4C479.94 1285.91 478.66 1282.36 477.35 1278.75C476.21 1275.09 475.28 1271.31 474.21 1267.5C473.23 1263.67 471.99 1259.83 471.19 1255.85C470.42 1251.86 469.64 1247.82 468.85 1243.73C468.08 1239.64 467.16 1235.51 466.83 1231.27C466.37 1227.05 465.9 1222.78 465.43 1218.47C465.2 1216.31 464.96 1214.15 464.73 1211.97C464.52 1209.8 464.54 1207.6 464.43 1205.4C464.28 1201 464.12 1196.57 463.97 1192.1C463.91 1189.87 463.85 1187.63 463.79 1185.38C463.77 1183.14 463.95 1180.89 464.02 1178.63C464.42 1169.74 464.83 1160.75 465.24 1151.68C465.72 1142.71 466.2 1133.68 466.68 1124.6C467.02 1120.01 466.94 1115.62 466.97 1111.19L467.02 1097.86C467.33 1088.96 466.49 1080.07 465.95 1071.2L465.52 1064.55L465.31 1061.23C465.21 1060.13 465.01 1059.05 464.86 1057.96C464.25 1053.6 463.64 1049.25 463.03 1044.92C462.15 1036.16 459.75 1027.84 457.97 1019.44C457.18 1015.21 455.72 1011.2 454.47 1007.16C453.18 1003.12 451.9 999.11 450.64 995.13C444.59 979.57 438.03 964.54 430.61 950.95C423.22 937.77 414.54 925.69 406.75 914.45C398.88 903.21 391.97 892.4 387.12 882.14C382.21 871.91 379.24 862.38 377.81 854.39C376.91 850.43 376.58 846.82 376.25 843.7C376.1 842.14 375.88 840.7 375.82 839.38C375.78 838.05 375.75 836.85 375.72 835.77C375.6 831.46 375.53 829.16 375.53 829.16L377.44 829.11C377.44 829.11 377.67 831.36 378.09 835.59C378.2 836.64 378.31 837.82 378.44 839.12C378.6 840.41 378.91 841.8 379.17 843.31C379.71 846.33 380.28 849.8 381.43 853.56C383.33 861.17 386.63 870.16 391.91 879.7C397.13 889.28 404.34 899.31 412.78 910.02C421.2 920.81 430.54 932.34 439.23 946.11C447.56 959.65 455.08 974.59 462.27 990.56C463.82 994.65 465.39 998.78 466.96 1002.94C468.5 1007.12 470.25 1011.27 471.33 1015.66C473.68 1024.36 476.66 1033.09 478.08 1042.19C478.95 1046.71 479.83 1051.25 480.71 1055.81C480.91 1056.95 481.17 1058.09 481.33 1059.24L481.71 1062.69L482.46 1069.6C483.44 1078.83 484.7 1088.09 484.8 1097.46L485.35 1111.48C485.54 1116.16 485.78 1120.87 485.53 1125.36C485.27 1134.44 485.02 1143.49 484.77 1152.46C484.59 1161.34 484.41 1170.15 484.23 1178.85C484.21 1180.99 484.09 1183.13 484.16 1185.26C484.27 1187.38 484.39 1189.5 484.5 1191.6C484.69 1195.81 484.88 1199.99 485.06 1204.14C485.18 1206.21 485.18 1208.29 485.39 1210.33C485.63 1212.37 485.87 1214.39 486.11 1216.41C486.59 1220.44 487.06 1224.44 487.52 1228.4C487.85 1232.38 488.79 1236.19 489.45 1240.01C490.16 1243.82 490.86 1247.59 491.56 1251.3C492.27 1255.01 493.42 1258.55 494.3 1262.1C495.27 1265.63 496.1 1269.14 497.13 1272.53C498.27 1275.87 499.39 1279.16 500.49 1282.39C501.59 1285.62 502.58 1288.83 503.96 1291.79C506.55 1297.8 508.81 1303.66 511.65 1308.9C512.99 1311.56 514.3 1314.15 515.57 1316.67C517 1319.09 518.4 1321.44 519.74 1323.72C522.31 1328.37 525.26 1332.33 527.75 1336.18C530.39 1339.9 532.99 1343.2 535.33 1346.16C540.2 1351.91 544.27 1356.23 547.13 1358.9C548.58 1360.34 549.57 1361.15 550.26 1361.78C550.95 1362.4 551.52 1362.81 551.48 1362.79L541.99 1375.81Z" fill="#007FDE"/>
<path d="M1057.55 734.182H1043.36C1042.82 731.152 1041.8 728.485 1040.32 726.182C1038.83 723.879 1037.02 721.924 1034.86 720.318C1032.71 718.712 1030.3 717.5 1027.64 716.682C1025 715.864 1022.2 715.455 1019.23 715.455C1013.86 715.455 1009.06 716.803 1004.82 719.5C1000.61 722.197 997.273 726.152 994.818 731.364C992.394 736.576 991.182 742.939 991.182 750.455C991.182 758.03 992.394 764.424 994.818 769.636C997.273 774.848 1000.62 778.788 1004.86 781.455C1009.11 784.121 1013.88 785.455 1019.18 785.455C1022.12 785.455 1024.91 785.061 1027.55 784.273C1030.21 783.455 1032.62 782.258 1034.77 780.682C1036.92 779.106 1038.74 777.182 1040.23 774.909C1041.74 772.606 1042.79 769.97 1043.36 767L1057.55 767.045C1056.79 771.621 1055.32 775.833 1053.14 779.682C1050.98 783.5 1048.21 786.803 1044.82 789.591C1041.45 792.348 1037.61 794.485 1033.27 796C1028.94 797.515 1024.21 798.273 1019.09 798.273C1011.03 798.273 1003.85 796.364 997.545 792.545C991.242 788.697 986.273 783.197 982.636 776.045C979.03 768.894 977.227 760.364 977.227 750.455C977.227 740.515 979.045 731.985 982.682 724.864C986.318 717.712 991.288 712.227 997.591 708.409C1003.89 704.561 1011.06 702.636 1019.09 702.636C1024.03 702.636 1028.64 703.348 1032.91 704.773C1037.21 706.167 1041.08 708.227 1044.5 710.955C1047.92 713.652 1050.76 716.955 1053 720.864C1055.24 724.742 1056.76 729.182 1057.55 734.182ZM1067.31 797V784.818L1070.03 784.727C1073.73 784.636 1076.64 783.379 1078.76 780.955C1080.91 778.53 1082.47 774.621 1083.44 769.227C1084.44 763.833 1085.11 756.636 1085.44 747.636L1087.03 703.909H1145.9V797H1132.03V715.818H1100.26L1098.81 751.364C1098.41 761.333 1097.41 769.712 1095.81 776.5C1094.2 783.258 1091.47 788.364 1087.62 791.818C1083.81 795.273 1078.37 797 1071.31 797H1067.31ZM1247.22 750.455C1247.22 760.394 1245.4 768.939 1241.76 776.091C1238.13 783.212 1233.14 788.697 1226.81 792.545C1220.5 796.364 1213.34 798.273 1205.31 798.273C1197.25 798.273 1190.05 796.364 1183.72 792.545C1177.41 788.697 1172.44 783.197 1168.81 776.045C1165.17 768.894 1163.35 760.364 1163.35 750.455C1163.35 740.515 1165.17 731.985 1168.81 724.864C1172.44 717.712 1177.41 712.227 1183.72 708.409C1190.05 704.561 1197.25 702.636 1205.31 702.636C1213.34 702.636 1220.5 704.561 1226.81 708.409C1233.14 712.227 1238.13 717.712 1241.76 724.864C1245.4 731.985 1247.22 740.515 1247.22 750.455ZM1233.31 750.455C1233.31 742.879 1232.08 736.5 1229.62 731.318C1227.2 726.106 1223.87 722.167 1219.62 719.5C1215.41 716.803 1210.64 715.455 1205.31 715.455C1199.94 715.455 1195.16 716.803 1190.94 719.5C1186.73 722.167 1183.4 726.106 1180.94 731.318C1178.52 736.5 1177.31 742.879 1177.31 750.455C1177.31 758.03 1178.52 764.424 1180.94 769.636C1183.4 774.818 1186.73 778.758 1190.94 781.455C1195.16 784.121 1199.94 785.455 1205.31 785.455C1210.64 785.455 1215.41 784.121 1219.62 781.455C1223.87 778.758 1227.2 774.818 1229.62 769.636C1232.08 764.424 1233.31 758.03 1233.31 750.455ZM1264.73 797V703.909H1278.77V744.364H1325.18V703.909H1339.27V797H1325.18V756.409H1278.77V797H1264.73ZM1359.73 703.909H1373.64V772.273H1374.5L1421.86 703.909H1434.86V797H1420.82V728.727H1419.95L1372.68 797H1359.73V703.909Z" fill="#007FDE"/>
<path d="M923.469 861.636H957.381L980.707 918.483H981.884L1005.21 861.636H1039.12V962H1012.46V903.977H1011.68L989.332 961.216H973.259L950.912 903.585H950.128V962H923.469V861.636ZM1052.04 861.636H1079.28V914.17H1080.07L1115.74 861.636H1138.87V962H1111.63V909.27H1111.04L1074.77 962H1052.04V861.636ZM1175.92 986.111V941.026H1182.98C1185.33 939.588 1187.45 937.562 1189.35 934.949C1191.28 932.335 1192.91 928.594 1194.25 923.727C1195.62 918.859 1196.63 912.341 1197.29 904.173L1200.62 861.636H1271.58V941.026H1282.17V986.111H1255.9V962H1202.19V986.111H1175.92ZM1214.15 941.026H1245.31V883.591H1225.12L1223.56 904.173C1223.1 910.315 1222.4 915.69 1221.45 920.296C1220.53 924.87 1219.44 928.856 1218.16 932.254C1216.92 935.619 1215.58 938.543 1214.15 941.026ZM1291.38 962V861.636H1318.63V900.841H1354.69V861.636H1381.94V962H1354.69V922.795H1318.63V962H1291.38ZM1492.11 911.818C1492.11 922.991 1489.93 932.417 1485.59 940.094C1481.24 947.739 1475.38 953.538 1468 957.491C1460.61 961.412 1452.38 963.372 1443.3 963.372C1434.15 963.372 1425.88 961.396 1418.5 957.442C1411.15 953.457 1405.3 947.641 1400.96 939.996C1396.64 932.319 1394.49 922.926 1394.49 911.818C1394.49 900.645 1396.64 891.236 1400.96 883.591C1405.3 875.913 1411.15 870.114 1418.5 866.194C1425.88 862.241 1434.15 860.264 1443.3 860.264C1452.38 860.264 1460.61 862.241 1468 866.194C1475.38 870.114 1481.24 875.913 1485.59 883.591C1489.93 891.236 1492.11 900.645 1492.11 911.818ZM1464.07 911.818C1464.07 905.807 1463.27 900.743 1461.67 896.626C1460.11 892.477 1457.77 889.341 1454.67 887.217C1451.59 885.061 1447.81 883.983 1443.3 883.983C1438.79 883.983 1434.98 885.061 1431.88 887.217C1428.81 889.341 1426.47 892.477 1424.87 896.626C1423.3 900.743 1422.52 905.807 1422.52 911.818C1422.52 917.83 1423.3 922.91 1424.87 927.059C1426.47 931.175 1428.81 934.312 1431.88 936.468C1434.98 938.592 1438.79 939.653 1443.3 939.653C1447.81 939.653 1451.59 938.592 1454.67 936.468C1457.77 934.312 1460.11 931.175 1461.67 927.059C1463.27 922.91 1464.07 917.83 1464.07 911.818Z" fill="#006AC3"/>
</g>
<defs>
<linearGradient id="paint0_linear_147_654" x1="1555.67" y1="1226.01" x2="846.945" y2="846.268" gradientUnits="userSpaceOnUse">
<stop stop-color="white"/>
<stop offset="1" stop-color="#B5F6FF"/>
</linearGradient>
<clipPath id="clip0_147_654">
<rect width="1646" height="1707" fill="white"/>
</clipPath>
</defs>
</svg>
